<?xml version="1.0" encoding="utf-8"?>
<!-- Generator: Adobe Illustrator 27.6.1, SVG Export Plug-In . SVG Version: 6.00 Build 0)  -->
<svg version="1.1" id="Layer_1" xmlns="http://www.w3.org/2000/svg" xmlns:xlink="http://www.w3.org/1999/xlink" x="0px" y="0px"
	 viewBox="0 0 616.2 337.7" style="enable-background:new 0 0 616.2 337.7;" xml:space="preserve">
<style type="text/css">
	.st0{fill:#231F20;}
	.st1{clip-path:url(#SVGID_00000137841819339138628470000012446331587840931475_);fill:#008144;}
	.st2{clip-path:url(#SVGID_00000137841819339138628470000012446331587840931475_);}
	.st3{fill:none;stroke:#8AC43E;stroke-width:0.75;stroke-miterlimit:10;}
	.st4{fill:#8AC43E;}
	.st5{fill:#FFFFFF;}
	.st6{clip-path:url(#SVGID_00000163754406008485762300000008422994239743258551_);fill:#FFFFFF;}
	.st7{fill:#008144;}
	.st8{font-family:'Averta-Bold';}
	.st9{font-size:10px;}
	.st10{font-family:'Averta-Regular';}
	.st11{font-size:7.5px;}
	.st12{fill:none;stroke:#33373A;stroke-width:0.25;stroke-miterlimit:10;}
	.st13{font-family:'RalewayRoman-Regular';}
	.st14{font-size:12px;}
</style>
<rect class="st0" width="616.2" height="337.7"/>
<g>
	<defs>
		
			<rect id="SVGID_1_" x="85.6" y="57.5" transform="matrix(-1.836970e-16 1 -1 -1.836970e-16 348.5525 21.5024)" width="155.9" height="255.1"/>
	</defs>
	<clipPath id="SVGID_00000010288807705353750390000015362607951124491198_">
		<use xlink:href="#SVGID_1_"  style="overflow:visible;"/>
	</clipPath>
	
		<rect x="85.6" y="57.5" transform="matrix(-1.836970e-16 1 -1 -1.836970e-16 348.5525 21.5024)" style="clip-path:url(#SVGID_00000010288807705353750390000015362607951124491198_);fill:#008144;" width="155.9" height="255.1"/>
	<g style="clip-path:url(#SVGID_00000010288807705353750390000015362607951124491198_);">
		<g>
			<path class="st3" d="M198.4,93.7v39c0,5.8,2.1,11.4,6,15.7l31,34.5V93.7H198.4z"/>
		</g>
		<g>
			<path class="st3" d="M272.3,272.4l0-39c0-5.8-2.1-11.4-6-15.7l-31-34.5l0,89.3H272.3z"/>
		</g>
	</g>
</g>
<g>
	<g>
		<path class="st4" d="M84,236.8c-1-0.5-1.8-1.2-2.3-2.1c-0.5-0.9-0.8-2-0.8-3.2c0-1.3,0.3-2.4,0.8-3.3c0.5-0.9,1.3-1.6,2.3-2.1
			c1-0.5,2.2-0.7,3.5-0.7c1.4,0,2.5,0.2,3.5,0.7c0.9,0.5,1.7,1.1,2.1,2c0.5,0.9,0.7,2,0.7,3.2c0,0.2,0,0.4,0,0.5
			c0,0.2,0,0.3-0.1,0.4H83v-2.1h7.3l-0.9,1.2c0.1-0.1,0.2-0.3,0.2-0.4c0.1-0.2,0.1-0.3,0.1-0.4c0-0.5-0.1-1-0.3-1.3
			c-0.2-0.4-0.5-0.7-0.8-0.9c-0.3-0.2-0.7-0.3-1.2-0.3c-0.6,0-1.1,0.1-1.5,0.4c-0.4,0.3-0.7,0.6-0.9,1.2c-0.2,0.5-0.3,1.2-0.3,2
			c0,0.7,0.1,1.3,0.3,1.8c0.2,0.5,0.5,0.9,0.9,1.2c0.4,0.3,0.9,0.4,1.5,0.4c0.7,0,1.3-0.1,1.8-0.4c0.5-0.3,0.9-0.6,1.2-1.2l3.5,0.8
			c-0.6,1.2-1.4,2-2.5,2.6c-1,0.6-2.3,0.9-3.8,0.9C86.1,237.5,85,237.3,84,236.8z"/>
		<path class="st4" d="M114.1,237.3h-3.9v-7.2c0-0.7-0.1-1.3-0.3-1.6c-0.2-0.4-0.6-0.5-1.1-0.5c-0.3,0-0.6,0.1-0.9,0.2
			c-0.3,0.2-0.5,0.4-0.6,0.7c-0.1,0.3-0.2,0.7-0.2,1.2v7.2h-3.9v-7.2c0-0.7-0.1-1.3-0.3-1.6c-0.2-0.4-0.6-0.5-1.1-0.5
			c-0.3,0-0.6,0.1-0.9,0.2c-0.3,0.2-0.5,0.4-0.6,0.7c-0.1,0.3-0.2,0.7-0.2,1.2v7.2h-3.7v-11.8h3.7v1.7c0.3-0.6,0.8-1.1,1.3-1.5
			c0.6-0.4,1.3-0.5,2.1-0.5c0.9,0,1.7,0.2,2.2,0.5c0.5,0.3,0.9,0.8,1.2,1.4c0.4-0.6,1-1.1,1.6-1.4c0.6-0.3,1.3-0.5,2.1-0.5
			c0.9,0,1.6,0.2,2.2,0.5c0.5,0.3,0.9,0.9,1.2,1.5c0.2,0.7,0.4,1.5,0.4,2.4V237.3z"/>
		<path class="st4" d="M117.3,228.2c0.6-0.9,1.4-1.6,2.4-2.1c1-0.5,2.2-0.8,3.5-0.8c1.3,0,2.4,0.3,3.4,0.8c1,0.5,1.8,1.2,2.4,2.1
			c0.6,0.9,0.9,2,0.9,3.2c0,1.2-0.3,2.3-0.9,3.2c-0.6,0.9-1.4,1.6-2.4,2.1c-1,0.5-2.2,0.8-3.4,0.8c-1.3,0-2.4-0.3-3.5-0.8
			c-1-0.5-1.8-1.2-2.4-2.1c-0.6-0.9-0.9-2-0.9-3.2C116.4,230.2,116.7,229.1,117.3,228.2z M120.8,233c0.3,0.4,0.6,0.8,1,1
			c0.4,0.2,0.9,0.4,1.4,0.4c0.5,0,0.9-0.1,1.4-0.4c0.4-0.2,0.7-0.6,1-1c0.2-0.4,0.4-1,0.4-1.6c0-0.6-0.1-1.1-0.4-1.6
			c-0.2-0.4-0.6-0.8-1-1c-0.4-0.2-0.9-0.4-1.4-0.4c-0.5,0-1,0.1-1.4,0.4c-0.4,0.2-0.7,0.6-1,1c-0.3,0.4-0.4,1-0.4,1.6
			C120.4,232,120.5,232.5,120.8,233z"/>
		<path class="st4" d="M136,237.3h-3.8v-11.8h3.8V237.3z M138.7,229c-0.2-0.1-0.5-0.2-0.9-0.2c-0.4,0-0.7,0.1-1,0.3
			s-0.5,0.5-0.7,0.9c-0.2,0.4-0.2,0.9-0.2,1.4l-0.9-1.4c0-0.9,0.2-1.8,0.5-2.5c0.4-0.7,0.8-1.3,1.4-1.7c0.6-0.4,1.2-0.6,1.9-0.6
			c0.4,0,0.8,0.1,1.2,0.3c0.4,0.2,0.7,0.4,0.9,0.7l-1.7,3.3C139.2,229.3,139,229.1,138.7,229z"/>
		<path class="st5" d="M155.4,219.4h13.8l-8.2,14.2h7.5v3.7h-14.3l8.1-14h-6.9V219.4z"/>
		<path class="st5" d="M170,228.2c0.6-0.9,1.4-1.6,2.4-2.1c1-0.5,2.2-0.8,3.5-0.8c1.3,0,2.4,0.3,3.4,0.8c1,0.5,1.8,1.2,2.4,2.1
			c0.6,0.9,0.9,2,0.9,3.2c0,1.2-0.3,2.3-0.9,3.2c-0.6,0.9-1.4,1.6-2.4,2.1c-1,0.5-2.2,0.8-3.4,0.8c-1.3,0-2.4-0.3-3.5-0.8
			s-1.8-1.2-2.4-2.1c-0.6-0.9-0.9-2-0.9-3.2C169.1,230.2,169.4,229.1,170,228.2z M173.5,233c0.3,0.4,0.6,0.8,1,1
			c0.4,0.2,0.9,0.4,1.4,0.4c0.5,0,0.9-0.1,1.4-0.4c0.4-0.2,0.7-0.6,1-1c0.2-0.4,0.4-1,0.4-1.6c0-0.6-0.1-1.1-0.4-1.6
			c-0.2-0.4-0.6-0.8-1-1c-0.4-0.2-0.9-0.4-1.4-0.4c-0.5,0-1,0.1-1.4,0.4c-0.4,0.2-0.7,0.6-1,1c-0.3,0.4-0.4,1-0.4,1.6
			C173.1,232,173.2,232.5,173.5,233z"/>
		<path class="st5" d="M192.1,228.5c-0.3-0.4-0.7-0.6-1.3-0.6c-0.4,0-0.8,0.1-1.1,0.3c-0.3,0.2-0.5,0.4-0.7,0.7
			c-0.2,0.3-0.3,0.7-0.3,1.2v7.2h-3.9v-11.8h3.9v1.8c0.3-0.6,0.8-1.2,1.4-1.5c0.6-0.4,1.3-0.5,2.2-0.5c1.5,0,2.5,0.4,3.2,1.2
			c0.7,0.8,1,1.9,1,3.3v7.6h-4v-7.2C192.5,229.4,192.4,228.9,192.1,228.5z"/>
		<path class="st5" d="M202,236.8c-1-0.5-1.8-1.2-2.3-2.1c-0.5-0.9-0.8-2-0.8-3.2c0-1.3,0.3-2.4,0.8-3.3c0.5-0.9,1.3-1.6,2.3-2.1
			c1-0.5,2.2-0.7,3.5-0.7c1.4,0,2.5,0.2,3.5,0.7c0.9,0.5,1.7,1.1,2.1,2c0.5,0.9,0.7,2,0.7,3.2c0,0.2,0,0.4,0,0.5
			c0,0.2,0,0.3-0.1,0.4H201v-2.1h7.3l-0.9,1.2c0.1-0.1,0.2-0.3,0.2-0.4c0.1-0.2,0.1-0.3,0.1-0.4c0-0.5-0.1-1-0.3-1.3
			c-0.2-0.4-0.5-0.7-0.8-0.9c-0.3-0.2-0.7-0.3-1.2-0.3c-0.6,0-1.1,0.1-1.5,0.4c-0.4,0.3-0.7,0.6-0.9,1.2c-0.2,0.5-0.3,1.2-0.3,2
			c0,0.7,0.1,1.3,0.3,1.8c0.2,0.5,0.5,0.9,0.9,1.2c0.4,0.3,0.9,0.4,1.5,0.4c0.7,0,1.3-0.1,1.8-0.4c0.5-0.3,0.9-0.6,1.2-1.2l3.5,0.8
			c-0.6,1.2-1.4,2-2.5,2.6c-1,0.6-2.3,0.9-3.8,0.9C204.2,237.5,203,237.3,202,236.8z"/>
		<path class="st4" d="M67,229.3l10.6-8.9v7.4c0,0.8-0.3,1.5-0.9,2l-10.6,8.9v-7.4C66.1,230.5,66.4,229.8,67,229.3z"/>
		<path class="st4" d="M55.5,229.3l10.6-8.9v7.4c0,0.8-0.3,1.5-0.9,2l-10.6,8.9v-7.4C54.6,230.5,54.9,229.8,55.5,229.3z"/>
		<circle class="st4" cx="77.2" cy="235.1" r="2.6"/>
		<g>
			<path class="st5" d="M174.3,244.5V241h1.4c0.2,0,0.4,0,0.6,0.1c0.2,0.1,0.3,0.2,0.3,0.4c0.1,0.1,0.1,0.3,0.1,0.5
				c0,0.2,0,0.4-0.1,0.5c-0.1,0.1-0.2,0.2-0.4,0.3v-0.1c0.2,0,0.4,0.2,0.5,0.3c0.1,0.2,0.2,0.3,0.2,0.5c0,0.2,0,0.4-0.1,0.5
				c-0.1,0.2-0.2,0.3-0.4,0.4c-0.2,0.1-0.3,0.1-0.6,0.1H174.3z M174.8,242.4h0.8c0.1,0,0.2,0,0.2,0c0.1,0,0.1-0.1,0.2-0.1
				c0-0.1,0.1-0.1,0.1-0.2c0-0.1,0-0.2-0.1-0.3c-0.1-0.1-0.2-0.1-0.3-0.1h-0.8V242.4z M174.8,243.9h0.9c0.1,0,0.2,0,0.3-0.1
				c0.1,0,0.1-0.1,0.2-0.2c0-0.1,0.1-0.2,0.1-0.3c0-0.1,0-0.2-0.1-0.3c0-0.1-0.1-0.1-0.2-0.2c-0.1,0-0.2-0.1-0.3-0.1h-0.9V243.9z"/>
			<path class="st5" d="M179,244.5V243l-1.2-2h0.7l0.8,1.4l0.8-1.4h0.7l-1.2,2v1.4H179z"/>
			<path class="st5" d="M185,244.5c-0.3,0-0.5,0-0.7-0.1c-0.2-0.1-0.4-0.2-0.5-0.4c-0.1-0.2-0.2-0.4-0.2-0.6l0.6-0.1
				c0.1,0.2,0.2,0.4,0.3,0.5c0.2,0.1,0.3,0.2,0.6,0.2c0.1,0,0.2,0,0.3-0.1c0.1,0,0.2-0.1,0.3-0.2c0.1-0.1,0.1-0.2,0.1-0.3
				c0,0,0-0.1,0-0.1c0,0,0-0.1-0.1-0.1c0,0-0.1-0.1-0.1-0.1c0,0-0.1,0-0.2-0.1l-0.9-0.3c-0.1,0-0.2-0.1-0.2-0.1
				c-0.1,0-0.2-0.1-0.3-0.2c-0.1-0.1-0.1-0.2-0.2-0.3c-0.1-0.1-0.1-0.2-0.1-0.4c0-0.2,0.1-0.4,0.2-0.6c0.1-0.2,0.3-0.3,0.5-0.3
				c0.2-0.1,0.4-0.1,0.6-0.1c0.2,0,0.4,0,0.6,0.1c0.2,0.1,0.3,0.2,0.5,0.3c0.1,0.2,0.2,0.3,0.3,0.5l-0.6,0.1c0-0.1-0.1-0.2-0.1-0.3
				c-0.1-0.1-0.2-0.2-0.3-0.2c-0.1,0-0.2-0.1-0.3-0.1c-0.1,0-0.2,0-0.3,0.1c-0.1,0-0.2,0.1-0.2,0.2c-0.1,0.1-0.1,0.1-0.1,0.2
				c0,0.1,0,0.2,0.1,0.2c0.1,0.1,0.1,0.1,0.2,0.1c0.1,0,0.2,0.1,0.2,0.1l0.6,0.2c0.1,0,0.2,0.1,0.3,0.1c0.1,0,0.2,0.1,0.3,0.2
				c0.1,0.1,0.2,0.2,0.2,0.3c0.1,0.1,0.1,0.3,0.1,0.4c0,0.2,0,0.3-0.1,0.5c-0.1,0.1-0.2,0.2-0.3,0.3c-0.1,0.1-0.3,0.2-0.4,0.2
				C185.4,244.5,185.2,244.5,185,244.5z"/>
			<path class="st5" d="M187.9,244.5V241h0.6v3.5H187.9z"/>
			<path class="st5" d="M190.2,244.5V241h2.2v0.5h-1.7v0.9h1.4v0.5h-1.4v1h1.7v0.5H190.2z M190.4,240.6l0.7-0.8h0.5l0.7,0.8h-0.5
				l-0.4-0.4l-0.4,0.4H190.4z"/>
			<path class="st5" d="M195.4,244.5c-0.3,0-0.5-0.1-0.7-0.2c-0.2-0.1-0.4-0.3-0.5-0.5c-0.1-0.2-0.2-0.4-0.2-0.7V241l0.6,0v2.2
				c0,0.1,0,0.2,0.1,0.3c0,0.1,0.1,0.2,0.2,0.3c0.1,0.1,0.2,0.1,0.3,0.2c0.1,0,0.2,0.1,0.3,0.1c0.1,0,0.2,0,0.3-0.1s0.2-0.1,0.3-0.2
				c0.1-0.1,0.1-0.2,0.2-0.3c0-0.1,0.1-0.2,0.1-0.3V241h0.6v2.2c0,0.3-0.1,0.5-0.2,0.7c-0.1,0.2-0.3,0.4-0.5,0.5
				C195.9,244.5,195.7,244.5,195.4,244.5z"/>
			<path class="st5" d="M201.2,244.5v-2.9h-1.1V241h2.8v0.5h-1.1v2.9H201.2z"/>
			<path class="st5" d="M205.7,244.5c-0.3,0-0.6-0.1-0.9-0.2c-0.2-0.2-0.4-0.4-0.6-0.6c-0.1-0.3-0.2-0.6-0.2-0.9
				c0-0.4,0.1-0.7,0.2-0.9c0.1-0.3,0.3-0.5,0.6-0.6c0.2-0.2,0.5-0.2,0.9-0.2s0.6,0.1,0.9,0.2c0.2,0.2,0.4,0.4,0.6,0.6
				c0.1,0.3,0.2,0.6,0.2,0.9c0,0.4-0.1,0.7-0.2,0.9c-0.1,0.3-0.3,0.5-0.6,0.6C206.3,244.5,206,244.5,205.7,244.5z M205.7,244
				c0.2,0,0.4,0,0.6-0.2c0.2-0.1,0.3-0.3,0.3-0.4c0.1-0.2,0.1-0.4,0.1-0.7c0-0.3,0-0.5-0.1-0.7c-0.1-0.2-0.2-0.3-0.3-0.4
				c-0.2-0.1-0.3-0.2-0.6-0.2c-0.2,0-0.4,0-0.6,0.2c-0.2,0.1-0.3,0.3-0.3,0.4c-0.1,0.2-0.1,0.4-0.1,0.7c0,0.3,0,0.5,0.1,0.7
				c0.1,0.2,0.2,0.3,0.3,0.4C205.3,243.9,205.5,244,205.7,244z M204.8,240.6l0.7-0.8h0.5l0.7,0.8h-0.5l-0.4-0.4l-0.4,0.4H204.8z
				 M207,240.1h-0.4l0.4-0.9h0.4L207,240.1z"/>
			<path class="st5" d="M210.3,244.5c-0.3,0-0.6-0.1-0.9-0.2c-0.2-0.2-0.4-0.4-0.6-0.6c-0.1-0.3-0.2-0.6-0.2-0.9
				c0-0.4,0.1-0.7,0.2-0.9c0.1-0.3,0.3-0.5,0.6-0.6c0.2-0.2,0.5-0.2,0.9-0.2c0.4,0,0.7,0.1,1,0.3s0.5,0.5,0.6,0.8l-0.6,0.2
				c-0.1-0.2-0.2-0.4-0.3-0.5c-0.2-0.1-0.4-0.2-0.6-0.2c-0.2,0-0.4,0.1-0.6,0.2c-0.2,0.1-0.3,0.3-0.3,0.4c-0.1,0.2-0.1,0.4-0.1,0.7
				c0,0.3,0,0.5,0.1,0.7c0.1,0.2,0.2,0.3,0.4,0.4c0.2,0.1,0.4,0.2,0.6,0.2c0.3,0,0.5-0.1,0.6-0.2c0.2-0.1,0.3-0.3,0.3-0.5l0.6,0.2
				c-0.1,0.3-0.3,0.6-0.6,0.8S210.7,244.5,210.3,244.5z"/>
		</g>
		<polygon class="st4" points="141.9,242.9 145.8,242.9 155.9,225.5 152,225.5 		"/>
		<g>
			<polygon class="st4" points="148.5,231.8 145.9,225.5 141.7,225.5 146.4,235.5 			"/>
		</g>
	</g>
</g>
<g>
	<g>
		<defs>
			
				<rect id="SVGID_00000101822489213678315010000001388874591600270488_" x="367.5" y="57.5" transform="matrix(-1.836970e-16 1 -1 -1.836970e-16 630.5228 -260.4679)" width="155.9" height="255.1"/>
		</defs>
		<clipPath id="SVGID_00000171692097682336778460000013007278614757823921_">
			<use xlink:href="#SVGID_00000101822489213678315010000001388874591600270488_"  style="overflow:visible;"/>
		</clipPath>
		
			<rect x="367.5" y="57.5" transform="matrix(-1.836970e-16 1 -1 -1.836970e-16 630.5228 -260.4679)" style="clip-path:url(#SVGID_00000171692097682336778460000013007278614757823921_);fill:#FFFFFF;" width="155.9" height="255.1"/>
	</g>
	<text transform="matrix(1 0 0 1 346.6888 144.5176)" class="st7 st8 st9">Lê Minh Thảo</text>
	<g>
		<text transform="matrix(1 0 0 1 346.6888 154.3045)" class="st10 st11">Giám Đốc</text>
	</g>
	<g>
		<path class="st4" d="M524.3,142.4l15.9-13.4v11.2c0,1.1-0.5,2.2-1.4,2.9L523,156.5v-11.2C523,144.2,523.5,143.1,524.3,142.4z"/>
		<path class="st4" d="M507,142.4l15.9-13.4v11.2c0,1.1-0.5,2.2-1.4,2.9l-15.9,13.4v-11.2C505.6,144.2,506.1,143.1,507,142.4z"/>
		<circle class="st4" cx="539.8" cy="151.1" r="3.9"/>
	</g>
	
		<rect x="367.5" y="57.5" transform="matrix(-1.836970e-16 1 -1 -1.836970e-16 630.5228 -260.4679)" class="st12" width="155.9" height="255.1"/>
	<g>
		<g>
			<g>
				<path class="st7" d="M317.9,181.6h36.2c0.9,0,1.7-0.3,2.4-0.9l5.3-4.7h-43.9V181.6z"/>
			</g>
		</g>
		<g>
			<path class="st4" d="M573.1,170.2l-203.5,0c-0.9,0-1.7,0.3-2.4,0.9l-5.3,4.7h211.2V170.2z"/>
		</g>
	</g>
	<text transform="matrix(1 0 0 1 346.6898 212.8445)"><tspan x="0" y="0" class="st7 st8 st11">Showroom HCM: </tspan><tspan x="61.1" y="0" class="st10 st11">4C Đồng Xoài, Phường 13, Tân Bình</tspan></text>
	<text transform="matrix(1 0 0 1 346.6898 225.2186)"><tspan x="0" y="0" class="st7 st8 st11">Showroom HN: </tspan><tspan x="54.7" y="0" class="st10 st11">60 Phố Dịch Vọng Hậu,</tspan><tspan x="0" y="10" class="st10 st11">Dịch Vọng Hậu, Quận Cầu Giấy</tspan></text>
	<text transform="matrix(1 0 0 1 346.6888 248.924)"><tspan x="0" y="0" class="st7 st8 st11">Hotline:</tspan><tspan x="27.5" y="0" class="st10 st11"> (028) 7301 3878</tspan></text>
	<text transform="matrix(1 0 0 1 439.8792 248.924)"><tspan x="0" y="0" class="st7 st8 st11">Email: </tspan><tspan x="23.9" y="0" class="st10 st11">minhthao@sieutoc.com</tspan></text>
	<g>
		<text transform="matrix(1 0 0 1 346.6893 200.532)" class="st8 st11">CTY TNHH Dịch vụ tin học Siêu Tốc</text>
	</g>
</g>
<g>
	<text transform="matrix(1 0 0 1 35.9642 91.8536)" class="st5 st13 st14">Mặt trước</text>
</g>
<g>
	<text transform="matrix(1 0 0 1 35.9642 309.265)" class="st5 st13 st14">90x55mm</text>
</g>
<g>
	<text transform="matrix(1 0 0 1 317.9365 91.8536)" class="st5 st13 st14">Mặt sau</text>
</g>
</svg>
