<?xml version="1.0" encoding="utf-8"?>
<!-- Generator: Adobe Illustrator 27.6.1, SVG Export Plug-In . SVG Version: 6.00 Build 0)  -->
<svg version="1.1" id="Layer_1" xmlns="http://www.w3.org/2000/svg" xmlns:xlink="http://www.w3.org/1999/xlink" x="0px" y="0px"
	 viewBox="0 0 301.6 903.8" style="enable-background:new 0 0 301.6 903.8;" xml:space="preserve">
<style type="text/css">
	.st0{fill:#231F20;}
	.st1{fill:#FFFFFF;}
	.st2{fill:#8AC43E;}
	.st3{fill:#008144;}
	.st4{clip-path:url(#SVGID_00000149360044540952657180000016213322038274834820_);fill:#FFFFFF;}
</style>
<rect class="st0" width="301.6" height="903.8"/>
<g>
	<path class="st1" d="M70.2,51c0,0.7-0.2,1.4-0.6,2s-0.9,1-1.5,1.4c-0.6,0.3-1.3,0.5-2.1,0.5h-7V39.9h7.2c0.7,0,1.3,0.2,1.8,0.6
		c0.5,0.4,0.9,0.8,1.2,1.4c0.3,0.6,0.4,1.2,0.4,1.8c0,0.7-0.2,1.4-0.6,2.1c-0.4,0.6-0.9,1.1-1.6,1.4c0.9,0.3,1.5,0.7,2,1.4
		C69.9,49.3,70.2,50.1,70.2,51z M60.4,41.2v5.5h5.1c0.5,0,0.9-0.1,1.3-0.4c0.4-0.3,0.7-0.6,0.9-1c0.2-0.4,0.3-0.9,0.3-1.3
		c0-0.5-0.1-1-0.3-1.4c-0.2-0.4-0.5-0.7-0.9-1c-0.4-0.3-0.8-0.4-1.2-0.4H60.4z M68.7,50.7c0-0.5-0.1-1-0.3-1.4s-0.5-0.8-0.9-1
		c-0.4-0.3-0.8-0.4-1.3-0.4h-5.7v5.6H66c0.5,0,1-0.1,1.4-0.4c0.4-0.3,0.7-0.6,1-1C68.6,51.7,68.7,51.2,68.7,50.7z"/>
	<path class="st1" d="M72.5,50.3v-6.4H74v6.1c0,1.2,0.2,2.2,0.6,2.8c0.4,0.6,1.1,0.9,1.9,0.9c0.6,0,1.1-0.1,1.6-0.4
		c0.5-0.2,1-0.6,1.4-1c0.4-0.5,0.7-1,0.9-1.6v-6.9h1.4v9.2c0,0.2,0,0.3,0.1,0.4s0.2,0.1,0.4,0.2v1.1c-0.2,0-0.3,0-0.4,0
		c-0.1,0-0.2,0-0.3,0c-0.3,0-0.5-0.1-0.7-0.3s-0.3-0.4-0.3-0.7l0-1.5c-0.5,0.8-1.1,1.5-1.9,2C77.9,54.8,77,55,76,55
		c-1.1,0-2-0.4-2.6-1.2S72.5,51.9,72.5,50.3z M77.7,41.8l-0.9-0.4l1.2-2h1.5L77.7,41.8z"/>
	<path class="st1" d="M90.4,54.4c-0.1,0-0.3,0.1-0.5,0.2c-0.2,0.1-0.5,0.2-0.9,0.3S88.3,55,87.9,55c-0.4,0-0.8-0.1-1.1-0.2
		c-0.4-0.2-0.6-0.4-0.9-0.7s-0.3-0.7-0.3-1.2V45h-1.5v-1.1h1.5v-3.7H87v3.7h2.5V45H87v7.5c0,0.4,0.2,0.7,0.4,0.9
		c0.3,0.2,0.6,0.3,0.9,0.3c0.4,0,0.7-0.1,1.1-0.2c0.3-0.1,0.5-0.2,0.6-0.3L90.4,54.4z"/>
	<path class="st1" d="M102.9,55c-0.9,0-1.6-0.2-2.4-0.7c-0.7-0.4-1.3-1-1.7-1.7v2.1h-1.3V39.5h1.4v6.7c0.5-0.7,1.1-1.3,1.8-1.8
		c0.7-0.5,1.5-0.7,2.4-0.7c0.8,0,1.5,0.2,2.1,0.5s1.1,0.7,1.6,1.3c0.4,0.5,0.8,1.1,1,1.8c0.2,0.7,0.3,1.4,0.3,2.1
		c0,0.8-0.1,1.5-0.4,2.2c-0.3,0.7-0.6,1.3-1.1,1.8c-0.5,0.5-1,0.9-1.6,1.2C104.3,54.9,103.6,55,102.9,55z M102.5,53.8
		c0.6,0,1.1-0.1,1.6-0.4s0.9-0.6,1.3-1c0.4-0.4,0.6-0.9,0.8-1.4c0.2-0.5,0.3-1.1,0.3-1.6c0-0.8-0.2-1.5-0.5-2.2s-0.8-1.2-1.4-1.6
		c-0.6-0.4-1.3-0.6-2-0.6c-0.6,0-1.1,0.1-1.6,0.4c-0.5,0.2-0.9,0.6-1.3,1c-0.4,0.4-0.7,0.9-0.9,1.3v3.4c0.1,0.4,0.2,0.7,0.4,1.1
		c0.2,0.3,0.5,0.6,0.9,0.8s0.7,0.4,1.1,0.6C101.8,53.7,102.2,53.8,102.5,53.8z"/>
	<path class="st1" d="M110.5,41.6v-2.1h1.4v2.1H110.5z M110.5,54.8V43.9h1.4v10.9H110.5z"/>
</g>
<path class="st2" d="M175,110.2c0-4.8-21.3-4.8-21.3,0l0,37.5H175L175,110.2z"/>
<path class="st3" d="M150.8,147.7c0,0-28,27.2-29.5,77.5c-1.5,50.2,5.1,105.3,5.1,105.3s4.9,33.5,5.9,36.6c1,3.1,2.5,4.1,6.2,1
	c3.7-3.1,5.8-20.5,2.4-26.9c-3.4-6.4-7.8-9.7-10.6-40.2s-5.9-86.1,4.6-105.8c3.3-6.7,13.1-3.1,13.1-3.1"/>
<g>
	<defs>
		<path id="SVGID_1_" d="M193.1,302.1c0-67.5-14.8-154.3-14.8-154.3h-27.6c0,0-9.9,86.8-9.9,154.3c0,74.6,6,132.2,6,185.3
			c0,53-6,169.9-6,219.9c0,50,16.2,101.5,16.2,101.5h9.9h0.2h9.9c0,0,16.2-51.5,16.2-101.5c0-50-6-166.8-6-219.9
			C187.2,434.3,193.1,376.6,193.1,302.1z"/>
	</defs>
	<clipPath id="SVGID_00000154404175648660520980000009892711306056302247_">
		<use xlink:href="#SVGID_1_"  style="overflow:visible;"/>
	</clipPath>
	<path style="clip-path:url(#SVGID_00000154404175648660520980000009892711306056302247_);fill:#FFFFFF;" d="M193.1,302.1
		c0-67.5-14.8-154.3-14.8-154.3h-27.6c0,0-9.9,86.8-9.9,154.3c0,74.6,6,132.2,6,185.3c0,53-6,169.9-6,219.9
		c0,50,16.2,101.5,16.2,101.5h9.9h0.2h9.9c0,0,16.2-51.5,16.2-101.5c0-50-6-166.8-6-219.9C187.2,434.3,193.1,376.6,193.1,302.1z"/>
</g>
<path class="st2" d="M189.5,234.2c0,0-8.5-0.8-16.2-11.3s-14.5-29.8-26.6-32c0,0-4.7,53.9-5.3,80.3c0,0,34.9-5.3,51,2.7L189.5,234.2
	z"/>
<path class="st2" d="M148.5,774.6c0,0,22,6.3,37,0l-8.5,34.1H157L148.5,774.6z"/>
<g>
	<g>
		<path class="st2" d="M170.8,402.8c-0.4,0.8-1,1.4-1.7,1.8c-0.7,0.4-1.6,0.6-2.6,0.6c-1,0-1.9-0.2-2.6-0.6c-0.7-0.4-1.3-1-1.7-1.8
			c-0.4-0.8-0.6-1.7-0.6-2.8c0-1.1,0.2-2,0.6-2.7c0.4-0.7,0.9-1.3,1.6-1.7c0.7-0.4,1.6-0.6,2.6-0.6c0.1,0,0.3,0,0.4,0
			c0.1,0,0.3,0,0.4,0v8.5h-1.7v-5.8l0.9,0.7c-0.1-0.1-0.2-0.1-0.4-0.2c-0.1,0-0.3-0.1-0.4-0.1c-0.4,0-0.8,0.1-1.1,0.2
			c-0.3,0.1-0.5,0.4-0.7,0.6c-0.2,0.3-0.2,0.6-0.2,1c0,0.5,0.1,0.8,0.3,1.2c0.2,0.3,0.5,0.5,0.9,0.7c0.4,0.2,0.9,0.2,1.6,0.3
			c0.6,0,1.1-0.1,1.5-0.2c0.4-0.2,0.7-0.4,0.9-0.7c0.2-0.3,0.3-0.7,0.3-1.2c0-0.5-0.1-1-0.3-1.4c-0.2-0.4-0.5-0.7-0.9-0.9l0.7-2.7
			c0.9,0.5,1.6,1.1,2.1,2c0.5,0.8,0.7,1.8,0.7,3C171.4,401.1,171.2,402,170.8,402.8z"/>
		<path class="st2" d="M171.2,378.8v3.1h-5.7c-0.6,0-1,0.1-1.3,0.3c-0.3,0.2-0.4,0.5-0.4,0.9c0,0.3,0.1,0.5,0.2,0.7
			c0.1,0.2,0.3,0.4,0.6,0.5c0.3,0.1,0.6,0.2,1,0.2h5.7v3.1h-5.7c-0.6,0-1,0.1-1.3,0.3c-0.3,0.2-0.4,0.5-0.4,0.9
			c0,0.3,0.1,0.5,0.2,0.7c0.1,0.2,0.3,0.4,0.6,0.5c0.3,0.1,0.6,0.2,1,0.2h5.7v3h-9.3v-3h1.4c-0.5-0.3-0.9-0.6-1.2-1.1
			c-0.3-0.5-0.4-1-0.4-1.6c0-0.7,0.1-1.3,0.4-1.7s0.6-0.7,1.1-0.9c-0.5-0.3-0.9-0.8-1.1-1.3c-0.3-0.5-0.4-1.1-0.4-1.7
			c0-0.7,0.1-1.3,0.4-1.7c0.3-0.4,0.7-0.7,1.2-0.9c0.5-0.2,1.2-0.3,1.9-0.3H171.2z"/>
		<path class="st2" d="M164,376.3c-0.7-0.5-1.3-1.1-1.7-1.9c-0.4-0.8-0.6-1.7-0.6-2.7c0-1,0.2-1.9,0.6-2.7c0.4-0.8,1-1.4,1.7-1.9
			c0.7-0.5,1.6-0.7,2.6-0.7c1,0,1.8,0.2,2.6,0.7c0.7,0.5,1.3,1.1,1.7,1.9c0.4,0.8,0.6,1.7,0.6,2.7c0,1-0.2,1.9-0.6,2.7
			c-0.4,0.8-1,1.4-1.7,1.9c-0.7,0.5-1.6,0.7-2.6,0.7C165.5,377,164.7,376.8,164,376.3z M167.8,373.6c0.3-0.2,0.6-0.5,0.8-0.8
			c0.2-0.3,0.3-0.7,0.3-1.1c0-0.4-0.1-0.8-0.3-1.1c-0.2-0.3-0.5-0.6-0.8-0.8c-0.3-0.2-0.8-0.3-1.2-0.3c-0.5,0-0.9,0.1-1.3,0.3
			c-0.4,0.2-0.6,0.5-0.8,0.8s-0.3,0.7-0.3,1.1c0,0.4,0.1,0.8,0.3,1.1s0.5,0.6,0.8,0.8c0.4,0.2,0.8,0.3,1.3,0.3
			C167,373.9,167.4,373.8,167.8,373.6z"/>
		<path class="st2" d="M171.2,361.5v3h-9.3v-3H171.2z M164.6,359.3c-0.1,0.2-0.1,0.4-0.1,0.7c0,0.3,0.1,0.6,0.2,0.8
			c0.2,0.2,0.4,0.4,0.7,0.5c0.3,0.1,0.7,0.2,1.1,0.2l-1.1,0.7c-0.7,0-1.4-0.1-2-0.4c-0.6-0.3-1-0.7-1.4-1.1c-0.3-0.5-0.5-1-0.5-1.5
			c0-0.3,0.1-0.7,0.2-1c0.1-0.3,0.3-0.5,0.6-0.7l2.6,1.3C164.9,358.9,164.7,359.1,164.6,359.3z"/>
		<path class="st3" d="M157,346v-11l11.3,6.5v-6h2.9V347l-11.1-6.4v5.5H157z"/>
		<path class="st3" d="M164,334.5c-0.7-0.5-1.3-1.1-1.7-1.9c-0.4-0.8-0.6-1.7-0.6-2.7c0-1,0.2-1.9,0.6-2.7c0.4-0.8,1-1.4,1.7-1.9
			c0.7-0.5,1.6-0.7,2.6-0.7c1,0,1.8,0.2,2.6,0.7c0.7,0.5,1.3,1.1,1.7,1.9c0.4,0.8,0.6,1.7,0.6,2.7c0,1-0.2,1.9-0.6,2.7
			s-1,1.4-1.7,1.9c-0.7,0.5-1.6,0.7-2.6,0.7C165.5,335.2,164.7,334.9,164,334.5z M167.8,331.7c0.3-0.2,0.6-0.5,0.8-0.8
			c0.2-0.3,0.3-0.7,0.3-1.1c0-0.4-0.1-0.8-0.3-1.1c-0.2-0.3-0.5-0.6-0.8-0.8c-0.3-0.2-0.8-0.3-1.2-0.3c-0.5,0-0.9,0.1-1.3,0.3
			c-0.4,0.2-0.6,0.5-0.8,0.8c-0.2,0.3-0.3,0.7-0.3,1.1c0,0.4,0.1,0.8,0.3,1.1c0.2,0.3,0.5,0.6,0.8,0.8c0.4,0.2,0.8,0.3,1.3,0.3
			C167,332,167.4,331.9,167.8,331.7z"/>
		<path class="st3" d="M164.2,316.9c-0.3,0.2-0.4,0.6-0.4,1c0,0.3,0.1,0.6,0.2,0.9c0.1,0.2,0.3,0.4,0.6,0.6c0.3,0.1,0.6,0.2,0.9,0.2
			h5.7v3.1h-9.3v-3.1h1.4c-0.5-0.3-0.9-0.6-1.2-1.1c-0.3-0.5-0.4-1-0.4-1.7c0-1.2,0.3-2,0.9-2.5c0.6-0.5,1.5-0.8,2.6-0.8h6v3.2h-5.7
			C165,316.6,164.5,316.7,164.2,316.9z"/>
		<path class="st3" d="M170.8,309.1c-0.4,0.8-1,1.4-1.7,1.8c-0.7,0.4-1.6,0.6-2.6,0.6c-1,0-1.9-0.2-2.6-0.6c-0.7-0.4-1.3-1-1.7-1.8
			c-0.4-0.8-0.6-1.7-0.6-2.8c0-1.1,0.2-2,0.6-2.7c0.4-0.7,0.9-1.3,1.6-1.7c0.7-0.4,1.6-0.6,2.6-0.6c0.1,0,0.3,0,0.4,0
			c0.1,0,0.3,0,0.4,0v8.5h-1.7v-5.8l0.9,0.7c-0.1-0.1-0.2-0.1-0.4-0.2c-0.1,0-0.3-0.1-0.4-0.1c-0.4,0-0.8,0.1-1.1,0.2
			c-0.3,0.1-0.5,0.4-0.7,0.6c-0.2,0.3-0.2,0.6-0.2,1c0,0.5,0.1,0.8,0.3,1.2c0.2,0.3,0.5,0.5,0.9,0.7c0.4,0.2,0.9,0.2,1.6,0.3
			c0.6,0,1.1-0.1,1.5-0.2c0.4-0.2,0.7-0.4,0.9-0.7c0.2-0.3,0.3-0.7,0.3-1.2c0-0.5-0.1-1-0.3-1.4c-0.2-0.4-0.5-0.7-0.9-0.9l0.7-2.7
			c0.9,0.5,1.6,1.1,2.1,2c0.5,0.8,0.7,1.8,0.7,3C171.4,307.3,171.2,308.3,170.8,309.1z"/>
		<path class="st2" d="M164.9,416.2l-7.1-8.4h5.9c0.6,0,1.2,0.3,1.6,0.7l7.1,8.4h-5.9C165.8,417,165.3,416.7,164.9,416.2z"/>
		<path class="st2" d="M164.9,425.4l-7.1-8.4h5.9c0.6,0,1.2,0.3,1.6,0.7l7.1,8.4h-5.9C165.8,426.1,165.3,425.8,164.9,425.4z"/>
		<circle class="st2" cx="169.5" cy="408.1" r="2"/>
		<g>
			<path class="st3" d="M176.9,331.1h-2.8V330c0-0.2,0-0.3,0.1-0.5c0.1-0.1,0.2-0.2,0.3-0.3s0.2-0.1,0.4-0.1c0.2,0,0.3,0,0.4,0.1
				c0.1,0.1,0.2,0.2,0.2,0.3h-0.1c0-0.2,0.1-0.3,0.2-0.4c0.1-0.1,0.3-0.1,0.4-0.1c0.2,0,0.3,0,0.4,0.1c0.1,0.1,0.2,0.2,0.3,0.3
				c0.1,0.1,0.1,0.3,0.1,0.5V331.1z M175.2,330.6V330c0-0.1,0-0.1,0-0.2c0-0.1-0.1-0.1-0.1-0.1c0,0-0.1,0-0.2,0
				c-0.1,0-0.2,0-0.2,0.1c-0.1,0.1-0.1,0.1-0.1,0.3v0.6H175.2z M176.5,330.6v-0.7c0-0.1,0-0.2,0-0.2c0-0.1-0.1-0.1-0.1-0.1
				c-0.1,0-0.1-0.1-0.2-0.1c-0.1,0-0.1,0-0.2,0c-0.1,0-0.1,0.1-0.1,0.1c0,0.1-0.1,0.1-0.1,0.2v0.7H176.5z"/>
			<path class="st3" d="M176.9,327.4h-1.1l-1.6,0.9v-0.5l1.1-0.6l-1.1-0.6V326l1.6,0.9h1.1V327.4z"/>
			<path class="st3" d="M177,322.5c0,0.2,0,0.4-0.1,0.5c-0.1,0.2-0.2,0.3-0.3,0.4c-0.1,0.1-0.3,0.2-0.5,0.2l-0.1-0.5
				c0.2,0,0.3-0.1,0.4-0.3c0.1-0.1,0.1-0.3,0.1-0.4c0-0.1,0-0.2,0-0.3c0-0.1-0.1-0.2-0.1-0.2c-0.1-0.1-0.1-0.1-0.2-0.1
				c0,0-0.1,0-0.1,0c0,0-0.1,0-0.1,0.1c0,0,0,0.1-0.1,0.1c0,0,0,0.1-0.1,0.1l-0.2,0.7c0,0.1,0,0.1-0.1,0.2c0,0.1-0.1,0.1-0.1,0.2
				c-0.1,0.1-0.1,0.1-0.2,0.2c-0.1,0-0.2,0.1-0.3,0.1c-0.2,0-0.3,0-0.4-0.1c-0.1-0.1-0.2-0.2-0.3-0.4c-0.1-0.2-0.1-0.3-0.1-0.5
				c0-0.2,0-0.4,0.1-0.5s0.2-0.3,0.3-0.4c0.1-0.1,0.3-0.2,0.4-0.2l0.1,0.5c-0.1,0-0.2,0.1-0.2,0.1c-0.1,0.1-0.1,0.1-0.2,0.2
				c0,0.1-0.1,0.2-0.1,0.3c0,0.1,0,0.2,0,0.3c0,0.1,0.1,0.1,0.1,0.2c0.1,0,0.1,0.1,0.2,0.1c0.1,0,0.1,0,0.2-0.1c0,0,0.1-0.1,0.1-0.2
				c0-0.1,0-0.1,0.1-0.2l0.1-0.5c0-0.1,0-0.1,0.1-0.2c0-0.1,0.1-0.2,0.1-0.2c0.1-0.1,0.1-0.1,0.2-0.2c0.1-0.1,0.2-0.1,0.3-0.1
				c0.1,0,0.3,0,0.4,0.1c0.1,0.1,0.2,0.1,0.3,0.2c0.1,0.1,0.1,0.2,0.2,0.3C176.9,322.3,177,322.4,177,322.5z"/>
			<path class="st3" d="M176.9,320.2h-2.8v-0.5h2.8V320.2z"/>
			<path class="st3" d="M176.9,318.4h-2.8v-1.8h0.4v1.3h0.7v-1.1h0.4v1.1h0.8v-1.3h0.4V318.4z M173.9,318.3l-0.6-0.5v-0.4l0.6-0.5
				v0.4l-0.3,0.3l0.3,0.3V318.3z"/>
			<path class="st3" d="M177,314.3c0,0.2,0,0.4-0.1,0.6c-0.1,0.2-0.2,0.3-0.4,0.4c-0.2,0.1-0.4,0.1-0.6,0.1h-1.7l0-0.5h1.7
				c0.1,0,0.2,0,0.3-0.1c0.1,0,0.2-0.1,0.2-0.1c0.1-0.1,0.1-0.1,0.1-0.2c0-0.1,0-0.2,0-0.2c0-0.1,0-0.2,0-0.2c0-0.1-0.1-0.1-0.1-0.2
				c-0.1-0.1-0.1-0.1-0.2-0.1c-0.1,0-0.2-0.1-0.3-0.1h-1.7v-0.5h1.7c0.2,0,0.4,0,0.6,0.1c0.2,0.1,0.3,0.2,0.4,0.4
				C176.9,313.9,177,314.1,177,314.3z"/>
			<path class="st3" d="M176.9,309.7h-2.3v0.9h-0.4v-2.2h0.4v0.9h2.3V309.7z"/>
			<path class="st3" d="M177,306.1c0,0.3-0.1,0.5-0.2,0.7c-0.1,0.2-0.3,0.3-0.5,0.5c-0.2,0.1-0.5,0.2-0.8,0.2
				c-0.3,0-0.5-0.1-0.7-0.2c-0.2-0.1-0.4-0.3-0.5-0.5c-0.1-0.2-0.2-0.4-0.2-0.7s0.1-0.5,0.2-0.7c0.1-0.2,0.3-0.3,0.5-0.5
				c0.2-0.1,0.5-0.2,0.7-0.2c0.3,0,0.5,0.1,0.8,0.2c0.2,0.1,0.4,0.3,0.5,0.5C176.9,305.6,177,305.8,177,306.1z M176.5,306.1
				c0-0.2,0-0.3-0.1-0.5c-0.1-0.1-0.2-0.2-0.4-0.3c-0.2-0.1-0.3-0.1-0.5-0.1c-0.2,0-0.4,0-0.5,0.1c-0.1,0.1-0.3,0.2-0.3,0.3
				c-0.1,0.1-0.1,0.3-0.1,0.5c0,0.2,0,0.3,0.1,0.5c0.1,0.1,0.2,0.2,0.4,0.3c0.2,0.1,0.3,0.1,0.5,0.1c0.2,0,0.4,0,0.5-0.1
				c0.1-0.1,0.3-0.2,0.3-0.3C176.5,306.5,176.5,306.3,176.5,306.1z M173.9,306.8l-0.6-0.5v-0.4l0.6-0.5v0.4l-0.3,0.3l0.3,0.3V306.8z
				 M173.5,305.1v0.4l-0.7-0.3v-0.4L173.5,305.1z"/>
			<path class="st3" d="M177,302.5c0,0.3-0.1,0.5-0.2,0.7c-0.1,0.2-0.3,0.3-0.5,0.5c-0.2,0.1-0.5,0.2-0.8,0.2
				c-0.3,0-0.5-0.1-0.7-0.2c-0.2-0.1-0.4-0.3-0.5-0.5c-0.1-0.2-0.2-0.4-0.2-0.7c0-0.3,0.1-0.6,0.2-0.8c0.2-0.2,0.4-0.4,0.6-0.4
				l0.1,0.5c-0.2,0.1-0.3,0.1-0.4,0.3c-0.1,0.1-0.2,0.3-0.2,0.5c0,0.2,0,0.3,0.1,0.5c0.1,0.1,0.2,0.2,0.3,0.3
				c0.2,0.1,0.3,0.1,0.5,0.1c0.2,0,0.4,0,0.5-0.1c0.1-0.1,0.3-0.2,0.3-0.3c0.1-0.1,0.1-0.3,0.1-0.5c0-0.2-0.1-0.4-0.2-0.5
				c-0.1-0.1-0.2-0.2-0.4-0.3l0.1-0.5c0.3,0.1,0.5,0.2,0.6,0.4C176.9,301.9,177,302.2,177,302.5z"/>
		</g>
		<polygon class="st2" points="175.7,356.8 175.7,353.7 161.9,345.7 161.9,348.8 		"/>
		<g>
			<polygon class="st2" points="166.9,351.5 161.9,353.6 161.9,356.9 169.8,353.2 			"/>
		</g>
	</g>
</g>
</svg>
