<?xml version="1.0" encoding="UTF-8"?>
<svg id="Layer_2" data-name="Layer 2" xmlns="http://www.w3.org/2000/svg" viewBox="0 0 265.94 105.05">
  <g id="Layer_1-2" data-name="Layer 1">
    <g>
      <path d="m89.04,104.89v-8.11h3.21c.55,0,1,.11,1.35.33.35.22.61.5.78.84.17.34.26.69.26,1.06,0,.45-.11.83-.32,1.14-.21.31-.5.52-.86.63v-.28c.51.12.9.36,1.16.73.26.37.4.79.4,1.26s-.09.9-.28,1.26c-.18.36-.46.64-.82.84-.36.2-.81.31-1.34.31h-3.54Zm1.37-4.87h1.82c.19,0,.37-.04.52-.11.15-.07.28-.18.37-.33.09-.15.14-.33.14-.54,0-.28-.09-.52-.27-.7-.18-.19-.43-.28-.75-.28h-1.82v1.97Zm0,3.59h2c.24,0,.45-.05.64-.14.19-.1.33-.23.44-.41.11-.17.16-.38.16-.62,0-.22-.05-.41-.14-.59-.09-.17-.23-.31-.41-.41-.18-.1-.4-.15-.65-.15h-2.04v2.32Z" fill="#fff"/>
      <polygon points="100.04 104.89 100.04 101.56 97.28 96.78 98.86 96.78 100.72 100.01 102.58 96.78 104.16 96.78 101.41 101.56 101.41 104.89 100.04 104.89" fill="#fff"/>
      <path d="m114.26,105.05c-.59,0-1.13-.1-1.6-.31-.47-.21-.86-.5-1.17-.89-.31-.38-.5-.84-.58-1.37l1.41-.21c.12.48.37.85.74,1.11.37.26.8.39,1.29.39.29,0,.56-.04.82-.13.26-.09.46-.22.62-.39.16-.17.24-.38.24-.64,0-.11-.02-.22-.06-.31-.04-.1-.09-.18-.17-.26-.07-.08-.17-.14-.28-.2-.11-.06-.25-.12-.4-.16l-2.1-.62c-.18-.05-.37-.12-.58-.21-.21-.09-.4-.21-.59-.37-.19-.16-.34-.36-.46-.6-.12-.24-.18-.54-.18-.9,0-.52.13-.96.4-1.32.26-.36.62-.62,1.07-.8.45-.18.95-.26,1.5-.26.56,0,1.05.1,1.49.28.44.19.8.46,1.09.81.29.35.5.78.62,1.28l-1.46.25c-.06-.29-.18-.53-.35-.73-.17-.2-.38-.35-.62-.46-.25-.11-.51-.16-.79-.17-.27,0-.52.04-.75.12-.23.08-.42.2-.56.36s-.21.34-.21.55.06.36.18.49c.12.12.27.22.45.3.18.07.36.14.54.18l1.45.41c.2.05.42.12.67.21.25.09.49.22.72.38.23.16.42.37.57.64.15.26.22.6.22,1s-.09.79-.26,1.11c-.18.32-.41.58-.71.79-.3.21-.64.37-1.02.47-.38.1-.78.16-1.2.16" fill="#fff"/>
      <rect x="121.03" y="96.78" width="1.36" height="8.11" fill="#fff"/>
      <path d="m126.33,104.89v-8.11h5.24v1.27h-3.88v2h3.21v1.27h-3.21v2.29h3.88v1.27h-5.24Zm.43-8.98l1.54-1.77h1.14l1.54,1.77h-1.27l-.84-1-.85,1h-1.27Z" fill="#fff"/>
      <path d="m138.44,105.05c-.65,0-1.21-.13-1.7-.39-.49-.26-.87-.63-1.15-1.11-.28-.48-.41-1.04-.41-1.68v-5.09h1.37s0,5.05,0,5.05c0,.3.05.58.16.82.1.24.24.44.42.61.18.17.38.29.61.38.23.09.47.13.71.13s.49-.04.72-.13c.23-.09.43-.22.61-.38.18-.17.32-.37.42-.61.1-.24.15-.51.15-.81v-5.06h1.37v5.1c0,.64-.14,1.2-.42,1.68-.28.48-.66.85-1.15,1.11-.49.26-1.06.39-1.7.39" fill="#fff"/>
      <polygon points="151.99 104.89 151.99 98.05 149.36 98.05 149.36 96.78 155.97 96.78 155.97 98.05 153.34 98.05 153.34 104.89 151.99 104.89" fill="#fff"/>
      <path d="m162.55,105.05c-.81,0-1.51-.18-2.08-.53-.58-.36-1.02-.85-1.33-1.48-.31-.63-.47-1.37-.47-2.21s.15-1.57.47-2.21c.31-.64.75-1.13,1.33-1.49.58-.35,1.27-.53,2.08-.53s1.51.18,2.09.53c.58.36,1.02.85,1.34,1.49.31.63.46,1.37.46,2.21s-.15,1.57-.46,2.21c-.31.63-.75,1.13-1.34,1.48-.58.35-1.27.53-2.09.53m0-1.28c.54,0,1-.12,1.36-.36.36-.24.63-.59.82-1.03.18-.44.27-.96.27-1.55s-.09-1.11-.27-1.55c-.18-.44-.45-.78-.82-1.02s-.82-.37-1.36-.38c-.54,0-1,.12-1.36.36-.36.24-.63.59-.81,1.03-.18.44-.27.96-.27,1.55s.09,1.11.27,1.55c.18.44.45.78.81,1.02.36.24.82.37,1.36.38m-2.02-7.87l1.54-1.78h1.14l1.54,1.78h-1.27l-.84-1-.84,1h-1.27Zm4.99-1.18h-1.03l.87-2.08h1.03l-.87,2.08Z" fill="#fff"/>
      <path d="m173.24,105.05c-.81,0-1.51-.18-2.08-.53-.58-.36-1.02-.85-1.33-1.48-.31-.63-.46-1.37-.46-2.21s.15-1.57.46-2.21c.31-.63.75-1.13,1.33-1.48.58-.35,1.27-.53,2.08-.53.93,0,1.71.23,2.34.7.62.47,1.06,1.1,1.31,1.89l-1.37.38c-.16-.53-.43-.94-.81-1.24-.38-.3-.87-.45-1.47-.45-.54,0-1,.12-1.36.37-.36.24-.64.59-.82,1.03-.18.44-.28.96-.28,1.55,0,.59.09,1.11.27,1.55.18.44.46.78.82,1.03.36.25.82.37,1.36.37.6,0,1.1-.15,1.47-.45.38-.3.65-.71.81-1.24l1.37.38c-.25.79-.69,1.42-1.31,1.89-.62.47-1.4.7-2.34.7" fill="#fff"/>
      <path d="m135.49,37.6c-.58,1.02-1.35,1.78-2.31,2.29-.97.51-2.13.76-3.49.76-1.19,0-2.19-.26-3-.79-.81-.53-1.42-1.3-1.83-2.31-.23-.58-.39-1.22-.49-1.93h17.84c.07-.24.1-.53.1-.89v-1.09c0-2.51-.49-4.65-1.48-6.41-.98-1.76-2.41-3.11-4.27-4.05-1.87-.93-4.15-1.4-6.87-1.4s-5.06.49-7.04,1.47c-1.98.98-3.5,2.39-4.55,4.22-1.05,1.83-1.58,4-1.58,6.51s.54,4.63,1.63,6.46c1.08,1.83,2.62,3.25,4.6,4.25,1.98,1,4.33,1.5,7.05,1.5,2.98,0,5.52-.58,7.6-1.73,2.09-1.15,3.74-2.88,4.96-5.19l-6.87-1.68Zm-8.85-9.92c.78-.51,1.75-.76,2.9-.76.92,0,1.71.2,2.39.61.68.41,1.2.98,1.58,1.73.3.61.48,1.3.54,2.08h-9.54c.1-.49.22-.94.38-1.35.39-1.03.97-1.81,1.76-2.31" fill="#fff"/>
      <path d="m182.75,45.69h-7.73v-14.24c0-1.43-.23-2.5-.69-3.23-.46-.73-1.21-1.09-2.26-1.09-.68,0-1.28.16-1.81.48-.53.32-.93.81-1.22,1.45-.29.65-.43,1.44-.43,2.39v14.24h-7.73v-14.24c0-1.43-.23-2.5-.69-3.23-.46-.73-1.21-1.09-2.26-1.09-.68,0-1.28.16-1.81.48-.53.32-.93.81-1.22,1.45-.29.65-.43,1.44-.43,2.39v14.24h-7.43v-23.4h7.43v3.46c.64-1.25,1.53-2.24,2.67-2.95,1.14-.71,2.5-1.07,4.1-1.07,1.83,0,3.29.33,4.37.99,1.09.66,1.86,1.62,2.34,2.87.85-1.22,1.9-2.17,3.15-2.85,1.25-.68,2.68-1.02,4.27-1.02,1.83,0,3.28.35,4.35,1.04,1.07.69,1.84,1.7,2.32,3.03.47,1.32.71,2.93.71,4.83v15.06Z" fill="#fff"/>
      <path d="m189.11,27.53c1.15-1.83,2.75-3.26,4.78-4.27,2.03-1.02,4.32-1.53,6.87-1.53s4.82.51,6.84,1.53c2.02,1.02,3.61,2.44,4.78,4.27,1.17,1.83,1.75,3.99,1.75,6.46s-.58,4.58-1.75,6.41c-1.17,1.83-2.76,3.25-4.78,4.27-2.02,1.02-4.3,1.53-6.84,1.53s-4.83-.51-6.87-1.53c-2.04-1.02-3.63-2.44-4.78-4.27-1.15-1.83-1.73-3.97-1.73-6.41s.58-4.63,1.73-6.46m6.92,9.59c.51.87,1.17,1.54,1.98,2.01.81.48,1.73.71,2.75.71s1.89-.24,2.72-.71c.83-.47,1.49-1.14,1.99-2.01.49-.86.74-1.91.74-3.13s-.25-2.27-.74-3.15c-.49-.88-1.15-1.56-1.99-2.03-.83-.48-1.74-.71-2.72-.71s-1.93.24-2.75.71c-.81.47-1.48,1.15-1.98,2.03-.51.88-.76,1.93-.76,3.15s.25,2.26.76,3.13" fill="#fff"/>
      <path d="m234.58,22.24c-.78-.34-1.59-.51-2.44-.51-1.29,0-2.53.42-3.71,1.27-.82.59-1.53,1.33-2.14,2.21v-2.92h-7.58v23.4h7.58v-11.55c0-1.12.15-2.07.46-2.85.31-.78.74-1.37,1.32-1.78.58-.41,1.24-.61,1.98-.61.68,0,1.25.12,1.7.36.46.24.89.56,1.3.97l3.31-6.56c-.41-.61-1-1.08-1.78-1.42" fill="#fff"/>
      <polygon points="258.1 22.29 251.04 34.47 246.13 22.29 237.68 22.29 246.83 41.74 238.07 56.88 245.9 56.88 265.94 22.29 258.1 22.29" fill="#fff"/>
      <path d="m156.2,62.26c1.15-1.83,2.74-3.25,4.77-4.26,2.03-1.02,4.32-1.52,6.85-1.52s4.81.51,6.83,1.52c2.01,1.01,3.6,2.44,4.77,4.26,1.17,1.83,1.75,3.98,1.75,6.45s-.58,4.57-1.75,6.4c-1.17,1.83-2.76,3.25-4.77,4.26-2.01,1.02-4.29,1.52-6.83,1.52s-4.82-.51-6.85-1.52c-2.03-1.02-3.62-2.44-4.77-4.26-1.15-1.83-1.73-3.96-1.73-6.4s.58-4.62,1.73-6.45m6.9,9.57c.51.86,1.17,1.53,1.98,2.01.81.48,1.73.71,2.74.71s1.89-.23,2.72-.71c.83-.47,1.49-1.14,1.98-2.01.49-.86.74-1.9.74-3.12s-.24-2.27-.74-3.15c-.49-.88-1.15-1.56-1.98-2.03-.83-.47-1.74-.71-2.72-.71s-1.93.24-2.74.71c-.81.47-1.47,1.15-1.98,2.03-.51.88-.76,1.93-.76,3.15s.25,2.26.76,3.12" fill="#fff"/>
      <path d="m198.09,62.97c-.53-.74-1.4-1.12-2.62-1.12-.81,0-1.52.17-2.13.51-.61.34-1.08.83-1.42,1.47-.34.64-.51,1.42-.51,2.34v14.22h-7.72v-23.37h7.72v3.5c.68-1.29,1.6-2.29,2.77-3,1.17-.71,2.62-1.07,4.34-1.07,2.91,0,5.03.78,6.35,2.34,1.32,1.56,1.98,3.74,1.98,6.55v15.03h-7.97v-14.22c0-1.39-.26-2.45-.79-3.2" fill="#fff"/>
      <path d="m228.34,72.29c-.58,1.02-1.35,1.78-2.31,2.29-.97.51-2.13.76-3.48.76-1.19,0-2.19-.26-3-.79-.81-.53-1.43-1.3-1.83-2.31-.23-.58-.39-1.22-.49-1.93h17.84c.07-.24.1-.53.1-.89v-1.09c0-2.51-.49-4.65-1.48-6.41-.98-1.76-2.41-3.11-4.27-4.05-1.87-.93-4.15-1.4-6.87-1.4s-5.06.49-7.04,1.47c-1.98.98-3.5,2.39-4.55,4.22-1.05,1.83-1.58,4-1.58,6.51s.54,4.63,1.63,6.46c1.09,1.83,2.62,3.25,4.6,4.25,1.99,1,4.33,1.5,7.05,1.5,2.98,0,5.52-.58,7.6-1.73,2.08-1.15,3.74-2.88,4.96-5.19l-6.87-1.68Zm-8.85-9.92c.78-.51,1.75-.76,2.9-.76.92,0,1.71.2,2.39.61.68.41,1.2.98,1.58,1.73.3.6.48,1.3.54,2.08h-9.54c.1-.49.22-.94.38-1.35.39-1.03.97-1.81,1.76-2.31" fill="#fff"/>
      <polygon points="126.76 56.99 153.3 56.99 139.95 73.28 151.96 73.28 151.96 80.4 124.4 80.4 137.51 64.41 126.76 64.41 126.76 56.99" fill="#fff"/>
      <path d="m57.78,41.42L106.97,0v34.65c0,3.51-1.55,6.84-4.23,9.1l-49.19,41.42v-34.65c0-3.51,1.55-6.84,4.24-9.1" fill="#fff"/>
      <path d="m4.24,41.42L53.42,0v34.65c0,3.51-1.55,6.84-4.23,9.1L0,85.17v-34.65c0-3.51,1.55-6.84,4.24-9.1" fill="#fff"/>
      <path d="m117.28,68.4c0,6.57-5.33,11.89-11.89,11.89s-11.89-5.32-11.89-11.89,5.32-11.89,11.89-11.89,11.89,5.33,11.89,11.89" fill="#fff"/>
    </g>
  </g>
</svg>