<?xml version="1.0" encoding="utf-8"?>
<!-- Generator: Adobe Illustrator 27.6.1, SVG Export Plug-In . SVG Version: 6.00 Build 0)  -->
<svg version="1.1" id="Layer_1" xmlns="http://www.w3.org/2000/svg" xmlns:xlink="http://www.w3.org/1999/xlink" x="0px" y="0px"
	 viewBox="0 0 417.7 745.7" style="enable-background:new 0 0 417.7 745.7;" xml:space="preserve">
<style type="text/css">
	.st0{fill:#595959;}
	.st1{fill:#FFFFFF;}
	.st2{fill:#008144;}
	.st3{fill:#231F20;}
	.st4{opacity:0.24;fill:url(#SVGID_1_);}
	.st5{fill:#181818;}
	.st6{fill:#2E2E2E;}
	.st7{opacity:0.24;fill:url(#SVGID_00000114067647438944036770000001087773061668376221_);}
	.st8{fill:#8AC43E;}
	.st9{clip-path:url(#SVGID_00000034055864752633841700000001338897708009525632_);}
	.st10{clip-path:url(#SVGID_00000005954728594947933080000001260618157588547518_);}
	.st11{clip-path:url(#SVGID_00000183227324539207183020000002911960940527591354_);}
</style>
<rect class="st0" width="417.7" height="745.7"/>
<g>
	<path class="st1" d="M35.1,57.9V43h5.1c1.6,0,2.9,0.3,4,1c1.1,0.7,1.9,1.6,2.4,2.7s0.8,2.4,0.8,3.7c0,1.5-0.3,2.8-0.9,3.9
		c-0.6,1.1-1.4,2-2.5,2.6c-1.1,0.6-2.3,0.9-3.8,0.9H35.1z M45.8,50.4c0-1.2-0.2-2.2-0.7-3.2c-0.4-0.9-1.1-1.6-1.9-2.2
		c-0.8-0.5-1.9-0.8-3.1-0.8h-3.6v12.3h3.6c1.2,0,2.3-0.3,3.1-0.8s1.5-1.3,1.9-2.2C45.6,52.6,45.8,51.6,45.8,50.4z"/>
	<path class="st1" d="M48.9,54.8c0-0.7,0.2-1.3,0.6-1.8c0.4-0.5,0.9-0.9,1.6-1.1c0.7-0.3,1.5-0.4,2.4-0.4c0.5,0,1.1,0,1.7,0.1
		c0.6,0.1,1.1,0.2,1.5,0.4V51c0-0.9-0.3-1.6-0.8-2.2c-0.5-0.5-1.3-0.8-2.3-0.8c-0.6,0-1.2,0.1-1.7,0.3c-0.6,0.2-1.2,0.5-1.8,1
		l-0.5-1c0.7-0.5,1.4-0.9,2.1-1.1c0.7-0.2,1.4-0.4,2.1-0.4c1.3,0,2.4,0.4,3.2,1.1c0.8,0.8,1.2,1.8,1.2,3.2v5c0,0.2,0,0.3,0.1,0.4
		c0.1,0.1,0.2,0.1,0.4,0.2v1.1c-0.2,0-0.3,0-0.4,0c-0.1,0-0.2,0-0.3,0c-0.4,0-0.6-0.1-0.8-0.3c-0.2-0.2-0.3-0.4-0.3-0.7l0-0.8
		c-0.5,0.6-1.1,1.1-1.9,1.5s-1.6,0.5-2.4,0.5c-0.7,0-1.3-0.1-1.9-0.4c-0.6-0.3-1-0.7-1.3-1.2C49,55.9,48.9,55.4,48.9,54.8z
		 M56.2,55.6c0.2-0.2,0.3-0.4,0.4-0.6c0.1-0.2,0.1-0.3,0.1-0.5V53c-0.5-0.2-1-0.3-1.5-0.4c-0.5-0.1-1-0.1-1.5-0.1
		c-1,0-1.8,0.2-2.5,0.6s-0.9,1-0.9,1.6c0,0.4,0.1,0.8,0.3,1.1s0.5,0.6,0.9,0.9c0.4,0.2,0.9,0.3,1.4,0.3c0.7,0,1.3-0.1,1.9-0.4
		S55.9,56,56.2,55.6z M51.1,44.3l2.1-1.8h1l2.1,1.8l-0.8,0.4l-1.8-1.3l-1.8,1.3L51.1,44.3z"/>
	<path class="st1" d="M61.5,61.3c0.2,0,0.4,0,0.6,0s0.3,0,0.4,0c0.2,0,0.3-0.1,0.5-0.3c0.2-0.2,0.3-0.5,0.5-1s0.5-1.2,0.9-2.1
		L59.6,47h1.5l4,9.4l3.7-9.4h1.4l-5.7,14.1c-0.1,0.3-0.2,0.5-0.4,0.7c-0.2,0.2-0.4,0.4-0.7,0.5s-0.6,0.2-1.1,0.2c-0.1,0-0.3,0-0.4,0
		c-0.1,0-0.3,0-0.5-0.1V61.3z"/>
	<path class="st1" d="M76.3,52.5c0-1,0.2-2,0.6-2.8c0.4-0.9,1-1.5,1.8-2.1c0.8-0.5,1.6-0.8,2.6-0.8c0.9,0,1.7,0.2,2.4,0.7
		s1.3,1.1,1.7,1.7v-6.7h1.4v13.6c0,0.2,0,0.3,0.1,0.4c0.1,0.1,0.2,0.1,0.4,0.2v1.1c-0.3,0-0.5,0.1-0.7,0c-0.3,0-0.6-0.1-0.8-0.4
		c-0.2-0.2-0.3-0.5-0.3-0.7v-1.1c-0.4,0.7-1,1.3-1.8,1.7c-0.7,0.4-1.5,0.6-2.3,0.6c-0.8,0-1.5-0.2-2.1-0.5c-0.6-0.3-1.2-0.7-1.7-1.3
		c-0.5-0.5-0.8-1.1-1.1-1.8C76.4,53.9,76.3,53.2,76.3,52.5z M85.4,54.2v-3.4c-0.2-0.5-0.5-1-0.9-1.4c-0.4-0.4-0.9-0.7-1.4-1
		c-0.5-0.2-1-0.4-1.5-0.4c-0.6,0-1.1,0.1-1.6,0.4c-0.5,0.2-0.9,0.6-1.2,1s-0.6,0.9-0.8,1.4c-0.2,0.5-0.3,1.1-0.3,1.6
		c0,0.6,0.1,1.1,0.3,1.7s0.5,1,0.9,1.4s0.8,0.7,1.3,0.9c0.5,0.2,1,0.3,1.6,0.3c0.4,0,0.7-0.1,1.1-0.2c0.4-0.1,0.8-0.3,1.1-0.6
		c0.4-0.2,0.7-0.5,0.9-0.9C85.2,54.9,85.4,54.5,85.4,54.2z M83,45v-1h5.3v1H83z"/>
	<path class="st1" d="M94.8,58.1c-0.8,0-1.5-0.2-2.2-0.5s-1.3-0.7-1.7-1.2c-0.5-0.5-0.9-1.1-1.1-1.8c-0.3-0.7-0.4-1.4-0.4-2.2
		c0-1,0.2-1.9,0.7-2.8c0.5-0.8,1.1-1.5,1.9-2c0.8-0.5,1.8-0.8,2.8-0.8c1.1,0,2,0.3,2.8,0.8s1.4,1.2,1.9,2c0.5,0.8,0.7,1.8,0.7,2.8
		c0,0.1,0,0.2,0,0.3s0,0.2,0,0.2h-9.4c0.1,0.8,0.3,1.5,0.7,2.1c0.4,0.6,0.9,1.1,1.4,1.4c0.6,0.4,1.2,0.5,1.9,0.5
		c0.7,0,1.4-0.2,2-0.5s1.1-0.8,1.3-1.4l1.2,0.3c-0.2,0.5-0.6,1-1,1.4s-1,0.7-1.6,1C96.2,58,95.5,58.1,94.8,58.1z M90.8,51.9h8.1
		c-0.1-0.8-0.3-1.5-0.6-2.1s-0.9-1.1-1.4-1.4c-0.6-0.3-1.2-0.5-2-0.5c-0.7,0-1.4,0.2-2,0.5c-0.6,0.3-1.1,0.8-1.4,1.4
		C91.1,50.5,90.8,51.2,90.8,51.9z"/>
	<path class="st1" d="M107.1,58.1c-0.8,0-1.5-0.2-2.2-0.4s-1.2-0.7-1.7-1.2c-0.5-0.5-0.9-1.1-1.1-1.8c-0.3-0.7-0.4-1.4-0.4-2.1
		c0-0.8,0.1-1.5,0.4-2.2c0.3-0.7,0.6-1.3,1.1-1.8s1.1-0.9,1.7-1.2c0.7-0.3,1.4-0.4,2.2-0.4s1.5,0.2,2.2,0.4c0.7,0.3,1.2,0.7,1.7,1.2
		s0.9,1.1,1.1,1.8c0.3,0.7,0.4,1.4,0.4,2.2c0,0.8-0.1,1.5-0.4,2.1c-0.3,0.7-0.6,1.3-1.1,1.8c-0.5,0.5-1.1,0.9-1.7,1.2
		C108.6,58,107.9,58.1,107.1,58.1z M103.1,52.5c0,0.8,0.2,1.5,0.5,2.2c0.4,0.7,0.8,1.2,1.4,1.6c0.6,0.4,1.3,0.6,2,0.6
		c0.7,0,1.4-0.2,2-0.6c0.6-0.4,1.1-0.9,1.4-1.6s0.5-1.4,0.5-2.2c0-0.8-0.2-1.5-0.5-2.2c-0.4-0.7-0.8-1.2-1.4-1.6
		c-0.6-0.4-1.3-0.6-2-0.6c-0.7,0-1.4,0.2-2,0.6c-0.6,0.4-1.1,0.9-1.4,1.6C103.3,50.9,103.1,51.7,103.1,52.5z"/>
</g>
<path class="st2" d="M289.2,64.9c-0.1-0.5-0.6-0.9-1.2-0.8l-12,1.6c-2.1,5.2-4.9,10.2-5.3,15.6c-0.1,0.8-0.1,2.3-0.2,3.1L302,321
	l21.1,1.2L289.2,64.9z"/>
<path class="st3" d="M289.2,64.9c-0.1-0.5-0.6-0.9-1.2-0.8l-12,1.6c-2.1,5.2-4.9,10.2-5.3,15.6c-0.1,0.8-0.1,2.3-0.2,3.1L302,321
	l21.1,1.2L289.2,64.9z"/>
<linearGradient id="SVGID_1_" gradientUnits="userSpaceOnUse" x1="280.2983" y1="64.0866" x2="280.2983" y2="180.1415">
	<stop  offset="0" style="stop-color:#000000"/>
	<stop  offset="9.015631e-02" style="stop-color:#0B0B0B;stop-opacity:0.9459"/>
	<stop  offset="0.248" style="stop-color:#282828;stop-opacity:0.8512"/>
	<stop  offset="0.4547" style="stop-color:#575757;stop-opacity:0.7272"/>
	<stop  offset="0.7026" style="stop-color:#989898;stop-opacity:0.5785"/>
	<stop  offset="0.9825" style="stop-color:#EBEBEB;stop-opacity:0.4105"/>
	<stop  offset="1" style="stop-color:#F0F0F0;stop-opacity:0.4"/>
</linearGradient>
<path class="st4" d="M290.1,71.6l-0.9-6.7c-0.1-0.5-0.6-0.9-1.2-0.8l-12,1.6c-2.1,5.2-4.9,10.2-5.3,15.6c-0.1,0.8-0.1,2.3-0.2,3.1
	l0,0l4.6-4.8C279.1,75.5,284.4,72.7,290.1,71.6L290.1,71.6z"/>
<image style="overflow:visible;" width="12" height="49" xlink:href="78383582.png"  transform="matrix(1 0 0 1 305.8936 633.4597)">
</image>
<g>
	
		<image style="overflow:visible;" width="16" height="23" xlink:href="78383586.png"  transform="matrix(1 0 0 1 294.8936 619.4597)">
	</image>
</g>
<g>
	
		<image style="overflow:visible;" width="17" height="23" xlink:href="78383581.png"  transform="matrix(1 0 0 1 313.8936 619.4597)">
	</image>
</g>
<image style="overflow:visible;" width="12" height="22" xlink:href="78383583.png"  transform="matrix(1 0 0 1 305.8936 663.4597)">
</image>
<image style="overflow:visible;" width="10" height="31" xlink:href="78383580.png"  transform="matrix(1 0 0 1 306.8936 633.4597)">
</image>
<image style="overflow:visible;" width="10" height="31" xlink:href="7838358E.png"  transform="matrix(1 0 0 1 306.8936 633.4597)">
</image>
<path d="M305.6,414.4h-4.2L300,417c-3.3,5.8-2.8,12.9,1,18.2c1.1,1.5,3.1,1.9,4.7,0.9l0,0V414.4z"/>
<path d="M325.6,417l-1.5-2.6H320l-0.4,0.4v21.1l2.9,1.9C328.1,432.4,329.4,423.8,325.6,417z"/>
<path class="st3" d="M320.2,629.8h-15.7c-1.5,0-2.7-1.2-2.7-2.7v-16.4h21.1v16.4C322.9,628.6,321.7,629.8,320.2,629.8z"/>
<rect x="301.8" y="613.8" class="st5" width="21.1" height="0.9"/>
<path class="st6" d="M323.7,420.5c2.2-2.2,3.5-5.3,3.5-8.4v-10.7c0-0.7-0.2-1.3-0.4-1.9c-0.7-1.5-2.2-2.4-3.9-2.4h-1l0.2,4.6
	l1.7,1.3c0.7,0.6,1.2,1.5,1.2,2.4v0.6c0,0.8-0.3,1.6-0.9,2.1h0c-0.6,0.6-1.3,0.9-2.1,0.9h-18.7c-0.8,0-1.6-0.3-2.1-0.9l0,0
	c-0.6-0.6-0.9-1.3-0.9-2.1v-0.6c0-0.9,0.4-1.8,1.2-2.4l1.7-1.3l0.2-4.6h-1c-1.7,0-3.2,1-3.9,2.4c-0.3,0.6-0.4,1.2-0.4,1.9V412
	c0,3.1,1.2,6.2,3.5,8.4l0,0c1.1,1.2,1.8,2.7,1.8,4.3v5.7c0,1.4-0.5,2.7-1.3,3.8l-2.6,3.3c-0.8,1-1.3,2.3-1.3,3.7v3.6
	c0,0.7,0.1,1.4,0.4,2.1c0.4,1.2,1.2,2.2,2.3,2.9l3.8,2.5v-3.5l-2.6-1.8c-0.9-0.6-1.4-1.7-1.4-2.8v-1.7c0-1.3,0.8-2.5,2-3.1
	c0.4-0.2,0.9-0.3,1.4-0.3h17.8c0.5,0,1,0.1,1.4,0.3c1.2,0.5,2,1.8,2,3.1v1.7c0,1.1-0.5,2.1-1.4,2.8l-2.6,1.8v3.5l3.8-2.5
	c1-0.7,1.8-1.7,2.3-2.9c0.3-0.7,0.4-1.4,0.4-2.1v-3.6c0-1.3-0.5-2.6-1.3-3.7l-2.6-3.3c-0.9-1.1-1.3-2.4-1.3-3.8v-5.7
	C321.9,423.2,322.6,421.6,323.7,420.5L323.7,420.5z"/>
<linearGradient id="SVGID_00000011013931743759184450000010793656848446919592_" gradientUnits="userSpaceOnUse" x1="6085.0522" y1="64.0866" x2="6085.0522" y2="180.3039" gradientTransform="matrix(-1 0 0 1 6430.5312 0)">
	<stop  offset="0" style="stop-color:#000000"/>
	<stop  offset="9.015631e-02" style="stop-color:#0B0B0B;stop-opacity:0.9459"/>
	<stop  offset="0.248" style="stop-color:#282828;stop-opacity:0.8512"/>
	<stop  offset="0.4547" style="stop-color:#575757;stop-opacity:0.7272"/>
	<stop  offset="0.7026" style="stop-color:#989898;stop-opacity:0.5785"/>
	<stop  offset="0.9825" style="stop-color:#EBEBEB;stop-opacity:0.4105"/>
	<stop  offset="1" style="stop-color:#F0F0F0;stop-opacity:0.4"/>
</linearGradient>
<path style="opacity:0.24;fill:url(#SVGID_00000011013931743759184450000010793656848446919592_);" d="M335.7,71.6l0.9-6.7
	c0.1-0.5,0.6-0.9,1.2-0.8l12,1.6c2.1,5.2,4.9,10.2,5.3,15.6c0.1,0.8,0.1,2.3,0.2,3.1l0,0l-4.6-4.8C346.7,75.5,341.4,72.7,335.7,71.6
	L335.7,71.6z"/>
<path class="st2" d="M245.9,692.1H96.5c-3.1,0-5.7-2.5-5.7-5.7V445.2c0-3.1,2.5-5.7,5.7-5.7h149.4c3.1,0,5.7,2.5,5.7,5.7v241.3
	C251.5,689.6,249,692.1,245.9,692.1z"/>
<path class="st8" d="M96.5,689.2c-1.5,0-2.7-1.2-2.7-2.7V445.2c0-1.5,1.2-2.7,2.7-2.7h149.4c1.5,0,2.7,1.2,2.7,2.7v241.3
	c0,1.5-1.2,2.7-2.7,2.7H96.5z"/>
<rect x="103.6" y="483.9" class="st1" width="135" height="192.1"/>
<path class="st1" d="M181.4,457c0,5.1-4.2,9.3-9.3,9.3c-5.1,0-9.3-4.2-9.3-9.3c0-5.1,4.2-9.3,9.3-9.3
	C177.2,447.7,181.4,451.9,181.4,457z"/>
<path d="M166.2,195.7h-4l-1.4,2.5c-3.1,5.6-2.7,12.4,0.9,17.4c1,1.4,3,1.8,4.5,0.9l0,0V195.7z"/>
<path d="M185.3,198.2l-1.4-2.5h-4l-0.3,0.4v20.1l2.7,1.8C187.7,212.9,189,204.7,185.3,198.2z"/>
<image style="overflow:visible;" width="11" height="46" xlink:href="78383585.png"  transform="matrix(1 0 0 1 165.8936 408.4597)">
</image>
<g>
	
		<image style="overflow:visible;" width="16" height="22" xlink:href="78383587.png"  transform="matrix(1 0 0 1 154.8936 395.4597)">
	</image>
</g>
<g>
	
		<image style="overflow:visible;" width="16" height="22" xlink:href="78383584.png"  transform="matrix(1 0 0 1 172.8936 395.4597)">
	</image>
</g>
<image style="overflow:visible;" width="11" height="22" xlink:href="601FBC15.png"  transform="matrix(1 0 0 1 165.8936 436.4597)">
</image>
<image style="overflow:visible;" width="10" height="29" xlink:href="601FBC2B.png"  transform="matrix(1 0 0 1 166.8936 408.4597)">
</image>
<path class="st6" d="M183.5,201.5c2.1-2.1,3.3-5,3.3-8v-10.2c0-0.6-0.1-1.3-0.4-1.8c-0.7-1.4-2.2-2.3-3.7-2.3h-0.9l0.2,4.4l1.6,1.3
	c0.7,0.6,1.1,1.4,1.1,2.3v0.5c0,0.8-0.3,1.5-0.8,2.1l0,0c-0.5,0.5-1.3,0.8-2.1,0.8h-17.9c-0.8,0-1.5-0.3-2.1-0.8h0
	c-0.5-0.5-0.8-1.3-0.8-2.1V187c0-0.9,0.4-1.7,1.1-2.3l1.6-1.3l0.2-4.4h-0.9c-1.6,0-3,0.9-3.7,2.3c-0.3,0.6-0.4,1.2-0.4,1.8v10.2
	c0,3,1.2,5.9,3.3,8l0,0c1.1,1.1,1.7,2.6,1.7,4.2v5.4c0,1.3-0.4,2.6-1.3,3.7l-2.5,3.2c-0.8,1-1.2,2.2-1.2,3.5v3.4
	c0,0.7,0.1,1.4,0.4,2c0.4,1.1,1.2,2.1,2.2,2.7l3.6,2.4v-3.4l-2.5-1.7c-0.9-0.6-1.4-1.6-1.4-2.7v-1.6c0-1.3,0.7-2.4,1.9-2.9
	c0.4-0.2,0.9-0.3,1.3-0.3h17c0.5,0,0.9,0.1,1.3,0.3c1.2,0.5,1.9,1.7,1.9,2.9v1.6c0,1.1-0.5,2-1.4,2.7l-2.5,1.7v3.4l3.6-2.4
	c1-0.7,1.8-1.6,2.2-2.7c0.2-0.6,0.4-1.3,0.4-2v-3.4c0-1.3-0.4-2.5-1.2-3.5l-2.5-3.2c-0.8-1-1.3-2.3-1.3-3.7v-5.4
	C181.8,204.1,182.4,202.6,183.5,201.5L183.5,201.5z"/>
<path class="st3" d="M180.2,189.3h-14.7c-1.5,0-2.7-1.2-2.7-2.7v-15.5h20.2v15.5C182.9,188.1,181.7,189.3,180.2,189.3z"/>
<path class="st3" d="M182.9,174.9h-20.2V44c0-0.5,0.4-0.9,0.9-0.9H182c0.5,0,0.9,0.4,0.9,0.9V174.9z"/>
<g>
	<path class="st3" d="M180,401.6h-14.7c-1.5,0-2.7-1.2-2.7-2.7v-15.5h20.2v15.5C182.7,400.4,181.5,401.6,180,401.6z"/>
	<path class="st3" d="M182.7,387.2h-20.2V221.8c0-0.5,0.4-0.9,0.9-0.9h18.3c0.5,0,0.9,0.4,0.9,0.9V387.2z"/>
	<rect x="162.5" y="386.3" class="st3" width="20.2" height="0.9"/>
</g>
<path class="st3" d="M322.9,614.7h-21.1V441.7c0-0.5,0.4-0.9,0.9-0.9H322c0.5,0,0.9,0.4,0.9,0.9V614.7z"/>
<g>
	<g>
		<path class="st8" d="M170.8,136.5c0.2-0.4,0.4-0.6,0.8-0.8c0.3-0.2,0.7-0.3,1.2-0.3c0.5,0,0.9,0.1,1.2,0.3
			c0.3,0.2,0.6,0.5,0.8,0.8c0.2,0.4,0.3,0.8,0.3,1.3c0,0.5-0.1,0.9-0.3,1.3c-0.2,0.3-0.4,0.6-0.7,0.8c-0.3,0.2-0.7,0.3-1.2,0.3
			c-0.1,0-0.1,0-0.2,0c-0.1,0-0.1,0-0.2,0v-3.9h0.8v2.6l-0.4-0.3c0,0,0.1,0.1,0.2,0.1c0.1,0,0.1,0,0.2,0c0.2,0,0.3,0,0.5-0.1
			c0.1-0.1,0.2-0.2,0.3-0.3c0.1-0.1,0.1-0.3,0.1-0.4c0-0.2,0-0.4-0.1-0.5c-0.1-0.1-0.2-0.3-0.4-0.3c-0.2-0.1-0.4-0.1-0.7-0.1
			c-0.3,0-0.5,0-0.7,0.1c-0.2,0.1-0.3,0.2-0.4,0.3c-0.1,0.1-0.1,0.3-0.1,0.5c0,0.2,0,0.5,0.1,0.6c0.1,0.2,0.2,0.3,0.4,0.4l-0.3,1.3
			c-0.4-0.2-0.7-0.5-1-0.9c-0.2-0.4-0.3-0.8-0.3-1.4C170.5,137.3,170.6,136.9,170.8,136.5z"/>
		<path class="st8" d="M170.6,147.5v-1.4h2.6c0.3,0,0.5,0,0.6-0.1c0.1-0.1,0.2-0.2,0.2-0.4c0-0.1,0-0.2-0.1-0.3
			c-0.1-0.1-0.1-0.2-0.3-0.2c-0.1-0.1-0.3-0.1-0.4-0.1h-2.6v-1.4h2.6c0.3,0,0.5,0,0.6-0.1c0.1-0.1,0.2-0.2,0.2-0.4
			c0-0.1,0-0.2-0.1-0.3c-0.1-0.1-0.1-0.2-0.3-0.2c-0.1-0.1-0.3-0.1-0.4-0.1h-2.6v-1.4h4.3v1.4h-0.6c0.2,0.1,0.4,0.3,0.5,0.5
			c0.1,0.2,0.2,0.5,0.2,0.8c0,0.3-0.1,0.6-0.2,0.8s-0.3,0.3-0.5,0.4c0.2,0.2,0.4,0.3,0.5,0.6c0.1,0.2,0.2,0.5,0.2,0.8
			c0,0.3-0.1,0.6-0.2,0.8c-0.1,0.2-0.3,0.3-0.6,0.4c-0.2,0.1-0.5,0.1-0.9,0.1H170.6z"/>
		<path class="st8" d="M173.9,148.6c0.3,0.2,0.6,0.5,0.8,0.9c0.2,0.4,0.3,0.8,0.3,1.3c0,0.5-0.1,0.9-0.3,1.3
			c-0.2,0.4-0.4,0.7-0.8,0.9s-0.7,0.3-1.2,0.3c-0.4,0-0.8-0.1-1.2-0.3c-0.3-0.2-0.6-0.5-0.8-0.9c-0.2-0.4-0.3-0.8-0.3-1.3
			c0-0.5,0.1-0.9,0.3-1.3c0.2-0.4,0.4-0.7,0.8-0.9c0.3-0.2,0.7-0.3,1.2-0.3C173.2,148.3,173.6,148.4,173.9,148.6z M172.2,149.9
			c-0.2,0.1-0.3,0.2-0.4,0.4c-0.1,0.1-0.1,0.3-0.1,0.5c0,0.2,0,0.3,0.1,0.5c0.1,0.2,0.2,0.3,0.4,0.4c0.2,0.1,0.3,0.1,0.6,0.1
			c0.2,0,0.4,0,0.6-0.1c0.2-0.1,0.3-0.2,0.4-0.4c0.1-0.2,0.1-0.3,0.1-0.5c0-0.2,0-0.4-0.1-0.5c-0.1-0.1-0.2-0.3-0.4-0.4
			c-0.2-0.1-0.4-0.1-0.6-0.1C172.5,149.8,172.3,149.8,172.2,149.9z"/>
		<path class="st8" d="M170.6,155.5v-1.4h4.3v1.4H170.6z M173.6,156.5c0-0.1,0.1-0.2,0.1-0.3c0-0.1,0-0.3-0.1-0.4s-0.2-0.2-0.3-0.2
			c-0.1-0.1-0.3-0.1-0.5-0.1l0.5-0.3c0.3,0,0.6,0.1,0.9,0.2c0.3,0.1,0.5,0.3,0.6,0.5c0.2,0.2,0.2,0.4,0.2,0.7c0,0.2,0,0.3-0.1,0.4
			c-0.1,0.1-0.1,0.3-0.3,0.3l-1.2-0.6C173.5,156.6,173.6,156.5,173.6,156.5z"/>
		<path class="st1" d="M177.1,162.5v5l-5.2-3v2.7h-1.4v-5.2l5.1,3v-2.5H177.1z"/>
		<path class="st1" d="M173.9,167.9c0.3,0.2,0.6,0.5,0.8,0.9c0.2,0.4,0.3,0.8,0.3,1.3c0,0.5-0.1,0.9-0.3,1.3
			c-0.2,0.4-0.4,0.7-0.8,0.9s-0.7,0.3-1.2,0.3c-0.4,0-0.8-0.1-1.2-0.3c-0.3-0.2-0.6-0.5-0.8-0.9c-0.2-0.4-0.3-0.8-0.3-1.3
			c0-0.5,0.1-0.9,0.3-1.3c0.2-0.4,0.4-0.7,0.8-0.9c0.3-0.2,0.7-0.3,1.2-0.3C173.2,167.5,173.6,167.6,173.9,167.9z M172.2,169.1
			c-0.2,0.1-0.3,0.2-0.4,0.4c-0.1,0.1-0.1,0.3-0.1,0.5c0,0.2,0,0.3,0.1,0.5c0.1,0.2,0.2,0.3,0.4,0.4c0.2,0.1,0.3,0.1,0.6,0.1
			c0.2,0,0.4,0,0.6-0.1c0.2-0.1,0.3-0.2,0.4-0.4c0.1-0.2,0.1-0.3,0.1-0.5c0-0.2,0-0.4-0.1-0.5c-0.1-0.1-0.2-0.3-0.4-0.4
			c-0.2-0.1-0.4-0.1-0.6-0.1C172.5,169,172.3,169,172.2,169.1z"/>
		<path class="st1" d="M173.8,175.9c0.1-0.1,0.2-0.3,0.2-0.5c0-0.1,0-0.3-0.1-0.4c-0.1-0.1-0.2-0.2-0.3-0.3
			c-0.1-0.1-0.3-0.1-0.4-0.1h-2.6v-1.4h4.3v1.4h-0.6c0.2,0.1,0.4,0.3,0.5,0.5c0.1,0.2,0.2,0.5,0.2,0.8c0,0.5-0.1,0.9-0.4,1.2
			c-0.3,0.2-0.7,0.4-1.2,0.4h-2.8v-1.5h2.6C173.5,176.1,173.7,176,173.8,175.9z"/>
		<path class="st1" d="M170.8,179.5c0.2-0.4,0.4-0.6,0.8-0.8c0.3-0.2,0.7-0.3,1.2-0.3c0.5,0,0.9,0.1,1.2,0.3
			c0.3,0.2,0.6,0.5,0.8,0.8c0.2,0.4,0.3,0.8,0.3,1.3c0,0.5-0.1,0.9-0.3,1.3c-0.2,0.3-0.4,0.6-0.7,0.8c-0.3,0.2-0.7,0.3-1.2,0.3
			c-0.1,0-0.1,0-0.2,0c-0.1,0-0.1,0-0.2,0v-3.9h0.8v2.6l-0.4-0.3c0,0,0.1,0.1,0.2,0.1c0.1,0,0.1,0,0.2,0c0.2,0,0.3,0,0.5-0.1
			c0.1-0.1,0.2-0.2,0.3-0.3c0.1-0.1,0.1-0.3,0.1-0.4c0-0.2,0-0.4-0.1-0.5c-0.1-0.1-0.2-0.3-0.4-0.3c-0.2-0.1-0.4-0.1-0.7-0.1
			c-0.3,0-0.5,0-0.7,0.1c-0.2,0.1-0.3,0.2-0.4,0.3c-0.1,0.1-0.1,0.3-0.1,0.5c0,0.2,0,0.5,0.1,0.6c0.1,0.2,0.2,0.3,0.4,0.4l-0.3,1.3
			c-0.4-0.2-0.7-0.5-1-0.9c-0.2-0.4-0.3-0.8-0.3-1.4C170.5,180.3,170.6,179.9,170.8,179.5z"/>
		<path class="st8" d="M173.5,130.3l3.2,3.8H174c-0.3,0-0.5-0.1-0.7-0.3l-3.2-3.8h2.7C173.1,130,173.3,130.1,173.5,130.3z"/>
		<path class="st8" d="M173.5,126.1l3.2,3.8H174c-0.3,0-0.5-0.1-0.7-0.3l-3.2-3.8h2.7C173.1,125.8,173.3,125.9,173.5,126.1z"/>
		<circle class="st8" cx="171.4" cy="134" r="0.9"/>
		<polygon class="st8" points="168.6,157.6 168.6,159.1 174.9,162.7 174.9,161.3 		"/>
		<g>
			<polygon class="st8" points="172.6,160 174.9,159.1 174.9,157.5 171.3,159.3 			"/>
		</g>
	</g>
</g>
<g>
	<g>
		<g>
			<path class="st8" d="M170.8,242.7c0.2-0.4,0.4-0.6,0.8-0.8c0.3-0.2,0.7-0.3,1.2-0.3c0.5,0,0.9,0.1,1.2,0.3
				c0.3,0.2,0.6,0.5,0.8,0.8c0.2,0.4,0.3,0.8,0.3,1.3c0,0.5-0.1,0.9-0.3,1.3c-0.2,0.3-0.4,0.6-0.7,0.8c-0.3,0.2-0.7,0.3-1.2,0.3
				c-0.1,0-0.1,0-0.2,0c-0.1,0-0.1,0-0.2,0v-3.9h0.8v2.6l-0.4-0.3c0,0,0.1,0.1,0.2,0.1c0.1,0,0.1,0,0.2,0c0.2,0,0.3,0,0.5-0.1
				c0.1-0.1,0.2-0.2,0.3-0.3c0.1-0.1,0.1-0.3,0.1-0.4c0-0.2,0-0.4-0.1-0.5c-0.1-0.1-0.2-0.3-0.4-0.3c-0.2-0.1-0.4-0.1-0.7-0.1
				c-0.3,0-0.5,0-0.7,0.1c-0.2,0.1-0.3,0.2-0.4,0.3c-0.1,0.1-0.1,0.3-0.1,0.5c0,0.2,0,0.5,0.1,0.6c0.1,0.2,0.2,0.3,0.4,0.4l-0.3,1.3
				c-0.4-0.2-0.7-0.5-1-0.9c-0.2-0.4-0.3-0.8-0.3-1.4C170.5,243.4,170.6,243,170.8,242.7z"/>
			<path class="st8" d="M170.6,253.6v-1.4h2.6c0.3,0,0.5,0,0.6-0.1c0.1-0.1,0.2-0.2,0.2-0.4c0-0.1,0-0.2-0.1-0.3
				c-0.1-0.1-0.1-0.2-0.3-0.2c-0.1-0.1-0.3-0.1-0.4-0.1h-2.6v-1.4h2.6c0.3,0,0.5,0,0.6-0.1c0.1-0.1,0.2-0.2,0.2-0.4
				c0-0.1,0-0.2-0.1-0.3c-0.1-0.1-0.1-0.2-0.3-0.2c-0.1-0.1-0.3-0.1-0.4-0.1h-2.6v-1.4h4.3v1.4h-0.6c0.2,0.1,0.4,0.3,0.5,0.5
				c0.1,0.2,0.2,0.5,0.2,0.8c0,0.3-0.1,0.6-0.2,0.8s-0.3,0.3-0.5,0.4c0.2,0.2,0.4,0.3,0.5,0.6c0.1,0.2,0.2,0.5,0.2,0.8
				c0,0.3-0.1,0.6-0.2,0.8c-0.1,0.2-0.3,0.3-0.6,0.4c-0.2,0.1-0.5,0.1-0.9,0.1H170.6z"/>
			<path class="st8" d="M173.9,254.8c0.3,0.2,0.6,0.5,0.8,0.9c0.2,0.4,0.3,0.8,0.3,1.3c0,0.5-0.1,0.9-0.3,1.3
				c-0.2,0.4-0.4,0.7-0.8,0.9c-0.3,0.2-0.7,0.3-1.2,0.3c-0.4,0-0.8-0.1-1.2-0.3c-0.3-0.2-0.6-0.5-0.8-0.9c-0.2-0.4-0.3-0.8-0.3-1.3
				c0-0.5,0.1-0.9,0.3-1.3c0.2-0.4,0.4-0.7,0.8-0.9c0.3-0.2,0.7-0.3,1.2-0.3C173.2,254.5,173.6,254.6,173.9,254.8z M172.2,256.1
				c-0.2,0.1-0.3,0.2-0.4,0.4c-0.1,0.1-0.1,0.3-0.1,0.5c0,0.2,0,0.3,0.1,0.5c0.1,0.2,0.2,0.3,0.4,0.4c0.2,0.1,0.3,0.1,0.6,0.1
				c0.2,0,0.4,0,0.6-0.1c0.2-0.1,0.3-0.2,0.4-0.4c0.1-0.2,0.1-0.3,0.1-0.5c0-0.2,0-0.4-0.1-0.5c-0.1-0.1-0.2-0.3-0.4-0.4
				c-0.2-0.1-0.4-0.1-0.6-0.1C172.5,255.9,172.3,256,172.2,256.1z"/>
			<path class="st8" d="M170.6,261.6v-1.4h4.3v1.4H170.6z M173.6,262.6c0-0.1,0.1-0.2,0.1-0.3c0-0.1,0-0.3-0.1-0.4s-0.2-0.2-0.3-0.2
				c-0.1-0.1-0.3-0.1-0.5-0.1l0.5-0.3c0.3,0,0.6,0.1,0.9,0.2c0.3,0.1,0.5,0.3,0.6,0.5c0.2,0.2,0.2,0.4,0.2,0.7c0,0.2,0,0.3-0.1,0.4
				c-0.1,0.1-0.1,0.3-0.3,0.3l-1.2-0.6C173.5,262.8,173.6,262.7,173.6,262.6z"/>
			<path class="st1" d="M177.1,268.7v5l-5.2-3v2.7h-1.4v-5.2l5.1,3v-2.5H177.1z"/>
			<path class="st1" d="M173.9,274c0.3,0.2,0.6,0.5,0.8,0.9c0.2,0.4,0.3,0.8,0.3,1.3c0,0.5-0.1,0.9-0.3,1.3
				c-0.2,0.4-0.4,0.7-0.8,0.9s-0.7,0.3-1.2,0.3c-0.4,0-0.8-0.1-1.2-0.3c-0.3-0.2-0.6-0.5-0.8-0.9c-0.2-0.4-0.3-0.8-0.3-1.3
				c0-0.5,0.1-0.9,0.3-1.3c0.2-0.4,0.4-0.7,0.8-0.9c0.3-0.2,0.7-0.3,1.2-0.3C173.2,273.7,173.6,273.8,173.9,274z M172.2,275.3
				c-0.2,0.1-0.3,0.2-0.4,0.4c-0.1,0.1-0.1,0.3-0.1,0.5c0,0.2,0,0.3,0.1,0.5c0.1,0.2,0.2,0.3,0.4,0.4c0.2,0.1,0.3,0.1,0.6,0.1
				c0.2,0,0.4,0,0.6-0.1c0.2-0.1,0.3-0.2,0.4-0.4c0.1-0.2,0.1-0.3,0.1-0.5c0-0.2,0-0.4-0.1-0.5c-0.1-0.1-0.2-0.3-0.4-0.4
				c-0.2-0.1-0.4-0.1-0.6-0.1C172.5,275.1,172.3,275.2,172.2,275.3z"/>
			<path class="st1" d="M173.8,282.1c0.1-0.1,0.2-0.3,0.2-0.5c0-0.1,0-0.3-0.1-0.4c-0.1-0.1-0.2-0.2-0.3-0.3
				c-0.1-0.1-0.3-0.1-0.4-0.1h-2.6v-1.4h4.3v1.4h-0.6c0.2,0.1,0.4,0.3,0.5,0.5c0.1,0.2,0.2,0.5,0.2,0.8c0,0.5-0.1,0.9-0.4,1.2
				c-0.3,0.2-0.7,0.4-1.2,0.4h-2.8v-1.5h2.6C173.5,282.2,173.7,282.2,173.8,282.1z"/>
			<path class="st1" d="M170.8,285.7c0.2-0.4,0.4-0.6,0.8-0.8c0.3-0.2,0.7-0.3,1.2-0.3c0.5,0,0.9,0.1,1.2,0.3
				c0.3,0.2,0.6,0.5,0.8,0.8c0.2,0.4,0.3,0.8,0.3,1.3c0,0.5-0.1,0.9-0.3,1.3c-0.2,0.3-0.4,0.6-0.7,0.8c-0.3,0.2-0.7,0.3-1.2,0.3
				c-0.1,0-0.1,0-0.2,0c-0.1,0-0.1,0-0.2,0v-3.9h0.8v2.6l-0.4-0.3c0,0,0.1,0.1,0.2,0.1c0.1,0,0.1,0,0.2,0c0.2,0,0.3,0,0.5-0.1
				c0.1-0.1,0.2-0.2,0.3-0.3c0.1-0.1,0.1-0.3,0.1-0.4c0-0.2,0-0.4-0.1-0.5c-0.1-0.1-0.2-0.3-0.4-0.3c-0.2-0.1-0.4-0.1-0.7-0.1
				c-0.3,0-0.5,0-0.7,0.1c-0.2,0.1-0.3,0.2-0.4,0.3c-0.1,0.1-0.1,0.3-0.1,0.5c0,0.2,0,0.5,0.1,0.6c0.1,0.2,0.2,0.3,0.4,0.4l-0.3,1.3
				c-0.4-0.2-0.7-0.5-1-0.9c-0.2-0.4-0.3-0.8-0.3-1.4C170.5,286.5,170.6,286,170.8,285.7z"/>
			<path class="st8" d="M173.5,236.5l3.2,3.8H174c-0.3,0-0.5-0.1-0.7-0.3l-3.2-3.8h2.7C173.1,236.1,173.3,236.3,173.5,236.5z"/>
			<path class="st8" d="M173.5,232.3l3.2,3.8H174c-0.3,0-0.5-0.1-0.7-0.3l-3.2-3.8h2.7C173.1,232,173.3,232.1,173.5,232.3z"/>
			<circle class="st8" cx="171.4" cy="240.2" r="0.9"/>
			<polygon class="st8" points="168.6,263.8 168.6,265.2 174.9,268.9 174.9,267.4 			"/>
			<g>
				<polygon class="st8" points="172.6,266.2 174.9,265.3 174.9,263.7 171.3,265.4 				"/>
			</g>
		</g>
	</g>
	<g>
		<g>
			<path class="st8" d="M170.8,336.7c0.2-0.4,0.4-0.6,0.8-0.8c0.3-0.2,0.7-0.3,1.2-0.3c0.5,0,0.9,0.1,1.2,0.3
				c0.3,0.2,0.6,0.5,0.8,0.8c0.2,0.4,0.3,0.8,0.3,1.3c0,0.5-0.1,0.9-0.3,1.3c-0.2,0.3-0.4,0.6-0.7,0.8c-0.3,0.2-0.7,0.3-1.2,0.3
				c-0.1,0-0.1,0-0.2,0c-0.1,0-0.1,0-0.2,0v-3.9h0.8v2.6l-0.4-0.3c0,0,0.1,0.1,0.2,0.1c0.1,0,0.1,0,0.2,0c0.2,0,0.3,0,0.5-0.1
				c0.1-0.1,0.2-0.2,0.3-0.3c0.1-0.1,0.1-0.3,0.1-0.4c0-0.2,0-0.4-0.1-0.5c-0.1-0.1-0.2-0.3-0.4-0.3c-0.2-0.1-0.4-0.1-0.7-0.1
				c-0.3,0-0.5,0-0.7,0.1c-0.2,0.1-0.3,0.2-0.4,0.3c-0.1,0.1-0.1,0.3-0.1,0.5c0,0.2,0,0.5,0.1,0.6c0.1,0.2,0.2,0.3,0.4,0.4l-0.3,1.3
				c-0.4-0.2-0.7-0.5-1-0.9c-0.2-0.4-0.3-0.8-0.3-1.4C170.5,337.5,170.6,337.1,170.8,336.7z"/>
			<path class="st8" d="M170.6,347.7v-1.4h2.6c0.3,0,0.5,0,0.6-0.1c0.1-0.1,0.2-0.2,0.2-0.4c0-0.1,0-0.2-0.1-0.3
				c-0.1-0.1-0.1-0.2-0.3-0.2c-0.1-0.1-0.3-0.1-0.4-0.1h-2.6v-1.4h2.6c0.3,0,0.5,0,0.6-0.1c0.1-0.1,0.2-0.2,0.2-0.4
				c0-0.1,0-0.2-0.1-0.3c-0.1-0.1-0.1-0.2-0.3-0.2c-0.1-0.1-0.3-0.1-0.4-0.1h-2.6v-1.4h4.3v1.4h-0.6c0.2,0.1,0.4,0.3,0.5,0.5
				c0.1,0.2,0.2,0.5,0.2,0.8c0,0.3-0.1,0.6-0.2,0.8s-0.3,0.3-0.5,0.4c0.2,0.2,0.4,0.3,0.5,0.6c0.1,0.2,0.2,0.5,0.2,0.8
				c0,0.3-0.1,0.6-0.2,0.8c-0.1,0.2-0.3,0.3-0.6,0.4c-0.2,0.1-0.5,0.1-0.9,0.1H170.6z"/>
			<path class="st8" d="M173.9,348.9c0.3,0.2,0.6,0.5,0.8,0.9c0.2,0.4,0.3,0.8,0.3,1.3c0,0.5-0.1,0.9-0.3,1.3
				c-0.2,0.4-0.4,0.7-0.8,0.9s-0.7,0.3-1.2,0.3c-0.4,0-0.8-0.1-1.2-0.3c-0.3-0.2-0.6-0.5-0.8-0.9c-0.2-0.4-0.3-0.8-0.3-1.3
				c0-0.5,0.1-0.9,0.3-1.3c0.2-0.4,0.4-0.7,0.8-0.9c0.3-0.2,0.7-0.3,1.2-0.3C173.2,348.5,173.6,348.6,173.9,348.9z M172.2,350.1
				c-0.2,0.1-0.3,0.2-0.4,0.4c-0.1,0.1-0.1,0.3-0.1,0.5c0,0.2,0,0.3,0.1,0.5c0.1,0.2,0.2,0.3,0.4,0.4c0.2,0.1,0.3,0.1,0.6,0.1
				c0.2,0,0.4,0,0.6-0.1c0.2-0.1,0.3-0.2,0.4-0.4c0.1-0.2,0.1-0.3,0.1-0.5c0-0.2,0-0.4-0.1-0.5c-0.1-0.1-0.2-0.3-0.4-0.4
				c-0.2-0.1-0.4-0.1-0.6-0.1C172.5,350,172.3,350,172.2,350.1z"/>
			<path class="st8" d="M170.6,355.7v-1.4h4.3v1.4H170.6z M173.6,356.7c0-0.1,0.1-0.2,0.1-0.3c0-0.1,0-0.3-0.1-0.4s-0.2-0.2-0.3-0.2
				c-0.1-0.1-0.3-0.1-0.5-0.1l0.5-0.3c0.3,0,0.6,0.1,0.9,0.2c0.3,0.1,0.5,0.3,0.6,0.5c0.2,0.2,0.2,0.4,0.2,0.7c0,0.2,0,0.3-0.1,0.4
				c-0.1,0.1-0.1,0.3-0.3,0.3l-1.2-0.6C173.5,356.8,173.6,356.8,173.6,356.7z"/>
			<path class="st1" d="M177.1,362.8v5l-5.2-3v2.7h-1.4v-5.2l5.1,3v-2.5H177.1z"/>
			<path class="st1" d="M173.9,368.1c0.3,0.2,0.6,0.5,0.8,0.9c0.2,0.4,0.3,0.8,0.3,1.3c0,0.5-0.1,0.9-0.3,1.3
				c-0.2,0.4-0.4,0.7-0.8,0.9c-0.3,0.2-0.7,0.3-1.2,0.3c-0.4,0-0.8-0.1-1.2-0.3c-0.3-0.2-0.6-0.5-0.8-0.9c-0.2-0.4-0.3-0.8-0.3-1.3
				c0-0.5,0.1-0.9,0.3-1.3c0.2-0.4,0.4-0.7,0.8-0.9c0.3-0.2,0.7-0.3,1.2-0.3C173.2,367.7,173.6,367.9,173.9,368.1z M172.2,369.3
				c-0.2,0.1-0.3,0.2-0.4,0.4c-0.1,0.1-0.1,0.3-0.1,0.5c0,0.2,0,0.3,0.1,0.5c0.1,0.2,0.2,0.3,0.4,0.4c0.2,0.1,0.3,0.1,0.6,0.1
				c0.2,0,0.4,0,0.6-0.1c0.2-0.1,0.3-0.2,0.4-0.4c0.1-0.2,0.1-0.3,0.1-0.5c0-0.2,0-0.4-0.1-0.5c-0.1-0.1-0.2-0.3-0.4-0.4
				c-0.2-0.1-0.4-0.1-0.6-0.1C172.5,369.2,172.3,369.2,172.2,369.3z"/>
			<path class="st1" d="M173.8,376.1c0.1-0.1,0.2-0.3,0.2-0.5c0-0.1,0-0.3-0.1-0.4c-0.1-0.1-0.2-0.2-0.3-0.3
				c-0.1-0.1-0.3-0.1-0.4-0.1h-2.6v-1.4h4.3v1.4h-0.6c0.2,0.1,0.4,0.3,0.5,0.5c0.1,0.2,0.2,0.5,0.2,0.8c0,0.5-0.1,0.9-0.4,1.2
				c-0.3,0.2-0.7,0.4-1.2,0.4h-2.8v-1.5h2.6C173.5,376.3,173.7,376.2,173.8,376.1z"/>
			<path class="st1" d="M170.8,379.7c0.2-0.4,0.4-0.6,0.8-0.8c0.3-0.2,0.7-0.3,1.2-0.3c0.5,0,0.9,0.1,1.2,0.3
				c0.3,0.2,0.6,0.5,0.8,0.8c0.2,0.4,0.3,0.8,0.3,1.3c0,0.5-0.1,0.9-0.3,1.3c-0.2,0.3-0.4,0.6-0.7,0.8c-0.3,0.2-0.7,0.3-1.2,0.3
				c-0.1,0-0.1,0-0.2,0c-0.1,0-0.1,0-0.2,0v-3.9h0.8v2.6l-0.4-0.3c0,0,0.1,0.1,0.2,0.1c0.1,0,0.1,0,0.2,0c0.2,0,0.3,0,0.5-0.1
				c0.1-0.1,0.2-0.2,0.3-0.3c0.1-0.1,0.1-0.3,0.1-0.4c0-0.2,0-0.4-0.1-0.5c-0.1-0.1-0.2-0.3-0.4-0.3c-0.2-0.1-0.4-0.1-0.7-0.1
				c-0.3,0-0.5,0-0.7,0.1c-0.2,0.1-0.3,0.2-0.4,0.3c-0.1,0.1-0.1,0.3-0.1,0.5c0,0.2,0,0.5,0.1,0.6c0.1,0.2,0.2,0.3,0.4,0.4l-0.3,1.3
				c-0.4-0.2-0.7-0.5-1-0.9c-0.2-0.4-0.3-0.8-0.3-1.4C170.5,380.5,170.6,380.1,170.8,379.7z"/>
			<path class="st8" d="M173.5,330.5l3.2,3.8H174c-0.3,0-0.5-0.1-0.7-0.3l-3.2-3.8h2.7C173.1,330.2,173.3,330.3,173.5,330.5z"/>
			<path class="st8" d="M173.5,326.3l3.2,3.8H174c-0.3,0-0.5-0.1-0.7-0.3l-3.2-3.8h2.7C173.1,326,173.3,326.1,173.5,326.3z"/>
			<circle class="st8" cx="171.4" cy="334.2" r="0.9"/>
			<polygon class="st8" points="168.6,357.8 168.6,359.3 174.9,362.9 174.9,361.5 			"/>
			<g>
				<polygon class="st8" points="172.6,360.2 174.9,359.3 174.9,357.8 171.3,359.5 				"/>
			</g>
		</g>
	</g>
	<circle class="st8" cx="172.8" cy="306.4" r="1.3"/>
</g>
<g>
	<g>
		<g>
			<path class="st8" d="M309.9,468.9c0.2-0.4,0.4-0.6,0.8-0.8c0.3-0.2,0.7-0.3,1.2-0.3c0.5,0,0.9,0.1,1.2,0.3
				c0.3,0.2,0.6,0.5,0.8,0.8c0.2,0.4,0.3,0.8,0.3,1.3c0,0.5-0.1,0.9-0.3,1.3c-0.2,0.3-0.4,0.6-0.7,0.8c-0.3,0.2-0.7,0.3-1.2,0.3
				c-0.1,0-0.1,0-0.2,0c-0.1,0-0.1,0-0.2,0v-3.9h0.8v2.6l-0.4-0.3c0,0,0.1,0.1,0.2,0.1c0.1,0,0.1,0,0.2,0c0.2,0,0.3,0,0.5-0.1
				c0.1-0.1,0.2-0.2,0.3-0.3c0.1-0.1,0.1-0.3,0.1-0.4c0-0.2,0-0.4-0.1-0.5c-0.1-0.1-0.2-0.3-0.4-0.3c-0.2-0.1-0.4-0.1-0.7-0.1
				c-0.3,0-0.5,0-0.7,0.1c-0.2,0.1-0.3,0.2-0.4,0.3c-0.1,0.1-0.1,0.3-0.1,0.5c0,0.2,0,0.5,0.1,0.6c0.1,0.2,0.2,0.3,0.4,0.4l-0.3,1.3
				c-0.4-0.2-0.7-0.5-1-0.9c-0.2-0.4-0.3-0.8-0.3-1.4C309.7,469.6,309.8,469.2,309.9,468.9z"/>
			<path class="st8" d="M309.8,479.8v-1.4h2.6c0.3,0,0.5,0,0.6-0.1c0.1-0.1,0.2-0.2,0.2-0.4c0-0.1,0-0.2-0.1-0.3
				c-0.1-0.1-0.1-0.2-0.3-0.2c-0.1-0.1-0.3-0.1-0.4-0.1h-2.6v-1.4h2.6c0.3,0,0.5,0,0.6-0.1c0.1-0.1,0.2-0.2,0.2-0.4
				c0-0.1,0-0.2-0.1-0.3c-0.1-0.1-0.1-0.2-0.3-0.2c-0.1-0.1-0.3-0.1-0.4-0.1h-2.6v-1.4h4.3v1.4h-0.6c0.2,0.1,0.4,0.3,0.5,0.5
				c0.1,0.2,0.2,0.5,0.2,0.8c0,0.3-0.1,0.6-0.2,0.8c-0.1,0.2-0.3,0.3-0.5,0.4c0.2,0.2,0.4,0.3,0.5,0.6c0.1,0.2,0.2,0.5,0.2,0.8
				c0,0.3-0.1,0.6-0.2,0.8c-0.1,0.2-0.3,0.3-0.6,0.4c-0.2,0.1-0.5,0.1-0.9,0.1H309.8z"/>
			<path class="st8" d="M313.1,481c0.3,0.2,0.6,0.5,0.8,0.9c0.2,0.4,0.3,0.8,0.3,1.3c0,0.5-0.1,0.9-0.3,1.3
				c-0.2,0.4-0.4,0.7-0.8,0.9c-0.3,0.2-0.7,0.3-1.2,0.3c-0.4,0-0.8-0.1-1.2-0.3c-0.3-0.2-0.6-0.5-0.8-0.9c-0.2-0.4-0.3-0.8-0.3-1.3
				c0-0.5,0.1-0.9,0.3-1.3c0.2-0.4,0.4-0.7,0.8-0.9c0.3-0.2,0.7-0.3,1.2-0.3C312.4,480.7,312.8,480.8,313.1,481z M311.3,482.3
				c-0.2,0.1-0.3,0.2-0.4,0.4c-0.1,0.1-0.1,0.3-0.1,0.5c0,0.2,0,0.3,0.1,0.5c0.1,0.2,0.2,0.3,0.4,0.4c0.2,0.1,0.3,0.1,0.6,0.1
				c0.2,0,0.4,0,0.6-0.1c0.2-0.1,0.3-0.2,0.4-0.4s0.1-0.3,0.1-0.5c0-0.2,0-0.4-0.1-0.5s-0.2-0.3-0.4-0.4c-0.2-0.1-0.4-0.1-0.6-0.1
				C311.7,482.1,311.5,482.2,311.3,482.3z"/>
			<path class="st8" d="M309.8,487.8v-1.4h4.3v1.4H309.8z M312.8,488.8c0-0.1,0.1-0.2,0.1-0.3c0-0.1,0-0.3-0.1-0.4
				c-0.1-0.1-0.2-0.2-0.3-0.2c-0.1-0.1-0.3-0.1-0.5-0.1l0.5-0.3c0.3,0,0.6,0.1,0.9,0.2c0.3,0.1,0.5,0.3,0.6,0.5
				c0.2,0.2,0.2,0.4,0.2,0.7c0,0.2,0,0.3-0.1,0.4c-0.1,0.1-0.1,0.3-0.3,0.3l-1.2-0.6C312.7,489,312.7,488.9,312.8,488.8z"/>
			<path class="st1" d="M316.3,494.9v5l-5.2-3v2.7h-1.4v-5.2l5.1,3v-2.5H316.3z"/>
			<path class="st1" d="M313.1,500.2c0.3,0.2,0.6,0.5,0.8,0.9c0.2,0.4,0.3,0.8,0.3,1.3c0,0.5-0.1,0.9-0.3,1.3
				c-0.2,0.4-0.4,0.7-0.8,0.9c-0.3,0.2-0.7,0.3-1.2,0.3c-0.4,0-0.8-0.1-1.2-0.3c-0.3-0.2-0.6-0.5-0.8-0.9c-0.2-0.4-0.3-0.8-0.3-1.3
				c0-0.5,0.1-0.9,0.3-1.3c0.2-0.4,0.4-0.7,0.8-0.9c0.3-0.2,0.7-0.3,1.2-0.3C312.4,499.9,312.8,500,313.1,500.2z M311.3,501.5
				c-0.2,0.1-0.3,0.2-0.4,0.4c-0.1,0.1-0.1,0.3-0.1,0.5c0,0.2,0,0.3,0.1,0.5c0.1,0.2,0.2,0.3,0.4,0.4c0.2,0.1,0.3,0.1,0.6,0.1
				c0.2,0,0.4,0,0.6-0.1c0.2-0.1,0.3-0.2,0.4-0.4c0.1-0.2,0.1-0.3,0.1-0.5c0-0.2,0-0.4-0.1-0.5c-0.1-0.1-0.2-0.3-0.4-0.4
				c-0.2-0.1-0.4-0.1-0.6-0.1C311.7,501.3,311.5,501.4,311.3,501.5z"/>
			<path class="st1" d="M313,508.3c0.1-0.1,0.2-0.3,0.2-0.5c0-0.1,0-0.3-0.1-0.4c-0.1-0.1-0.2-0.2-0.3-0.3c-0.1-0.1-0.3-0.1-0.4-0.1
				h-2.6v-1.4h4.3v1.4h-0.6c0.2,0.1,0.4,0.3,0.5,0.5c0.1,0.2,0.2,0.5,0.2,0.8c0,0.5-0.1,0.9-0.4,1.2c-0.3,0.2-0.7,0.4-1.2,0.4h-2.8
				v-1.5h2.6C312.6,508.4,312.8,508.4,313,508.3z"/>
			<path class="st1" d="M309.9,511.9c0.2-0.4,0.4-0.6,0.8-0.8c0.3-0.2,0.7-0.3,1.2-0.3c0.5,0,0.9,0.1,1.2,0.3
				c0.3,0.2,0.6,0.5,0.8,0.8c0.2,0.4,0.3,0.8,0.3,1.3c0,0.5-0.1,0.9-0.3,1.3c-0.2,0.3-0.4,0.6-0.7,0.8s-0.7,0.3-1.2,0.3
				c-0.1,0-0.1,0-0.2,0c-0.1,0-0.1,0-0.2,0v-3.9h0.8v2.6l-0.4-0.3c0,0,0.1,0.1,0.2,0.1c0.1,0,0.1,0,0.2,0c0.2,0,0.3,0,0.5-0.1
				c0.1-0.1,0.2-0.2,0.3-0.3c0.1-0.1,0.1-0.3,0.1-0.4c0-0.2,0-0.4-0.1-0.5c-0.1-0.1-0.2-0.3-0.4-0.3c-0.2-0.1-0.4-0.1-0.7-0.1
				c-0.3,0-0.5,0-0.7,0.1c-0.2,0.1-0.3,0.2-0.4,0.3c-0.1,0.1-0.1,0.3-0.1,0.5c0,0.2,0,0.5,0.1,0.6c0.1,0.2,0.2,0.3,0.4,0.4l-0.3,1.3
				c-0.4-0.2-0.7-0.5-1-0.9c-0.2-0.4-0.3-0.8-0.3-1.4C309.7,512.7,309.8,512.3,309.9,511.9z"/>
			<path class="st8" d="M312.7,462.7l3.2,3.8h-2.7c-0.3,0-0.5-0.1-0.7-0.3l-3.2-3.8h2.7C312.2,462.3,312.5,462.5,312.7,462.7z"/>
			<path class="st8" d="M312.7,458.5l3.2,3.8h-2.7c-0.3,0-0.5-0.1-0.7-0.3l-3.2-3.8h2.7C312.2,458.2,312.5,458.3,312.7,458.5z"/>
			<circle class="st8" cx="310.5" cy="466.4" r="0.9"/>
			<polygon class="st8" points="307.7,490 307.7,491.4 314,495.1 314,493.6 			"/>
			<g>
				<polygon class="st8" points="311.8,492.4 314,491.5 314,489.9 310.4,491.6 				"/>
			</g>
		</g>
	</g>
	<g>
		<g>
			<path class="st8" d="M309.9,562.9c0.2-0.4,0.4-0.6,0.8-0.8c0.3-0.2,0.7-0.3,1.2-0.3c0.5,0,0.9,0.1,1.2,0.3
				c0.3,0.2,0.6,0.5,0.8,0.8c0.2,0.4,0.3,0.8,0.3,1.3c0,0.5-0.1,0.9-0.3,1.3c-0.2,0.3-0.4,0.6-0.7,0.8c-0.3,0.2-0.7,0.3-1.2,0.3
				c-0.1,0-0.1,0-0.2,0c-0.1,0-0.1,0-0.2,0v-3.9h0.8v2.6l-0.4-0.3c0,0,0.1,0.1,0.2,0.1c0.1,0,0.1,0,0.2,0c0.2,0,0.3,0,0.5-0.1
				c0.1-0.1,0.2-0.2,0.3-0.3c0.1-0.1,0.1-0.3,0.1-0.4c0-0.2,0-0.4-0.1-0.5c-0.1-0.1-0.2-0.3-0.4-0.3c-0.2-0.1-0.4-0.1-0.7-0.1
				c-0.3,0-0.5,0-0.7,0.1c-0.2,0.1-0.3,0.2-0.4,0.3c-0.1,0.1-0.1,0.3-0.1,0.5c0,0.2,0,0.5,0.1,0.6c0.1,0.2,0.2,0.3,0.4,0.4l-0.3,1.3
				c-0.4-0.2-0.7-0.5-1-0.9c-0.2-0.4-0.3-0.8-0.3-1.4C309.7,563.7,309.8,563.3,309.9,562.9z"/>
			<path class="st8" d="M309.8,573.9v-1.4h2.6c0.3,0,0.5,0,0.6-0.1c0.1-0.1,0.2-0.2,0.2-0.4c0-0.1,0-0.2-0.1-0.3
				c-0.1-0.1-0.1-0.2-0.3-0.2c-0.1-0.1-0.3-0.1-0.4-0.1h-2.6v-1.4h2.6c0.3,0,0.5,0,0.6-0.1c0.1-0.1,0.2-0.2,0.2-0.4
				c0-0.1,0-0.2-0.1-0.3c-0.1-0.1-0.1-0.2-0.3-0.2c-0.1-0.1-0.3-0.1-0.4-0.1h-2.6v-1.4h4.3v1.4h-0.6c0.2,0.1,0.4,0.3,0.5,0.5
				c0.1,0.2,0.2,0.5,0.2,0.8c0,0.3-0.1,0.6-0.2,0.8c-0.1,0.2-0.3,0.3-0.5,0.4c0.2,0.2,0.4,0.3,0.5,0.6c0.1,0.2,0.2,0.5,0.2,0.8
				c0,0.3-0.1,0.6-0.2,0.8c-0.1,0.2-0.3,0.3-0.6,0.4c-0.2,0.1-0.5,0.1-0.9,0.1H309.8z"/>
			<path class="st8" d="M313.1,575.1c0.3,0.2,0.6,0.5,0.8,0.9c0.2,0.4,0.3,0.8,0.3,1.3c0,0.5-0.1,0.9-0.3,1.3
				c-0.2,0.4-0.4,0.7-0.8,0.9s-0.7,0.3-1.2,0.3c-0.4,0-0.8-0.1-1.2-0.3c-0.3-0.2-0.6-0.5-0.8-0.9c-0.2-0.4-0.3-0.8-0.3-1.3
				c0-0.5,0.1-0.9,0.3-1.3c0.2-0.4,0.4-0.7,0.8-0.9c0.3-0.2,0.7-0.3,1.2-0.3C312.4,574.7,312.8,574.8,313.1,575.1z M311.3,576.3
				c-0.2,0.1-0.3,0.2-0.4,0.4c-0.1,0.1-0.1,0.3-0.1,0.5c0,0.2,0,0.3,0.1,0.5c0.1,0.2,0.2,0.3,0.4,0.4c0.2,0.1,0.3,0.1,0.6,0.1
				c0.2,0,0.4,0,0.6-0.1c0.2-0.1,0.3-0.2,0.4-0.4c0.1-0.2,0.1-0.3,0.1-0.5c0-0.2,0-0.4-0.1-0.5c-0.1-0.1-0.2-0.3-0.4-0.4
				c-0.2-0.1-0.4-0.1-0.6-0.1C311.7,576.2,311.5,576.2,311.3,576.3z"/>
			<path class="st8" d="M309.8,581.9v-1.4h4.3v1.4H309.8z M312.8,582.9c0-0.1,0.1-0.2,0.1-0.3c0-0.1,0-0.3-0.1-0.4
				c-0.1-0.1-0.2-0.2-0.3-0.2c-0.1-0.1-0.3-0.1-0.5-0.1l0.5-0.3c0.3,0,0.6,0.1,0.9,0.2c0.3,0.1,0.5,0.3,0.6,0.5
				c0.2,0.2,0.2,0.4,0.2,0.7c0,0.2,0,0.3-0.1,0.4c-0.1,0.1-0.1,0.3-0.3,0.3l-1.2-0.6C312.7,583,312.7,583,312.8,582.9z"/>
			<path class="st1" d="M316.3,589v5l-5.2-3v2.7h-1.4v-5.2l5.1,3V589H316.3z"/>
			<path class="st1" d="M313.1,594.3c0.3,0.2,0.6,0.5,0.8,0.9c0.2,0.4,0.3,0.8,0.3,1.3c0,0.5-0.1,0.9-0.3,1.3
				c-0.2,0.4-0.4,0.7-0.8,0.9c-0.3,0.2-0.7,0.3-1.2,0.3c-0.4,0-0.8-0.1-1.2-0.3c-0.3-0.2-0.6-0.5-0.8-0.9c-0.2-0.4-0.3-0.8-0.3-1.3
				c0-0.5,0.1-0.9,0.3-1.3c0.2-0.4,0.4-0.7,0.8-0.9c0.3-0.2,0.7-0.3,1.2-0.3C312.4,593.9,312.8,594.1,313.1,594.3z M311.3,595.5
				c-0.2,0.1-0.3,0.2-0.4,0.4c-0.1,0.1-0.1,0.3-0.1,0.5c0,0.2,0,0.3,0.1,0.5c0.1,0.2,0.2,0.3,0.4,0.4c0.2,0.1,0.3,0.1,0.6,0.1
				c0.2,0,0.4,0,0.6-0.1c0.2-0.1,0.3-0.2,0.4-0.4c0.1-0.2,0.1-0.3,0.1-0.5c0-0.2,0-0.4-0.1-0.5c-0.1-0.1-0.2-0.3-0.4-0.4
				c-0.2-0.1-0.4-0.1-0.6-0.1C311.7,595.4,311.5,595.4,311.3,595.5z"/>
			<path class="st1" d="M313,602.3c0.1-0.1,0.2-0.3,0.2-0.5c0-0.1,0-0.3-0.1-0.4c-0.1-0.1-0.2-0.2-0.3-0.3c-0.1-0.1-0.3-0.1-0.4-0.1
				h-2.6v-1.4h4.3v1.4h-0.6c0.2,0.1,0.4,0.3,0.5,0.5c0.1,0.2,0.2,0.5,0.2,0.8c0,0.5-0.1,0.9-0.4,1.2c-0.3,0.2-0.7,0.4-1.2,0.4h-2.8
				v-1.5h2.6C312.6,602.5,312.8,602.4,313,602.3z"/>
			<path class="st1" d="M309.9,605.9c0.2-0.4,0.4-0.6,0.8-0.8c0.3-0.2,0.7-0.3,1.2-0.3c0.5,0,0.9,0.1,1.2,0.3
				c0.3,0.2,0.6,0.5,0.8,0.8c0.2,0.4,0.3,0.8,0.3,1.3c0,0.5-0.1,0.9-0.3,1.3c-0.2,0.3-0.4,0.6-0.7,0.8s-0.7,0.3-1.2,0.3
				c-0.1,0-0.1,0-0.2,0c-0.1,0-0.1,0-0.2,0v-3.9h0.8v2.6l-0.4-0.3c0,0,0.1,0.1,0.2,0.1c0.1,0,0.1,0,0.2,0c0.2,0,0.3,0,0.5-0.1
				c0.1-0.1,0.2-0.2,0.3-0.3c0.1-0.1,0.1-0.3,0.1-0.4c0-0.2,0-0.4-0.1-0.5c-0.1-0.1-0.2-0.3-0.4-0.3c-0.2-0.1-0.4-0.1-0.7-0.1
				c-0.3,0-0.5,0-0.7,0.1c-0.2,0.1-0.3,0.2-0.4,0.3c-0.1,0.1-0.1,0.3-0.1,0.5c0,0.2,0,0.5,0.1,0.6c0.1,0.2,0.2,0.3,0.4,0.4l-0.3,1.3
				c-0.4-0.2-0.7-0.5-1-0.9c-0.2-0.4-0.3-0.8-0.3-1.4C309.7,606.7,309.8,606.3,309.9,605.9z"/>
			<path class="st8" d="M312.7,556.7l3.2,3.8h-2.7c-0.3,0-0.5-0.1-0.7-0.3l-3.2-3.8h2.7C312.2,556.4,312.5,556.5,312.7,556.7z"/>
			<path class="st8" d="M312.7,552.5l3.2,3.8h-2.7c-0.3,0-0.5-0.1-0.7-0.3l-3.2-3.8h2.7C312.2,552.2,312.5,552.3,312.7,552.5z"/>
			<circle class="st8" cx="310.5" cy="560.4" r="0.9"/>
			<polygon class="st8" points="307.7,584 307.7,585.5 314,589.1 314,587.7 			"/>
			<g>
				<polygon class="st8" points="311.8,586.4 314,585.5 314,584 310.4,585.7 				"/>
			</g>
		</g>
	</g>
	<circle class="st8" cx="312" cy="532.6" r="1.3"/>
</g>
<g>
	<g>
		<g>
			<path class="st8" d="M279.9,84.1c0.1-0.4,0.4-0.7,0.7-0.9c0.3-0.2,0.7-0.4,1.1-0.4c0.5-0.1,0.9,0,1.2,0.1
				c0.4,0.1,0.6,0.4,0.9,0.7c0.2,0.3,0.4,0.8,0.4,1.2c0.1,0.5,0,0.9-0.1,1.3c-0.1,0.4-0.3,0.7-0.6,0.9c-0.3,0.2-0.7,0.4-1.1,0.4
				c-0.1,0-0.1,0-0.2,0c-0.1,0-0.1,0-0.2,0l-0.5-3.9l0.8-0.1l0.3,2.6l-0.5-0.3c0,0,0.1,0,0.2,0.1c0.1,0,0.1,0,0.2,0
				c0.2,0,0.3-0.1,0.5-0.2c0.1-0.1,0.2-0.2,0.3-0.3c0.1-0.1,0.1-0.3,0.1-0.4c0-0.2-0.1-0.4-0.2-0.5c-0.1-0.1-0.3-0.2-0.5-0.3
				c-0.2,0-0.4-0.1-0.7,0c-0.3,0-0.5,0.1-0.7,0.2c-0.2,0.1-0.3,0.2-0.4,0.4c-0.1,0.2-0.1,0.3-0.1,0.6c0,0.2,0.1,0.5,0.2,0.6
				c0.1,0.2,0.3,0.3,0.5,0.4l-0.1,1.3c-0.4-0.2-0.8-0.4-1.1-0.8c-0.3-0.4-0.4-0.8-0.5-1.3C279.7,84.9,279.7,84.5,279.9,84.1z"/>
			<path class="st8" d="M281.1,95l-0.2-1.4l2.6-0.3c0.3,0,0.4-0.1,0.6-0.2c0.1-0.1,0.2-0.2,0.1-0.4c0-0.1-0.1-0.2-0.1-0.3
				c-0.1-0.1-0.2-0.2-0.3-0.2c-0.1,0-0.3,0-0.4,0l-2.6,0.3l-0.2-1.4l2.6-0.3c0.3,0,0.4-0.1,0.6-0.2c0.1-0.1,0.2-0.2,0.1-0.4
				c0-0.1-0.1-0.2-0.1-0.3c-0.1-0.1-0.2-0.2-0.3-0.2c-0.1,0-0.3,0-0.4,0l-2.6,0.3l-0.2-1.3l4.3-0.6l0.2,1.3l-0.6,0.1
				c0.2,0.1,0.4,0.2,0.6,0.4c0.2,0.2,0.3,0.4,0.3,0.7c0,0.3,0,0.6-0.1,0.8c-0.1,0.2-0.3,0.4-0.5,0.5c0.2,0.1,0.4,0.3,0.6,0.5
				c0.2,0.2,0.2,0.5,0.3,0.8c0,0.3,0,0.6-0.1,0.8c-0.1,0.2-0.3,0.4-0.5,0.5c-0.2,0.1-0.5,0.2-0.9,0.2L281.1,95z"/>
			<path class="st8" d="M284.5,95.7c0.4,0.2,0.7,0.4,0.9,0.8c0.2,0.3,0.4,0.7,0.4,1.2c0.1,0.5,0,0.9-0.1,1.3c-0.1,0.4-0.4,0.7-0.7,1
				s-0.7,0.4-1.1,0.5c-0.4,0.1-0.8,0-1.2-0.2c-0.4-0.2-0.7-0.4-0.9-0.8c-0.2-0.3-0.4-0.7-0.4-1.2c-0.1-0.5,0-0.9,0.1-1.3
				c0.1-0.4,0.4-0.7,0.7-1c0.3-0.3,0.7-0.4,1.1-0.5C283.8,95.5,284.2,95.6,284.5,95.7z M283,97.2c-0.1,0.1-0.3,0.2-0.3,0.4
				c-0.1,0.2-0.1,0.3-0.1,0.5c0,0.2,0.1,0.3,0.2,0.5c0.1,0.1,0.2,0.2,0.4,0.3c0.2,0.1,0.4,0.1,0.6,0.1c0.2,0,0.4-0.1,0.6-0.2
				c0.1-0.1,0.3-0.2,0.3-0.4c0.1-0.2,0.1-0.3,0.1-0.5c0-0.2-0.1-0.3-0.2-0.5c-0.1-0.1-0.2-0.2-0.4-0.3c-0.2-0.1-0.4-0.1-0.6-0.1
				C283.3,97,283.1,97.1,283,97.2z"/>
			<path class="st8" d="M282.1,102.9l-0.2-1.4l4.3-0.6l0.2,1.4L282.1,102.9z M285.2,103.5c0-0.1,0-0.2,0-0.3c0-0.1-0.1-0.3-0.2-0.3
				s-0.2-0.2-0.4-0.2c-0.1,0-0.3,0-0.5,0l0.4-0.4c0.3,0,0.6,0,0.9,0.1c0.3,0.1,0.5,0.2,0.7,0.4c0.2,0.2,0.3,0.4,0.3,0.6
				c0,0.2,0,0.3,0,0.5c0,0.1-0.1,0.3-0.2,0.4l-1.3-0.4C285.2,103.7,285.2,103.6,285.2,103.5z"/>
			<path class="st1" d="M289.5,109.1l0.7,5l-5.5-2.3l0.4,2.7l-1.3,0.2l-0.7-5.2l5.5,2.3l-0.3-2.5L289.5,109.1z"/>
			<path class="st1" d="M287,114.8c0.4,0.2,0.7,0.4,0.9,0.8c0.2,0.3,0.4,0.7,0.4,1.2c0.1,0.5,0,0.9-0.1,1.3c-0.1,0.4-0.4,0.7-0.7,1
				c-0.3,0.3-0.7,0.4-1.1,0.5c-0.4,0.1-0.8,0-1.2-0.2c-0.4-0.2-0.7-0.4-0.9-0.8s-0.4-0.7-0.4-1.2c-0.1-0.5,0-0.9,0.1-1.3
				c0.1-0.4,0.4-0.7,0.7-1c0.3-0.3,0.7-0.4,1.1-0.5C286.3,114.6,286.7,114.6,287,114.8z M285.4,116.3c-0.1,0.1-0.3,0.2-0.3,0.4
				c-0.1,0.2-0.1,0.3-0.1,0.5c0,0.2,0.1,0.3,0.2,0.5c0.1,0.1,0.2,0.2,0.4,0.3c0.2,0.1,0.4,0.1,0.6,0.1c0.2,0,0.4-0.1,0.6-0.2
				c0.1-0.1,0.3-0.2,0.3-0.4c0.1-0.2,0.1-0.3,0.1-0.5c0-0.2-0.1-0.3-0.2-0.5c-0.1-0.1-0.2-0.2-0.4-0.3c-0.2-0.1-0.4-0.1-0.6-0.1
				C285.8,116.1,285.6,116.1,285.4,116.3z"/>
			<path class="st1" d="M287.9,122.8c0.1-0.1,0.2-0.3,0.1-0.5c0-0.1-0.1-0.3-0.1-0.4c-0.1-0.1-0.2-0.2-0.3-0.2c-0.1,0-0.3-0.1-0.4,0
				l-2.6,0.3l-0.2-1.4l4.3-0.6l0.2,1.4l-0.6,0.1c0.3,0.1,0.5,0.2,0.6,0.4c0.2,0.2,0.3,0.5,0.3,0.8c0.1,0.5,0,0.9-0.3,1.2
				c-0.3,0.3-0.6,0.4-1.1,0.5l-2.7,0.4l-0.2-1.5l2.6-0.3C287.6,123,287.8,122.9,287.9,122.8z"/>
			<path class="st1" d="M285.4,126.8c0.1-0.4,0.4-0.7,0.7-0.9c0.3-0.2,0.7-0.4,1.1-0.4c0.5-0.1,0.9,0,1.2,0.1
				c0.4,0.1,0.6,0.4,0.9,0.7c0.2,0.3,0.4,0.8,0.4,1.2c0.1,0.5,0,0.9-0.1,1.3c-0.1,0.4-0.3,0.7-0.6,0.9c-0.3,0.2-0.7,0.4-1.1,0.4
				c-0.1,0-0.1,0-0.2,0c-0.1,0-0.1,0-0.2,0l-0.5-3.9l0.8-0.1l0.3,2.6l-0.5-0.3c0,0,0.1,0,0.2,0.1c0.1,0,0.1,0,0.2,0
				c0.2,0,0.3-0.1,0.5-0.2c0.1-0.1,0.2-0.2,0.3-0.3c0.1-0.1,0.1-0.3,0.1-0.4c0-0.2-0.1-0.4-0.2-0.5c-0.1-0.1-0.3-0.2-0.5-0.3
				c-0.2,0-0.4-0.1-0.7,0c-0.3,0-0.5,0.1-0.7,0.2c-0.2,0.1-0.3,0.2-0.4,0.4c-0.1,0.2-0.1,0.3-0.1,0.6c0,0.2,0.1,0.5,0.2,0.6
				c0.1,0.2,0.3,0.3,0.5,0.4l-0.1,1.3c-0.4-0.2-0.8-0.4-1.1-0.8c-0.3-0.4-0.4-0.8-0.5-1.3C285.2,127.6,285.3,127.1,285.4,126.8z"/>
			<path class="st8" d="M281.7,77.6l3.7,3.4l-2.7,0.4c-0.3,0-0.5-0.1-0.7-0.2l-3.7-3.4l2.7-0.4C281.3,77.3,281.5,77.4,281.7,77.6z"
				/>
			<path class="st8" d="M281.2,73.5l3.7,3.4l-2.7,0.4c-0.3,0-0.5-0.1-0.7-0.2l-3.7-3.4l2.7-0.4C280.7,73.2,281,73.3,281.2,73.5z"/>
			<circle class="st8" cx="280.1" cy="81.6" r="0.9"/>
			<polygon class="st8" points="280.4,105.3 280.6,106.7 287.3,109.6 287.1,108.1 			"/>
			<g>
				<polygon class="st8" points="284.7,107.2 286.8,106 286.6,104.4 283.3,106.6 				"/>
			</g>
		</g>
	</g>
	<g>
		<g>
			<path class="st8" d="M292,177.3c0.1-0.4,0.4-0.7,0.7-0.9c0.3-0.2,0.7-0.4,1.1-0.4c0.5-0.1,0.9,0,1.2,0.1c0.4,0.1,0.6,0.4,0.9,0.7
				c0.2,0.3,0.4,0.8,0.4,1.2c0.1,0.5,0,0.9-0.1,1.3c-0.1,0.4-0.3,0.7-0.6,0.9c-0.3,0.2-0.7,0.4-1.1,0.4c-0.1,0-0.1,0-0.2,0
				c-0.1,0-0.1,0-0.2,0l-0.5-3.9l0.8-0.1l0.3,2.6l-0.5-0.3c0,0,0.1,0,0.2,0.1c0.1,0,0.1,0,0.2,0c0.2,0,0.3-0.1,0.5-0.2
				c0.1-0.1,0.2-0.2,0.3-0.3c0.1-0.1,0.1-0.3,0.1-0.4c0-0.2-0.1-0.4-0.2-0.5c-0.1-0.1-0.3-0.2-0.5-0.3c-0.2,0-0.4-0.1-0.7,0
				c-0.3,0-0.5,0.1-0.7,0.2c-0.2,0.1-0.3,0.2-0.4,0.4c-0.1,0.2-0.1,0.3-0.1,0.6c0,0.2,0.1,0.5,0.2,0.6c0.1,0.2,0.3,0.3,0.5,0.4
				l-0.1,1.3c-0.4-0.2-0.8-0.4-1.1-0.8c-0.3-0.4-0.4-0.8-0.5-1.3C291.8,178.2,291.9,177.7,292,177.3z"/>
			<path class="st8" d="M293.3,188.3l-0.2-1.4l2.6-0.3c0.3,0,0.4-0.1,0.6-0.2c0.1-0.1,0.2-0.2,0.1-0.4c0-0.1-0.1-0.2-0.1-0.3
				c-0.1-0.1-0.2-0.2-0.3-0.2c-0.1,0-0.3,0-0.4,0l-2.6,0.3l-0.2-1.4l2.6-0.3c0.3,0,0.4-0.1,0.6-0.2c0.1-0.1,0.2-0.2,0.1-0.4
				c0-0.1-0.1-0.2-0.1-0.3c-0.1-0.1-0.2-0.2-0.3-0.2c-0.1,0-0.3,0-0.4,0l-2.6,0.3l-0.2-1.3l4.3-0.6l0.2,1.3l-0.6,0.1
				c0.2,0.1,0.4,0.2,0.6,0.4c0.2,0.2,0.3,0.4,0.3,0.7c0,0.3,0,0.6-0.1,0.8c-0.1,0.2-0.3,0.4-0.5,0.5c0.2,0.1,0.4,0.3,0.6,0.5
				c0.2,0.2,0.2,0.5,0.3,0.8c0,0.3,0,0.6-0.1,0.8c-0.1,0.2-0.3,0.4-0.5,0.5c-0.2,0.1-0.5,0.2-0.9,0.2L293.3,188.3z"/>
			<path class="st8" d="M296.7,189c0.4,0.2,0.7,0.4,0.9,0.8c0.2,0.3,0.4,0.7,0.4,1.2c0.1,0.5,0,0.9-0.1,1.3c-0.1,0.4-0.4,0.7-0.7,1
				c-0.3,0.3-0.7,0.4-1.1,0.5c-0.4,0.1-0.8,0-1.2-0.2c-0.4-0.2-0.7-0.4-0.9-0.8c-0.2-0.3-0.4-0.7-0.4-1.2c-0.1-0.5,0-0.9,0.1-1.3
				c0.1-0.4,0.4-0.7,0.7-1c0.3-0.3,0.7-0.4,1.1-0.5C295.9,188.8,296.4,188.8,296.7,189z M295.1,190.5c-0.1,0.1-0.3,0.2-0.3,0.4
				c-0.1,0.2-0.1,0.3-0.1,0.5c0,0.2,0.1,0.3,0.2,0.5c0.1,0.1,0.2,0.2,0.4,0.3c0.2,0.1,0.4,0.1,0.6,0.1c0.2,0,0.4-0.1,0.6-0.2
				c0.1-0.1,0.3-0.2,0.3-0.4s0.1-0.3,0.1-0.5c0-0.2-0.1-0.3-0.2-0.5s-0.2-0.2-0.4-0.3c-0.2-0.1-0.4-0.1-0.6-0.1
				C295.5,190.3,295.3,190.4,295.1,190.5z"/>
			<path class="st8" d="M294.3,196.2l-0.2-1.4l4.3-0.6l0.2,1.4L294.3,196.2z M297.4,196.8c0-0.1,0-0.2,0-0.3c0-0.1-0.1-0.3-0.2-0.3
				c-0.1-0.1-0.2-0.2-0.4-0.2c-0.1,0-0.3,0-0.5,0l0.4-0.4c0.3,0,0.6,0,0.9,0.1c0.3,0.1,0.5,0.2,0.7,0.4c0.2,0.2,0.3,0.4,0.3,0.6
				c0,0.2,0,0.3,0,0.5c0,0.1-0.1,0.3-0.2,0.4l-1.3-0.4C297.3,197,297.4,196.9,297.4,196.8z"/>
			<path class="st1" d="M301.7,202.4l0.7,5l-5.5-2.3l0.4,2.7l-1.3,0.2l-0.7-5.2l5.5,2.3l-0.3-2.5L301.7,202.4z"/>
			<path class="st1" d="M299.2,208c0.4,0.2,0.7,0.4,0.9,0.8c0.2,0.3,0.4,0.7,0.4,1.2c0.1,0.5,0,0.9-0.1,1.3c-0.1,0.4-0.4,0.7-0.7,1
				s-0.7,0.4-1.1,0.5c-0.4,0.1-0.8,0-1.2-0.2c-0.4-0.2-0.7-0.4-0.9-0.8c-0.2-0.3-0.4-0.7-0.4-1.2c-0.1-0.5,0-0.9,0.1-1.3
				c0.1-0.4,0.4-0.7,0.7-1c0.3-0.3,0.7-0.4,1.1-0.5C298.4,207.8,298.8,207.9,299.2,208z M297.6,209.5c-0.1,0.1-0.3,0.2-0.3,0.4
				c-0.1,0.2-0.1,0.3-0.1,0.5c0,0.2,0.1,0.3,0.2,0.5c0.1,0.1,0.2,0.2,0.4,0.3c0.2,0.1,0.4,0.1,0.6,0.1c0.2,0,0.4-0.1,0.6-0.2
				c0.1-0.1,0.3-0.2,0.3-0.4c0.1-0.2,0.1-0.3,0.1-0.5c0-0.2-0.1-0.3-0.2-0.5c-0.1-0.1-0.2-0.2-0.4-0.3c-0.2-0.1-0.4-0.1-0.6-0.1
				C297.9,209.3,297.8,209.4,297.6,209.5z"/>
			<path class="st1" d="M300.1,216.1c0.1-0.1,0.2-0.3,0.1-0.5c0-0.1-0.1-0.3-0.1-0.4c-0.1-0.1-0.2-0.2-0.3-0.2c-0.1,0-0.3-0.1-0.4,0
				l-2.6,0.3l-0.2-1.4l4.3-0.6l0.2,1.4l-0.6,0.1c0.3,0.1,0.5,0.2,0.6,0.4c0.2,0.2,0.3,0.5,0.3,0.8c0.1,0.5,0,0.9-0.3,1.2
				c-0.3,0.3-0.6,0.4-1.1,0.5l-2.7,0.4l-0.2-1.5l2.6-0.3C299.8,216.2,300,216.2,300.1,216.1z"/>
			<path class="st1" d="M297.6,220c0.1-0.4,0.4-0.7,0.7-0.9c0.3-0.2,0.7-0.4,1.1-0.4c0.5-0.1,0.9,0,1.2,0.1c0.4,0.1,0.6,0.4,0.9,0.7
				c0.2,0.3,0.4,0.8,0.4,1.2c0.1,0.5,0,0.9-0.1,1.3c-0.1,0.4-0.3,0.7-0.6,0.9c-0.3,0.2-0.7,0.4-1.1,0.4c-0.1,0-0.1,0-0.2,0
				c-0.1,0-0.1,0-0.2,0l-0.5-3.9l0.8-0.1l0.3,2.6l-0.5-0.3c0,0,0.1,0,0.2,0.1c0.1,0,0.1,0,0.2,0c0.2,0,0.3-0.1,0.5-0.2
				c0.1-0.1,0.2-0.2,0.3-0.3c0.1-0.1,0.1-0.3,0.1-0.4c0-0.2-0.1-0.4-0.2-0.5c-0.1-0.1-0.3-0.2-0.5-0.3c-0.2,0-0.4-0.1-0.7,0
				c-0.3,0-0.5,0.1-0.7,0.2c-0.2,0.1-0.3,0.2-0.4,0.4c-0.1,0.2-0.1,0.3-0.1,0.6c0,0.2,0.1,0.5,0.2,0.6c0.1,0.2,0.3,0.3,0.5,0.4
				l-0.1,1.3c-0.4-0.2-0.8-0.4-1.1-0.8c-0.3-0.4-0.4-0.8-0.5-1.3C297.4,220.8,297.5,220.4,297.6,220z"/>
			<path class="st8" d="M293.9,170.9l3.7,3.4l-2.7,0.4c-0.3,0-0.5-0.1-0.7-0.2l-3.7-3.4l2.7-0.4
				C293.4,170.6,293.7,170.7,293.9,170.9z"/>
			<path class="st8" d="M293.4,166.7l3.7,3.4l-2.7,0.4c-0.3,0-0.5-0.1-0.7-0.2l-3.7-3.4l2.7-0.4
				C292.9,166.4,293.2,166.5,293.4,166.7z"/>
			<circle class="st8" cx="292.3" cy="174.8" r="0.9"/>
			<polygon class="st8" points="292.5,198.6 292.7,200 299.5,202.8 299.3,201.4 			"/>
			<g>
				<polygon class="st8" points="296.9,200.4 299,199.2 298.8,197.7 295.4,199.9 				"/>
			</g>
		</g>
	</g>
	<circle class="st8" cx="290.1" cy="147" r="1.3"/>
	<circle class="st8" cx="302" cy="238.4" r="1.3"/>
	<g>
		<defs>
			<path id="SVGID_00000090990481441650542730000008408376834853381290_" d="M310.9,255.1l-7,52c0,0-7.8-22.1-8.4-25.4
				c-0.6-3.4,0-21.3,0-21.3s4-5.4,6.9-6.8s5-2.1,5-2.1"/>
		</defs>
		<clipPath id="SVGID_00000181775505893837195560000007954812162830727059_">
			<use xlink:href="#SVGID_00000090990481441650542730000008408376834853381290_"  style="overflow:visible;"/>
		</clipPath>
		<g style="clip-path:url(#SVGID_00000181775505893837195560000007954812162830727059_);">
			<g>
				<path class="st8" d="M303.9,268.8c0.1-0.4,0.4-0.7,0.7-0.9c0.3-0.2,0.7-0.4,1.1-0.4c0.5-0.1,0.9,0,1.2,0.1
					c0.4,0.1,0.6,0.4,0.9,0.7c0.2,0.3,0.4,0.8,0.4,1.2c0.1,0.5,0,0.9-0.1,1.3c-0.1,0.4-0.3,0.7-0.6,0.9c-0.3,0.2-0.7,0.4-1.1,0.4
					c-0.1,0-0.1,0-0.2,0c-0.1,0-0.1,0-0.2,0l-0.5-3.9l0.8-0.1l0.3,2.6l-0.5-0.3c0,0,0.1,0,0.2,0.1c0.1,0,0.1,0,0.2,0
					c0.2,0,0.3-0.1,0.5-0.2c0.1-0.1,0.2-0.2,0.3-0.3c0.1-0.1,0.1-0.3,0.1-0.4c0-0.2-0.1-0.4-0.2-0.5c-0.1-0.1-0.3-0.2-0.5-0.3
					c-0.2,0-0.4-0.1-0.7,0c-0.3,0-0.5,0.1-0.7,0.2c-0.2,0.1-0.3,0.2-0.4,0.4c-0.1,0.2-0.1,0.3-0.1,0.6c0,0.2,0.1,0.5,0.2,0.6
					c0.1,0.2,0.3,0.3,0.5,0.4l-0.1,1.3c-0.4-0.2-0.8-0.4-1.1-0.8c-0.3-0.4-0.4-0.8-0.5-1.3C303.7,269.6,303.8,269.2,303.9,268.8z"/>
				<path class="st8" d="M305.1,279.7l-0.2-1.4l2.6-0.3c0.3,0,0.4-0.1,0.6-0.2c0.1-0.1,0.2-0.2,0.1-0.4c0-0.1-0.1-0.2-0.1-0.3
					c-0.1-0.1-0.2-0.2-0.3-0.2c-0.1,0-0.3,0-0.4,0l-2.6,0.3l-0.2-1.4l2.6-0.3c0.3,0,0.4-0.1,0.6-0.2c0.1-0.1,0.2-0.2,0.1-0.4
					c0-0.1-0.1-0.2-0.1-0.3c-0.1-0.1-0.2-0.2-0.3-0.2c-0.1,0-0.3,0-0.4,0l-2.6,0.3l-0.2-1.3l4.3-0.6l0.2,1.3l-0.6,0.1
					c0.2,0.1,0.4,0.2,0.6,0.4c0.2,0.2,0.3,0.4,0.3,0.7c0,0.3,0,0.6-0.1,0.8s-0.3,0.4-0.5,0.5c0.2,0.1,0.4,0.3,0.6,0.5
					c0.2,0.2,0.2,0.5,0.3,0.8c0,0.3,0,0.6-0.1,0.8c-0.1,0.2-0.3,0.4-0.5,0.5c-0.2,0.1-0.5,0.2-0.9,0.2L305.1,279.7z"/>
				<path class="st8" d="M308.6,280.4c0.4,0.2,0.7,0.4,0.9,0.8c0.2,0.3,0.4,0.7,0.4,1.2c0.1,0.5,0,0.9-0.1,1.3
					c-0.1,0.4-0.4,0.7-0.7,1s-0.7,0.4-1.1,0.5c-0.4,0.1-0.8,0-1.2-0.2c-0.4-0.2-0.7-0.4-0.9-0.8c-0.2-0.3-0.4-0.7-0.4-1.2
					c-0.1-0.5,0-0.9,0.1-1.3c0.1-0.4,0.4-0.7,0.7-1c0.3-0.3,0.7-0.4,1.1-0.5C307.8,280.2,308.2,280.3,308.6,280.4z M307,281.9
					c-0.1,0.1-0.3,0.2-0.3,0.4c-0.1,0.2-0.1,0.3-0.1,0.5c0,0.2,0.1,0.3,0.2,0.5c0.1,0.1,0.2,0.2,0.4,0.3c0.2,0.1,0.4,0.1,0.6,0.1
					c0.2,0,0.4-0.1,0.6-0.2c0.1-0.1,0.3-0.2,0.3-0.4c0.1-0.2,0.1-0.3,0.1-0.5c0-0.2-0.1-0.3-0.2-0.5s-0.2-0.2-0.4-0.3
					c-0.2-0.1-0.4-0.1-0.6-0.1C307.3,281.7,307.1,281.8,307,281.9z"/>
				<path class="st8" d="M306.2,287.6l-0.2-1.4l4.3-0.6l0.2,1.4L306.2,287.6z M309.3,288.2c0-0.1,0-0.2,0-0.3c0-0.1-0.1-0.3-0.2-0.3
					c-0.1-0.1-0.2-0.2-0.4-0.2c-0.1,0-0.3,0-0.5,0l0.4-0.4c0.3,0,0.6,0,0.9,0.1c0.3,0.1,0.5,0.2,0.7,0.4c0.2,0.2,0.3,0.4,0.3,0.6
					c0,0.2,0,0.3,0,0.5c0,0.1-0.1,0.3-0.2,0.4l-1.3-0.4C309.2,288.4,309.2,288.3,309.3,288.2z"/>
				<path class="st1" d="M313.5,293.8l0.7,5l-5.5-2.3l0.4,2.7l-1.3,0.2l-0.7-5.2l5.5,2.3l-0.3-2.5L313.5,293.8z"/>
				<path class="st1" d="M311.1,299.5c0.4,0.2,0.7,0.4,0.9,0.8c0.2,0.3,0.4,0.7,0.4,1.2c0.1,0.5,0,0.9-0.1,1.3
					c-0.1,0.4-0.4,0.7-0.7,1c-0.3,0.3-0.7,0.4-1.1,0.5c-0.4,0.1-0.8,0-1.2-0.2c-0.4-0.2-0.7-0.4-0.9-0.8c-0.2-0.3-0.4-0.7-0.4-1.2
					c-0.1-0.5,0-0.9,0.1-1.3c0.1-0.4,0.4-0.7,0.7-1c0.3-0.3,0.7-0.4,1.1-0.5C310.3,299.2,310.7,299.3,311.1,299.5z M309.5,300.9
					c-0.1,0.1-0.3,0.2-0.3,0.4c-0.1,0.2-0.1,0.3-0.1,0.5c0,0.2,0.1,0.3,0.2,0.5c0.1,0.1,0.2,0.2,0.4,0.3c0.2,0.1,0.4,0.1,0.6,0.1
					c0.2,0,0.4-0.1,0.6-0.2c0.1-0.1,0.3-0.2,0.3-0.4c0.1-0.2,0.1-0.3,0.1-0.5c0-0.2-0.1-0.3-0.2-0.5c-0.1-0.1-0.2-0.2-0.4-0.3
					c-0.2-0.1-0.4-0.1-0.6-0.1C309.8,300.8,309.6,300.8,309.5,300.9z"/>
				<path class="st1" d="M312,307.5c0.1-0.1,0.2-0.3,0.1-0.5c0-0.1-0.1-0.3-0.1-0.4c-0.1-0.1-0.2-0.2-0.3-0.2c-0.1,0-0.3-0.1-0.4,0
					l-2.6,0.3l-0.2-1.4l4.3-0.6l0.2,1.4l-0.6,0.1c0.3,0.1,0.5,0.2,0.6,0.4c0.2,0.2,0.3,0.5,0.3,0.8c0.1,0.5,0,0.9-0.3,1.2
					c-0.3,0.3-0.6,0.4-1.1,0.5l-2.7,0.4l-0.2-1.5l2.6-0.3C311.7,307.7,311.9,307.6,312,307.5z"/>
				<path class="st1" d="M309.5,311.4c0.1-0.4,0.4-0.7,0.7-0.9c0.3-0.2,0.7-0.4,1.1-0.4c0.5-0.1,0.9,0,1.2,0.1
					c0.4,0.1,0.6,0.4,0.9,0.7c0.2,0.3,0.4,0.8,0.4,1.2c0.1,0.5,0,0.9-0.1,1.3c-0.1,0.4-0.3,0.7-0.6,0.9c-0.3,0.2-0.7,0.4-1.1,0.4
					c-0.1,0-0.1,0-0.2,0c-0.1,0-0.1,0-0.2,0l-0.5-3.9l0.8-0.1l0.3,2.6l-0.5-0.3c0,0,0.1,0,0.2,0.1c0.1,0,0.1,0,0.2,0
					c0.2,0,0.3-0.1,0.5-0.2c0.1-0.1,0.2-0.2,0.3-0.3c0.1-0.1,0.1-0.3,0.1-0.4c0-0.2-0.1-0.4-0.2-0.5c-0.1-0.1-0.3-0.2-0.5-0.3
					c-0.2,0-0.4-0.1-0.7,0c-0.3,0-0.5,0.1-0.7,0.2c-0.2,0.1-0.3,0.2-0.4,0.4c-0.1,0.2-0.1,0.3-0.1,0.6c0,0.2,0.1,0.5,0.2,0.6
					c0.1,0.2,0.3,0.3,0.5,0.4l-0.1,1.3c-0.4-0.2-0.8-0.4-1.1-0.8c-0.3-0.4-0.4-0.8-0.5-1.3C309.3,312.3,309.3,311.8,309.5,311.4z"/>
				<path class="st8" d="M305.8,262.3l3.7,3.4l-2.7,0.4c-0.3,0-0.5-0.1-0.7-0.2l-3.7-3.4l2.7-0.4C305.3,262,305.6,262.1,305.8,262.3
					z"/>
				<path class="st8" d="M305.2,258.1l3.7,3.4l-2.7,0.4c-0.3,0-0.5-0.1-0.7-0.2l-3.7-3.4l2.7-0.4C304.8,257.9,305,258,305.2,258.1z"
					/>
				<circle class="st8" cx="304.2" cy="266.3" r="0.9"/>
				<polygon class="st8" points="304.4,290 304.6,291.4 311.3,294.3 311.2,292.8 				"/>
				<g>
					<polygon class="st8" points="308.7,291.9 310.9,290.7 310.7,289.1 307.3,291.3 					"/>
				</g>
			</g>
		</g>
	</g>
</g>
<circle class="st8" cx="172.8" cy="106.2" r="1.3"/>
<g>
	<defs>
		<path id="SVGID_00000039130200096910774660000002949728137632630962_" d="M182.9,174.9h-20.2V44c0-0.5,0.4-0.9,0.9-0.9H182
			c0.5,0,0.9,0.4,0.9,0.9V174.9z"/>
	</defs>
	<clipPath id="SVGID_00000057137890931692691820000005707917780979237263_">
		<use xlink:href="#SVGID_00000039130200096910774660000002949728137632630962_"  style="overflow:visible;"/>
	</clipPath>
	<g style="clip-path:url(#SVGID_00000057137890931692691820000005707917780979237263_);">
		<g>
			<path class="st8" d="M170.8,35.3c0.2-0.4,0.4-0.6,0.8-0.8c0.3-0.2,0.7-0.3,1.2-0.3c0.5,0,0.9,0.1,1.2,0.3
				c0.3,0.2,0.6,0.5,0.8,0.8c0.2,0.4,0.3,0.8,0.3,1.3c0,0.5-0.1,0.9-0.3,1.3c-0.2,0.3-0.4,0.6-0.7,0.8c-0.3,0.2-0.7,0.3-1.2,0.3
				c-0.1,0-0.1,0-0.2,0c-0.1,0-0.1,0-0.2,0V35h0.8v2.6l-0.4-0.3c0,0,0.1,0.1,0.2,0.1c0.1,0,0.1,0,0.2,0c0.2,0,0.3,0,0.5-0.1
				c0.1-0.1,0.2-0.2,0.3-0.3c0.1-0.1,0.1-0.3,0.1-0.4c0-0.2,0-0.4-0.1-0.5c-0.1-0.1-0.2-0.3-0.4-0.3c-0.2-0.1-0.4-0.1-0.7-0.1
				c-0.3,0-0.5,0-0.7,0.1c-0.2,0.1-0.3,0.2-0.4,0.3c-0.1,0.1-0.1,0.3-0.1,0.5c0,0.2,0,0.5,0.1,0.6c0.1,0.2,0.2,0.3,0.4,0.4l-0.3,1.3
				c-0.4-0.2-0.7-0.5-1-0.9c-0.2-0.4-0.3-0.8-0.3-1.4C170.5,36.1,170.6,35.7,170.8,35.3z"/>
			<path class="st8" d="M170.6,46.3v-1.4h2.6c0.3,0,0.5,0,0.6-0.1c0.1-0.1,0.2-0.2,0.2-0.4c0-0.1,0-0.2-0.1-0.3
				c-0.1-0.1-0.1-0.2-0.3-0.2c-0.1-0.1-0.3-0.1-0.4-0.1h-2.6v-1.4h2.6c0.3,0,0.5,0,0.6-0.1c0.1-0.1,0.2-0.2,0.2-0.4
				c0-0.1,0-0.2-0.1-0.3c-0.1-0.1-0.1-0.2-0.3-0.2c-0.1-0.1-0.3-0.1-0.4-0.1h-2.6v-1.4h4.3v1.4h-0.6c0.2,0.1,0.4,0.3,0.5,0.5
				c0.1,0.2,0.2,0.5,0.2,0.8c0,0.3-0.1,0.6-0.2,0.8s-0.3,0.3-0.5,0.4c0.2,0.2,0.4,0.3,0.5,0.6c0.1,0.2,0.2,0.5,0.2,0.8
				c0,0.3-0.1,0.6-0.2,0.8c-0.1,0.2-0.3,0.3-0.6,0.4c-0.2,0.1-0.5,0.1-0.9,0.1H170.6z"/>
			<path class="st8" d="M173.9,47.5c0.3,0.2,0.6,0.5,0.8,0.9c0.2,0.4,0.3,0.8,0.3,1.3c0,0.5-0.1,0.9-0.3,1.3
				c-0.2,0.4-0.4,0.7-0.8,0.9s-0.7,0.3-1.2,0.3c-0.4,0-0.8-0.1-1.2-0.3c-0.3-0.2-0.6-0.5-0.8-0.9c-0.2-0.4-0.3-0.8-0.3-1.3
				c0-0.5,0.1-0.9,0.3-1.3c0.2-0.4,0.4-0.7,0.8-0.9c0.3-0.2,0.7-0.3,1.2-0.3C173.2,47.2,173.6,47.3,173.9,47.5z M172.2,48.7
				c-0.2,0.1-0.3,0.2-0.4,0.4c-0.1,0.1-0.1,0.3-0.1,0.5c0,0.2,0,0.3,0.1,0.5c0.1,0.2,0.2,0.3,0.4,0.4c0.2,0.1,0.3,0.1,0.6,0.1
				c0.2,0,0.4,0,0.6-0.1c0.2-0.1,0.3-0.2,0.4-0.4c0.1-0.2,0.1-0.3,0.1-0.5c0-0.2,0-0.4-0.1-0.5c-0.1-0.1-0.2-0.3-0.4-0.4
				c-0.2-0.1-0.4-0.1-0.6-0.1C172.5,48.6,172.3,48.7,172.2,48.7z"/>
			<path class="st8" d="M170.6,54.3v-1.4h4.3v1.4H170.6z M173.6,55.3c0-0.1,0.1-0.2,0.1-0.3c0-0.1,0-0.3-0.1-0.4s-0.2-0.2-0.3-0.2
				c-0.1-0.1-0.3-0.1-0.5-0.1l0.5-0.3c0.3,0,0.6,0.1,0.9,0.2c0.3,0.1,0.5,0.3,0.6,0.5c0.2,0.2,0.2,0.4,0.2,0.7c0,0.2,0,0.3-0.1,0.4
				c-0.1,0.1-0.1,0.3-0.3,0.3l-1.2-0.6C173.5,55.5,173.6,55.4,173.6,55.3z"/>
			<path class="st1" d="M177.1,61.4v5l-5.2-3v2.7h-1.4v-5.2l5.1,3v-2.5H177.1z"/>
			<path class="st1" d="M173.9,66.7c0.3,0.2,0.6,0.5,0.8,0.9c0.2,0.4,0.3,0.8,0.3,1.3c0,0.5-0.1,0.9-0.3,1.3
				c-0.2,0.4-0.4,0.7-0.8,0.9c-0.3,0.2-0.7,0.3-1.2,0.3c-0.4,0-0.8-0.1-1.2-0.3c-0.3-0.2-0.6-0.5-0.8-0.9c-0.2-0.4-0.3-0.8-0.3-1.3
				c0-0.5,0.1-0.9,0.3-1.3c0.2-0.4,0.4-0.7,0.8-0.9c0.3-0.2,0.7-0.3,1.2-0.3C173.2,66.4,173.6,66.5,173.9,66.7z M172.2,68
				c-0.2,0.1-0.3,0.2-0.4,0.4c-0.1,0.1-0.1,0.3-0.1,0.5c0,0.2,0,0.3,0.1,0.5c0.1,0.2,0.2,0.3,0.4,0.4c0.2,0.1,0.3,0.1,0.6,0.1
				c0.2,0,0.4,0,0.6-0.1c0.2-0.1,0.3-0.2,0.4-0.4c0.1-0.2,0.1-0.3,0.1-0.5c0-0.2,0-0.4-0.1-0.5c-0.1-0.1-0.2-0.3-0.4-0.4
				c-0.2-0.1-0.4-0.1-0.6-0.1C172.5,67.8,172.3,67.9,172.2,68z"/>
			<path class="st1" d="M173.8,74.8c0.1-0.1,0.2-0.3,0.2-0.5c0-0.1,0-0.3-0.1-0.4c-0.1-0.1-0.2-0.2-0.3-0.3
				c-0.1-0.1-0.3-0.1-0.4-0.1h-2.6v-1.4h4.3v1.4h-0.6c0.2,0.1,0.4,0.3,0.5,0.5c0.1,0.2,0.2,0.5,0.2,0.8c0,0.5-0.1,0.9-0.4,1.2
				c-0.3,0.2-0.7,0.4-1.2,0.4h-2.8v-1.5h2.6C173.5,74.9,173.7,74.8,173.8,74.8z"/>
			<path class="st1" d="M170.8,78.4c0.2-0.4,0.4-0.6,0.8-0.8c0.3-0.2,0.7-0.3,1.2-0.3c0.5,0,0.9,0.1,1.2,0.3
				c0.3,0.2,0.6,0.5,0.8,0.8c0.2,0.4,0.3,0.8,0.3,1.3c0,0.5-0.1,0.9-0.3,1.3c-0.2,0.3-0.4,0.6-0.7,0.8c-0.3,0.2-0.7,0.3-1.2,0.3
				c-0.1,0-0.1,0-0.2,0c-0.1,0-0.1,0-0.2,0V78h0.8v2.6l-0.4-0.3c0,0,0.1,0.1,0.2,0.1c0.1,0,0.1,0,0.2,0c0.2,0,0.3,0,0.5-0.1
				c0.1-0.1,0.2-0.2,0.3-0.3c0.1-0.1,0.1-0.3,0.1-0.4c0-0.2,0-0.4-0.1-0.5c-0.1-0.1-0.2-0.3-0.4-0.3c-0.2-0.1-0.4-0.1-0.7-0.1
				c-0.3,0-0.5,0-0.7,0.1c-0.2,0.1-0.3,0.2-0.4,0.3c-0.1,0.1-0.1,0.3-0.1,0.5c0,0.2,0,0.5,0.1,0.6c0.1,0.2,0.2,0.3,0.4,0.4l-0.3,1.3
				c-0.4-0.2-0.7-0.5-1-0.9c-0.2-0.4-0.3-0.8-0.3-1.4C170.5,79.2,170.6,78.7,170.8,78.4z"/>
			<path class="st8" d="M173.5,29.1l3.2,3.8H174c-0.3,0-0.5-0.1-0.7-0.3l-3.2-3.8h2.7C173.1,28.8,173.3,28.9,173.5,29.1z"/>
			<path class="st8" d="M173.5,25l3.2,3.8H174c-0.3,0-0.5-0.1-0.7-0.3l-3.2-3.8h2.7C173.1,24.6,173.3,24.7,173.5,25z"/>
			<circle class="st8" cx="171.4" cy="32.9" r="0.9"/>
			<polygon class="st8" points="168.6,56.5 168.6,57.9 174.9,61.6 174.9,60.1 			"/>
			<g>
				<polygon class="st8" points="172.6,58.9 174.9,57.9 174.9,56.4 171.3,58.1 				"/>
			</g>
		</g>
	</g>
</g>
<g>
	<path class="st3" d="M320.4,407.7h-15.7c-1.5,0-2.7-1.2-2.7-2.7v-16.4h21.1V405C323.2,406.5,321.9,407.7,320.4,407.7z"/>
	<path class="st3" d="M352.8,74.6c-1.8-3-3.3-5.8-4-9.1l-11-1.5c-0.6-0.1-1.1,0.3-1.2,0.8c0,0-34.6,255.3-34.6,255.8v71.9h21.1
		v-70.5l32.1-237.7C354.9,81.7,354.3,77.1,352.8,74.6z"/>
	<rect x="302" y="391.7" class="st3" width="21.1" height="0.9"/>
</g>
<g>
	<g>
		<g>
			<path class="st8" d="M334.2,148.4c0.2-0.3,0.5-0.6,0.9-0.7c0.4-0.2,0.8-0.2,1.2-0.1c0.5,0.1,0.8,0.2,1.1,0.4
				c0.3,0.2,0.5,0.5,0.7,0.9c0.1,0.4,0.2,0.8,0.1,1.3c-0.1,0.5-0.2,0.9-0.4,1.2c-0.2,0.3-0.5,0.5-0.8,0.7c-0.3,0.1-0.7,0.2-1.2,0.1
				c-0.1,0-0.1,0-0.2,0c-0.1,0-0.1,0-0.2,0l0.5-3.9l0.8,0.1l-0.4,2.6l-0.4-0.4c0,0,0.1,0.1,0.2,0.1c0.1,0,0.1,0,0.2,0.1
				c0.2,0,0.3,0,0.5,0c0.1,0,0.3-0.1,0.4-0.2c0.1-0.1,0.1-0.3,0.2-0.4c0-0.2,0-0.4-0.1-0.5c-0.1-0.2-0.2-0.3-0.4-0.4
				c-0.2-0.1-0.4-0.2-0.7-0.2c-0.3,0-0.5,0-0.7,0c-0.2,0-0.3,0.1-0.5,0.3c-0.1,0.1-0.2,0.3-0.2,0.5c0,0.2,0,0.5,0.1,0.7
				c0.1,0.2,0.2,0.3,0.4,0.5l-0.5,1.2c-0.4-0.3-0.7-0.6-0.8-1c-0.2-0.4-0.2-0.9-0.1-1.4C333.8,149.2,334,148.8,334.2,148.4z"/>
			<path class="st8" d="M332.6,159.3l0.2-1.4l2.6,0.4c0.3,0,0.5,0,0.6,0c0.1-0.1,0.2-0.2,0.3-0.4c0-0.1,0-0.2,0-0.3
				c0-0.1-0.1-0.2-0.2-0.3c-0.1-0.1-0.3-0.1-0.4-0.1l-2.6-0.4l0.2-1.4l2.6,0.4c0.3,0,0.5,0,0.6,0c0.1-0.1,0.2-0.2,0.3-0.4
				c0-0.1,0-0.2,0-0.3c0-0.1-0.1-0.2-0.2-0.3c-0.1-0.1-0.3-0.1-0.4-0.1l-2.6-0.4l0.2-1.3l4.2,0.6l-0.2,1.3l-0.6-0.1
				c0.2,0.1,0.4,0.3,0.5,0.6c0.1,0.2,0.1,0.5,0.1,0.8c0,0.3-0.1,0.6-0.3,0.8c-0.1,0.2-0.3,0.3-0.6,0.4c0.2,0.2,0.3,0.4,0.4,0.6
				c0.1,0.2,0.1,0.5,0.1,0.8c0,0.3-0.1,0.6-0.3,0.8c-0.2,0.2-0.4,0.3-0.6,0.3c-0.3,0.1-0.6,0.1-0.9,0L332.6,159.3z"/>
			<path class="st8" d="M335.7,160.9c0.3,0.3,0.5,0.6,0.7,1c0.1,0.4,0.2,0.8,0.1,1.3c-0.1,0.5-0.2,0.9-0.4,1.2
				c-0.2,0.3-0.5,0.6-0.9,0.8c-0.4,0.2-0.8,0.2-1.2,0.2c-0.4-0.1-0.8-0.2-1.1-0.5c-0.3-0.3-0.5-0.6-0.7-1c-0.1-0.4-0.2-0.8-0.1-1.3
				c0.1-0.5,0.2-0.9,0.4-1.2c0.2-0.3,0.5-0.6,0.9-0.8c0.4-0.2,0.8-0.2,1.2-0.2C335,160.5,335.4,160.6,335.7,160.9z M333.8,161.9
				c-0.2,0.1-0.3,0.2-0.4,0.3c-0.1,0.1-0.2,0.3-0.2,0.5c0,0.2,0,0.3,0.1,0.5c0.1,0.2,0.2,0.3,0.3,0.4c0.1,0.1,0.3,0.2,0.5,0.2
				c0.2,0,0.4,0,0.6-0.1c0.2-0.1,0.3-0.2,0.4-0.3c0.1-0.1,0.2-0.3,0.2-0.5c0-0.2,0-0.4-0.1-0.5c-0.1-0.2-0.2-0.3-0.3-0.4
				c-0.1-0.1-0.3-0.2-0.6-0.2C334.2,161.8,334,161.8,333.8,161.9z"/>
			<path class="st8" d="M331.5,167.2l0.2-1.4l4.2,0.6l-0.2,1.4L331.5,167.2z M334.3,168.6c0.1-0.1,0.1-0.2,0.1-0.3
				c0-0.1,0-0.3-0.1-0.4c-0.1-0.1-0.2-0.2-0.3-0.3c-0.1-0.1-0.3-0.1-0.5-0.2l0.5-0.3c0.3,0,0.6,0.2,0.9,0.3c0.2,0.2,0.4,0.4,0.6,0.6
				c0.1,0.2,0.2,0.5,0.1,0.7c0,0.2-0.1,0.3-0.2,0.4c-0.1,0.1-0.2,0.2-0.3,0.3l-1.1-0.8C334.2,168.7,334.3,168.7,334.3,168.6z"/>
			<path class="st1" d="M337,175.1l-0.7,5l-4.7-3.7l-0.4,2.7l-1.3-0.2l0.7-5.2l4.7,3.6l0.3-2.5L337,175.1z"/>
			<path class="st1" d="M333.1,179.9c0.3,0.3,0.5,0.6,0.7,1c0.1,0.4,0.2,0.8,0.1,1.3c-0.1,0.5-0.2,0.9-0.4,1.2
				c-0.2,0.3-0.5,0.6-0.9,0.8s-0.8,0.2-1.2,0.2c-0.4-0.1-0.8-0.2-1.1-0.5c-0.3-0.3-0.5-0.6-0.7-1s-0.2-0.8-0.1-1.3
				c0.1-0.5,0.2-0.9,0.4-1.2s0.5-0.6,0.9-0.8c0.4-0.2,0.8-0.2,1.2-0.2C332.4,179.5,332.8,179.7,333.1,179.9z M331.2,180.9
				c-0.2,0.1-0.3,0.2-0.4,0.3c-0.1,0.1-0.2,0.3-0.2,0.5c0,0.2,0,0.3,0.1,0.5c0.1,0.2,0.2,0.3,0.3,0.4c0.1,0.1,0.3,0.2,0.5,0.2
				c0.2,0,0.4,0,0.6-0.1c0.2-0.1,0.3-0.2,0.4-0.3c0.1-0.1,0.2-0.3,0.2-0.5c0-0.2,0-0.4-0.1-0.5c-0.1-0.2-0.2-0.3-0.3-0.4
				c-0.1-0.1-0.3-0.2-0.6-0.2C331.6,180.9,331.4,180.9,331.2,180.9z"/>
			<path class="st1" d="M331.9,187.9c0.1-0.1,0.2-0.2,0.3-0.4c0-0.1,0-0.3,0-0.4c0-0.1-0.1-0.2-0.2-0.3c-0.1-0.1-0.2-0.1-0.4-0.1
				l-2.6-0.4l0.2-1.4l4.2,0.6l-0.2,1.4l-0.6-0.1c0.2,0.2,0.4,0.3,0.5,0.6c0.1,0.2,0.1,0.5,0.1,0.8c-0.1,0.5-0.3,0.9-0.6,1.1
				c-0.3,0.2-0.7,0.3-1.2,0.2l-2.7-0.4l0.2-1.4l2.6,0.4C331.6,188,331.8,188,331.9,187.9z"/>
			<path class="st1" d="M328.4,191.1c0.2-0.3,0.5-0.6,0.9-0.7c0.4-0.2,0.8-0.2,1.2-0.1c0.5,0.1,0.8,0.2,1.1,0.4
				c0.3,0.2,0.5,0.5,0.7,0.9c0.1,0.4,0.2,0.8,0.1,1.3c-0.1,0.5-0.2,0.9-0.4,1.2c-0.2,0.3-0.5,0.5-0.8,0.7s-0.7,0.2-1.2,0.1
				c-0.1,0-0.1,0-0.2,0c-0.1,0-0.1,0-0.2,0l0.5-3.9l0.8,0.1l-0.4,2.6l-0.4-0.4c0,0,0.1,0.1,0.2,0.1c0.1,0,0.1,0,0.2,0.1
				c0.2,0,0.3,0,0.5,0c0.1,0,0.3-0.1,0.4-0.2c0.1-0.1,0.1-0.3,0.2-0.4c0-0.2,0-0.4-0.1-0.5c-0.1-0.2-0.2-0.3-0.4-0.4
				c-0.2-0.1-0.4-0.2-0.7-0.2c-0.3,0-0.5,0-0.7,0c-0.2,0-0.3,0.1-0.5,0.3c-0.1,0.1-0.2,0.3-0.2,0.5c0,0.2,0,0.5,0.1,0.7
				c0.1,0.2,0.2,0.3,0.4,0.5l-0.5,1.2c-0.4-0.3-0.7-0.6-0.8-1c-0.2-0.4-0.2-0.9-0.1-1.4C328.1,191.8,328.2,191.4,328.4,191.1z"/>
			<path class="st8" d="M337.7,142.7l2.7,4.2l-2.7-0.4c-0.3,0-0.5-0.2-0.7-0.4l-2.7-4.2l2.7,0.4
				C337.3,142.3,337.6,142.4,337.7,142.7z"/>
			<path class="st8" d="M338.3,138.5l2.7,4.2l-2.7-0.4c-0.3,0-0.5-0.2-0.7-0.4l-2.7-4.2l2.7,0.4
				C337.9,138.1,338.2,138.3,338.3,138.5z"/>
			<circle class="st8" cx="335.1" cy="146.1" r="0.9"/>
			<polygon class="st8" points="329.2,169.1 329,170.5 334.8,175 335,173.5 			"/>
			<g>
				<polygon class="st8" points="332.9,172 335.3,171.4 335.5,169.8 331.6,171 				"/>
			</g>
		</g>
	</g>
	<g>
		<g>
			<path class="st8" d="M321.6,241.6c0.2-0.3,0.5-0.6,0.9-0.7c0.4-0.2,0.8-0.2,1.2-0.1c0.5,0.1,0.8,0.2,1.1,0.4
				c0.3,0.2,0.5,0.5,0.7,0.9c0.1,0.4,0.2,0.8,0.1,1.3c-0.1,0.5-0.2,0.9-0.4,1.2c-0.2,0.3-0.5,0.5-0.8,0.7c-0.3,0.1-0.7,0.2-1.2,0.1
				c-0.1,0-0.1,0-0.2,0c-0.1,0-0.1,0-0.2,0l0.5-3.9l0.8,0.1l-0.4,2.6l-0.4-0.4c0,0,0.1,0.1,0.2,0.1c0.1,0,0.1,0,0.2,0.1
				c0.2,0,0.3,0,0.5,0c0.1,0,0.3-0.1,0.4-0.2c0.1-0.1,0.1-0.3,0.2-0.4c0-0.2,0-0.4-0.1-0.5c-0.1-0.2-0.2-0.3-0.4-0.4
				c-0.2-0.1-0.4-0.2-0.7-0.2c-0.3,0-0.5,0-0.7,0c-0.2,0-0.3,0.1-0.5,0.3c-0.1,0.1-0.2,0.3-0.2,0.5c0,0.2,0,0.5,0.1,0.7
				c0.1,0.2,0.2,0.3,0.4,0.5l-0.5,1.2c-0.4-0.3-0.7-0.6-0.8-1c-0.2-0.4-0.2-0.9-0.1-1.4C321.2,242.4,321.4,242,321.6,241.6z"/>
			<path class="st8" d="M319.9,252.5l0.2-1.4l2.6,0.4c0.3,0,0.5,0,0.6,0c0.1-0.1,0.2-0.2,0.3-0.4c0-0.1,0-0.2,0-0.3
				c0-0.1-0.1-0.2-0.2-0.3c-0.1-0.1-0.3-0.1-0.4-0.1l-2.6-0.4l0.2-1.4l2.6,0.4c0.3,0,0.5,0,0.6,0c0.1-0.1,0.2-0.2,0.3-0.4
				c0-0.1,0-0.2,0-0.3c0-0.1-0.1-0.2-0.2-0.3c-0.1-0.1-0.3-0.1-0.4-0.1l-2.6-0.4l0.2-1.3l4.2,0.6l-0.2,1.3l-0.6-0.1
				c0.2,0.1,0.4,0.3,0.5,0.6c0.1,0.2,0.1,0.5,0.1,0.8c0,0.3-0.1,0.6-0.3,0.8c-0.1,0.2-0.3,0.3-0.6,0.4c0.2,0.2,0.3,0.4,0.4,0.6
				c0.1,0.2,0.1,0.5,0.1,0.8c0,0.3-0.1,0.6-0.3,0.8c-0.2,0.2-0.4,0.3-0.6,0.3c-0.3,0.1-0.6,0.1-0.9,0L319.9,252.5z"/>
			<path class="st8" d="M323.1,254.1c0.3,0.3,0.5,0.6,0.7,1c0.1,0.4,0.2,0.8,0.1,1.3c-0.1,0.5-0.2,0.9-0.4,1.2
				c-0.2,0.3-0.5,0.6-0.9,0.8s-0.8,0.2-1.2,0.2c-0.4-0.1-0.8-0.2-1.1-0.5c-0.3-0.3-0.5-0.6-0.7-1c-0.1-0.4-0.2-0.8-0.1-1.3
				c0.1-0.5,0.2-0.9,0.4-1.2c0.2-0.3,0.5-0.6,0.9-0.8c0.4-0.2,0.8-0.2,1.2-0.2C322.4,253.7,322.8,253.8,323.1,254.1z M321.2,255.1
				c-0.2,0.1-0.3,0.2-0.4,0.3c-0.1,0.1-0.2,0.3-0.2,0.5c0,0.2,0,0.3,0.1,0.5c0.1,0.2,0.2,0.3,0.3,0.4c0.1,0.1,0.3,0.2,0.5,0.2
				c0.2,0,0.4,0,0.6-0.1c0.2-0.1,0.3-0.2,0.4-0.3c0.1-0.1,0.2-0.3,0.2-0.5c0-0.2,0-0.4-0.1-0.5c-0.1-0.2-0.2-0.3-0.3-0.4
				c-0.1-0.1-0.3-0.2-0.6-0.2C321.5,255,321.3,255,321.2,255.1z"/>
			<path class="st8" d="M318.9,260.4l0.2-1.4l4.2,0.6l-0.2,1.4L318.9,260.4z M321.7,261.8c0.1-0.1,0.1-0.2,0.1-0.3
				c0-0.1,0-0.3-0.1-0.4s-0.2-0.2-0.3-0.3c-0.1-0.1-0.3-0.1-0.5-0.2l0.5-0.3c0.3,0,0.6,0.2,0.9,0.3c0.2,0.2,0.4,0.4,0.6,0.6
				c0.1,0.2,0.2,0.5,0.1,0.7c0,0.2-0.1,0.3-0.2,0.4c-0.1,0.1-0.2,0.2-0.3,0.3l-1.1-0.8C321.6,261.9,321.7,261.9,321.7,261.8z"/>
			<path class="st1" d="M324.4,268.3l-0.7,5l-4.7-3.7l-0.4,2.7l-1.3-0.2l0.7-5.2l4.7,3.6l0.3-2.5L324.4,268.3z"/>
			<path class="st1" d="M320.5,273.1c0.3,0.3,0.5,0.6,0.7,1c0.1,0.4,0.2,0.8,0.1,1.3c-0.1,0.5-0.2,0.9-0.4,1.2
				c-0.2,0.3-0.5,0.6-0.9,0.8s-0.8,0.2-1.2,0.2c-0.4-0.1-0.8-0.2-1.1-0.5c-0.3-0.3-0.5-0.6-0.7-1c-0.1-0.4-0.2-0.8-0.1-1.3
				c0.1-0.5,0.2-0.9,0.4-1.2c0.2-0.3,0.5-0.6,0.9-0.8c0.4-0.2,0.8-0.2,1.2-0.2C319.8,272.7,320.2,272.9,320.5,273.1z M318.6,274.1
				c-0.2,0.1-0.3,0.2-0.4,0.3c-0.1,0.1-0.2,0.3-0.2,0.5c0,0.2,0,0.3,0.1,0.5c0.1,0.2,0.2,0.3,0.3,0.4c0.1,0.1,0.3,0.2,0.5,0.2
				c0.2,0,0.4,0,0.6-0.1c0.2-0.1,0.3-0.2,0.4-0.3c0.1-0.1,0.2-0.3,0.2-0.5c0-0.2,0-0.4-0.1-0.5c-0.1-0.2-0.2-0.3-0.3-0.4
				c-0.1-0.1-0.3-0.2-0.6-0.2C319,274.1,318.8,274.1,318.6,274.1z"/>
			<path class="st1" d="M319.3,281.1c0.1-0.1,0.2-0.2,0.3-0.4c0-0.1,0-0.3,0-0.4c0-0.1-0.1-0.2-0.2-0.3c-0.1-0.1-0.2-0.1-0.4-0.1
				l-2.6-0.4l0.2-1.4l4.2,0.6l-0.2,1.4l-0.6-0.1c0.2,0.2,0.4,0.3,0.5,0.6c0.1,0.2,0.1,0.5,0.1,0.8c-0.1,0.5-0.3,0.9-0.6,1.1
				c-0.3,0.2-0.7,0.3-1.2,0.2l-2.7-0.4l0.2-1.4l2.6,0.4C318.9,281.2,319.1,281.2,319.3,281.1z"/>
			<path class="st1" d="M315.8,284.3c0.2-0.3,0.5-0.6,0.9-0.7c0.4-0.2,0.8-0.2,1.2-0.1c0.5,0.1,0.8,0.2,1.1,0.4
				c0.3,0.2,0.5,0.5,0.7,0.9c0.1,0.4,0.2,0.8,0.1,1.3c-0.1,0.5-0.2,0.9-0.4,1.2c-0.2,0.3-0.5,0.5-0.8,0.7c-0.3,0.1-0.7,0.2-1.2,0.1
				c-0.1,0-0.1,0-0.2,0c-0.1,0-0.1,0-0.2,0l0.5-3.9l0.8,0.1l-0.4,2.6l-0.4-0.4c0,0,0.1,0.1,0.2,0.1c0.1,0,0.1,0,0.2,0.1
				c0.2,0,0.3,0,0.5,0c0.1,0,0.3-0.1,0.4-0.2c0.1-0.1,0.1-0.3,0.2-0.4c0-0.2,0-0.4-0.1-0.5c-0.1-0.2-0.2-0.3-0.4-0.4
				c-0.2-0.1-0.4-0.2-0.7-0.2c-0.3,0-0.5,0-0.7,0c-0.2,0-0.3,0.1-0.5,0.3c-0.1,0.1-0.2,0.3-0.2,0.5c0,0.2,0,0.5,0.1,0.7
				c0.1,0.2,0.2,0.3,0.4,0.5l-0.5,1.2c-0.4-0.3-0.7-0.6-0.8-1c-0.2-0.4-0.2-0.9-0.1-1.4C315.4,285,315.6,284.6,315.8,284.3z"/>
			<path class="st8" d="M325.1,235.9l2.7,4.2l-2.7-0.4c-0.3,0-0.5-0.2-0.7-0.4l-2.7-4.2l2.7,0.4C324.7,235.5,325,235.6,325.1,235.9z
				"/>
			<path class="st8" d="M325.7,231.7l2.7,4.2l-2.7-0.4c-0.3,0-0.5-0.2-0.7-0.4l-2.7-4.2l2.7,0.4
				C325.3,231.3,325.5,231.5,325.7,231.7z"/>
			<circle class="st8" cx="322.5" cy="239.3" r="0.9"/>
			<polygon class="st8" points="316.5,262.3 316.4,263.7 322.1,268.2 322.3,266.7 			"/>
			<g>
				<polygon class="st8" points="320.2,265.2 322.6,264.6 322.8,263 319,264.2 				"/>
			</g>
		</g>
	</g>
	<circle class="st8" cx="327.7" cy="211.8" r="1.3"/>
	<circle class="st8" cx="341.5" cy="117.5" r="1.3"/>
	<g>
		<defs>
			<path id="SVGID_00000047780844934614910150000017708689894077176722_" d="M335.7,66.9c0,0,17.7,8.6,19.6,17.1s1.4,9.9-3.4,16.5
				c-4.8,6.6,0.8,10-7.1,7S330.4,95,328.7,90.9"/>
		</defs>
		<clipPath id="SVGID_00000160874623642674766030000015514114187205446068_">
			<use xlink:href="#SVGID_00000047780844934614910150000017708689894077176722_"  style="overflow:visible;"/>
		</clipPath>
		<g style="clip-path:url(#SVGID_00000160874623642674766030000015514114187205446068_);">
			<g>
				<path class="st8" d="M349.1,50.5c0.2-0.3,0.5-0.6,0.9-0.7c0.4-0.2,0.8-0.2,1.2-0.1c0.5,0.1,0.8,0.2,1.1,0.4
					c0.3,0.2,0.5,0.5,0.7,0.9c0.1,0.4,0.2,0.8,0.1,1.3c-0.1,0.5-0.2,0.9-0.4,1.2c-0.2,0.3-0.5,0.5-0.8,0.7c-0.3,0.1-0.7,0.2-1.2,0.1
					c-0.1,0-0.1,0-0.2,0c-0.1,0-0.1,0-0.2,0l0.5-3.9l0.8,0.1l-0.4,2.6l-0.4-0.4c0,0,0.1,0.1,0.2,0.1c0.1,0,0.1,0,0.2,0.1
					c0.2,0,0.3,0,0.5,0c0.1,0,0.3-0.1,0.4-0.2c0.1-0.1,0.1-0.3,0.2-0.4c0-0.2,0-0.4-0.1-0.5c-0.1-0.2-0.2-0.3-0.4-0.4
					c-0.2-0.1-0.4-0.2-0.7-0.2c-0.3,0-0.5,0-0.7,0c-0.2,0-0.3,0.1-0.5,0.3c-0.1,0.1-0.2,0.3-0.2,0.5c0,0.2,0,0.5,0.1,0.7
					c0.1,0.2,0.2,0.3,0.4,0.5l-0.5,1.2c-0.4-0.3-0.7-0.6-0.8-1c-0.2-0.4-0.2-0.9-0.1-1.4C348.7,51.2,348.8,50.8,349.1,50.5z"/>
				<path class="st8" d="M347.4,61.4l0.2-1.4l2.6,0.4c0.3,0,0.5,0,0.6,0c0.1-0.1,0.2-0.2,0.3-0.4c0-0.1,0-0.2,0-0.3
					c0-0.1-0.1-0.2-0.2-0.3c-0.1-0.1-0.3-0.1-0.4-0.1l-2.6-0.4l0.2-1.4l2.6,0.4c0.3,0,0.5,0,0.6,0c0.1-0.1,0.2-0.2,0.3-0.4
					c0-0.1,0-0.2,0-0.3c0-0.1-0.1-0.2-0.2-0.3c-0.1-0.1-0.3-0.1-0.4-0.1l-2.6-0.4l0.2-1.3l4.2,0.6l-0.2,1.3l-0.6-0.1
					c0.2,0.1,0.4,0.3,0.5,0.6c0.1,0.2,0.1,0.5,0.1,0.8c0,0.3-0.1,0.6-0.3,0.8s-0.3,0.3-0.6,0.4c0.2,0.2,0.3,0.4,0.4,0.6
					c0.1,0.2,0.1,0.5,0.1,0.8c0,0.3-0.1,0.6-0.3,0.8c-0.2,0.2-0.4,0.3-0.6,0.3c-0.3,0.1-0.6,0.1-0.9,0L347.4,61.4z"/>
				<path class="st8" d="M350.5,63c0.3,0.3,0.5,0.6,0.7,1c0.1,0.4,0.2,0.8,0.1,1.3c-0.1,0.5-0.2,0.9-0.4,1.2
					c-0.2,0.3-0.5,0.6-0.9,0.8c-0.4,0.2-0.8,0.2-1.2,0.2c-0.4-0.1-0.8-0.2-1.1-0.5c-0.3-0.3-0.5-0.6-0.7-1c-0.1-0.4-0.2-0.8-0.1-1.3
					c0.1-0.5,0.2-0.9,0.4-1.2c0.2-0.3,0.5-0.6,0.9-0.8c0.4-0.2,0.8-0.2,1.2-0.2C349.9,62.5,350.2,62.7,350.5,63z M348.6,64
					c-0.2,0.1-0.3,0.2-0.4,0.3c-0.1,0.1-0.2,0.3-0.2,0.5c0,0.2,0,0.3,0.1,0.5c0.1,0.2,0.2,0.3,0.3,0.4c0.1,0.1,0.3,0.2,0.5,0.2
					c0.2,0,0.4,0,0.6-0.1c0.2-0.1,0.3-0.2,0.4-0.3c0.1-0.1,0.2-0.3,0.2-0.5c0-0.2,0-0.4-0.1-0.5c-0.1-0.2-0.2-0.3-0.3-0.4
					c-0.1-0.1-0.3-0.2-0.6-0.2C349,63.9,348.8,63.9,348.6,64z"/>
				<path class="st8" d="M346.3,69.3l0.2-1.4l4.2,0.6l-0.2,1.4L346.3,69.3z M349.2,70.7c0.1-0.1,0.1-0.2,0.1-0.3
					c0-0.1,0-0.3-0.1-0.4c-0.1-0.1-0.2-0.2-0.3-0.3c-0.1-0.1-0.3-0.1-0.5-0.2l0.5-0.3c0.3,0,0.6,0.2,0.9,0.3
					c0.2,0.2,0.4,0.4,0.6,0.6c0.1,0.2,0.2,0.5,0.1,0.7c0,0.2-0.1,0.3-0.2,0.4c-0.1,0.1-0.2,0.2-0.3,0.3l-1.1-0.8
					C349.1,70.8,349.1,70.7,349.2,70.7z"/>
				<path class="st1" d="M351.8,77.2l-0.7,5l-4.7-3.7l-0.4,2.7l-1.3-0.2l0.7-5.2l4.7,3.6l0.3-2.5L351.8,77.2z"/>
				<path class="st1" d="M348,82c0.3,0.3,0.5,0.6,0.7,1c0.1,0.4,0.2,0.8,0.1,1.3c-0.1,0.5-0.2,0.9-0.4,1.2c-0.2,0.3-0.5,0.6-0.9,0.8
					s-0.8,0.2-1.2,0.2c-0.4-0.1-0.8-0.2-1.1-0.5c-0.3-0.3-0.5-0.6-0.7-1c-0.1-0.4-0.2-0.8-0.1-1.3c0.1-0.5,0.2-0.9,0.4-1.2
					c0.2-0.3,0.5-0.6,0.9-0.8c0.4-0.2,0.8-0.2,1.2-0.2C347.3,81.6,347.7,81.7,348,82z M346.1,83c-0.2,0.1-0.3,0.2-0.4,0.3
					c-0.1,0.1-0.2,0.3-0.2,0.5c0,0.2,0,0.3,0.1,0.5c0.1,0.2,0.2,0.3,0.3,0.4c0.1,0.1,0.3,0.2,0.5,0.2c0.2,0,0.4,0,0.6-0.1
					c0.2-0.1,0.3-0.2,0.4-0.3c0.1-0.1,0.2-0.3,0.2-0.5c0-0.2,0-0.4-0.1-0.5c-0.1-0.2-0.2-0.3-0.3-0.4c-0.1-0.1-0.3-0.2-0.6-0.2
					C346.4,82.9,346.2,82.9,346.1,83z"/>
				<path class="st1" d="M346.8,90c0.1-0.1,0.2-0.2,0.3-0.4c0-0.1,0-0.3,0-0.4c0-0.1-0.1-0.2-0.2-0.3c-0.1-0.1-0.2-0.1-0.4-0.1
					l-2.6-0.4l0.2-1.4l4.2,0.6l-0.2,1.4l-0.6-0.1c0.2,0.2,0.4,0.3,0.5,0.6c0.1,0.2,0.1,0.5,0.1,0.8c-0.1,0.5-0.3,0.9-0.6,1.1
					c-0.3,0.2-0.7,0.3-1.2,0.2l-2.7-0.4l0.2-1.4l2.6,0.4C346.4,90.1,346.6,90,346.8,90z"/>
				<path class="st1" d="M343.3,93.1c0.2-0.3,0.5-0.6,0.9-0.7c0.4-0.2,0.8-0.2,1.2-0.1c0.5,0.1,0.8,0.2,1.1,0.4
					c0.3,0.2,0.5,0.5,0.7,0.9c0.1,0.4,0.2,0.8,0.1,1.3c-0.1,0.5-0.2,0.9-0.4,1.2c-0.2,0.3-0.5,0.5-0.8,0.7c-0.3,0.1-0.7,0.2-1.2,0.1
					c-0.1,0-0.1,0-0.2,0c-0.1,0-0.1,0-0.2,0L345,93l0.8,0.1l-0.4,2.6l-0.4-0.4c0,0,0.1,0.1,0.2,0.1c0.1,0,0.1,0,0.2,0.1
					c0.2,0,0.3,0,0.5,0c0.1,0,0.3-0.1,0.4-0.2c0.1-0.1,0.1-0.3,0.2-0.4c0-0.2,0-0.4-0.1-0.5c-0.1-0.2-0.2-0.3-0.4-0.4
					c-0.2-0.1-0.4-0.2-0.7-0.2c-0.3,0-0.5,0-0.7,0c-0.2,0-0.3,0.1-0.5,0.3c-0.1,0.1-0.2,0.3-0.2,0.5c0,0.2,0,0.5,0.1,0.7
					c0.1,0.2,0.2,0.3,0.4,0.5l-0.5,1.2c-0.4-0.3-0.7-0.6-0.8-1c-0.2-0.4-0.2-0.9-0.1-1.4C342.9,93.9,343.1,93.5,343.3,93.1z"/>
				<path class="st8" d="M352.6,44.7l2.7,4.2l-2.7-0.4c-0.3,0-0.5-0.2-0.7-0.4l-2.7-4.2l2.7,0.4C352.2,44.3,352.4,44.5,352.6,44.7z"
					/>
				<path class="st8" d="M353.1,40.6l2.7,4.2l-2.7-0.4c-0.3,0-0.5-0.2-0.7-0.4l-2.7-4.2l2.7,0.4C352.7,40.2,353,40.4,353.1,40.6z"/>
				<circle class="st8" cx="350" cy="48.1" r="0.9"/>
				<polygon class="st8" points="344,71.1 343.8,72.6 349.6,77 349.8,75.6 				"/>
				<g>
					<polygon class="st8" points="347.7,74.1 350.1,73.4 350.3,71.9 346.5,73.1 					"/>
				</g>
			</g>
		</g>
	</g>
</g>
<circle class="st8" cx="314.1" cy="306.2" r="1.3"/>
<g>
	<g>
		<path class="st8" d="M310.4,341.6c0.2-0.4,0.4-0.6,0.8-0.8c0.3-0.2,0.7-0.3,1.2-0.3c0.5,0,0.9,0.1,1.2,0.3
			c0.3,0.2,0.6,0.5,0.8,0.8c0.2,0.4,0.3,0.8,0.3,1.3c0,0.5-0.1,0.9-0.3,1.3c-0.2,0.3-0.4,0.6-0.7,0.8c-0.3,0.2-0.7,0.3-1.2,0.3
			c-0.1,0-0.1,0-0.2,0c-0.1,0-0.1,0-0.2,0v-3.9h0.8v2.6l-0.4-0.3c0,0,0.1,0.1,0.2,0.1c0.1,0,0.1,0,0.2,0c0.2,0,0.3,0,0.5-0.1
			c0.1-0.1,0.2-0.2,0.3-0.3c0.1-0.1,0.1-0.3,0.1-0.4c0-0.2,0-0.4-0.1-0.5c-0.1-0.1-0.2-0.3-0.4-0.3c-0.2-0.1-0.4-0.1-0.7-0.1
			c-0.3,0-0.5,0-0.7,0.1c-0.2,0.1-0.3,0.2-0.4,0.3c-0.1,0.1-0.1,0.3-0.1,0.5c0,0.2,0,0.5,0.1,0.6c0.1,0.2,0.2,0.3,0.4,0.4l-0.3,1.3
			c-0.4-0.2-0.7-0.5-1-0.9c-0.2-0.4-0.3-0.8-0.3-1.4C310.1,342.4,310.2,342,310.4,341.6z"/>
		<path class="st8" d="M310.2,352.6v-1.4h2.6c0.3,0,0.5,0,0.6-0.1c0.1-0.1,0.2-0.2,0.2-0.4c0-0.1,0-0.2-0.1-0.3
			c-0.1-0.1-0.1-0.2-0.3-0.2c-0.1-0.1-0.3-0.1-0.4-0.1h-2.6v-1.4h2.6c0.3,0,0.5,0,0.6-0.1c0.1-0.1,0.2-0.2,0.2-0.4
			c0-0.1,0-0.2-0.1-0.3c-0.1-0.1-0.1-0.2-0.3-0.2c-0.1-0.1-0.3-0.1-0.4-0.1h-2.6v-1.4h4.3v1.4h-0.6c0.2,0.1,0.4,0.3,0.5,0.5
			c0.1,0.2,0.2,0.5,0.2,0.8c0,0.3-0.1,0.6-0.2,0.8c-0.1,0.2-0.3,0.3-0.5,0.4c0.2,0.2,0.4,0.3,0.5,0.6c0.1,0.2,0.2,0.5,0.2,0.8
			c0,0.3-0.1,0.6-0.2,0.8c-0.1,0.2-0.3,0.3-0.6,0.4c-0.2,0.1-0.5,0.1-0.9,0.1H310.2z"/>
		<path class="st8" d="M313.6,353.8c0.3,0.2,0.6,0.5,0.8,0.9c0.2,0.4,0.3,0.8,0.3,1.3c0,0.5-0.1,0.9-0.3,1.3
			c-0.2,0.4-0.4,0.7-0.8,0.9c-0.3,0.2-0.7,0.3-1.2,0.3c-0.4,0-0.8-0.1-1.2-0.3c-0.3-0.2-0.6-0.5-0.8-0.9c-0.2-0.4-0.3-0.8-0.3-1.3
			c0-0.5,0.1-0.9,0.3-1.3c0.2-0.4,0.4-0.7,0.8-0.9c0.3-0.2,0.7-0.3,1.2-0.3C312.8,353.5,313.2,353.6,313.6,353.8z M311.8,355
			c-0.2,0.1-0.3,0.2-0.4,0.4c-0.1,0.1-0.1,0.3-0.1,0.5c0,0.2,0,0.3,0.1,0.5c0.1,0.2,0.2,0.3,0.4,0.4c0.2,0.1,0.3,0.1,0.6,0.1
			c0.2,0,0.4,0,0.6-0.1c0.2-0.1,0.3-0.2,0.4-0.4s0.1-0.3,0.1-0.5c0-0.2,0-0.4-0.1-0.5s-0.2-0.3-0.4-0.4c-0.2-0.1-0.4-0.1-0.6-0.1
			C312.2,354.9,312,354.9,311.8,355z"/>
		<path class="st8" d="M310.2,360.6v-1.4h4.3v1.4H310.2z M313.2,361.6c0-0.1,0.1-0.2,0.1-0.3c0-0.1,0-0.3-0.1-0.4
			c-0.1-0.1-0.2-0.2-0.3-0.2c-0.1-0.1-0.3-0.1-0.5-0.1l0.5-0.3c0.3,0,0.6,0.1,0.9,0.2c0.3,0.1,0.5,0.3,0.6,0.5
			c0.2,0.2,0.2,0.4,0.2,0.7c0,0.2,0,0.3-0.1,0.4c-0.1,0.1-0.1,0.3-0.3,0.3l-1.2-0.6C313.1,361.8,313.2,361.7,313.2,361.6z"/>
		<path class="st1" d="M316.8,367.7v5l-5.2-3v2.7h-1.4v-5.2l5.1,3v-2.5H316.8z"/>
		<path class="st1" d="M313.6,373c0.3,0.2,0.6,0.5,0.8,0.9c0.2,0.4,0.3,0.8,0.3,1.3c0,0.5-0.1,0.9-0.3,1.3c-0.2,0.4-0.4,0.7-0.8,0.9
			c-0.3,0.2-0.7,0.3-1.2,0.3c-0.4,0-0.8-0.1-1.2-0.3c-0.3-0.2-0.6-0.5-0.8-0.9c-0.2-0.4-0.3-0.8-0.3-1.3c0-0.5,0.1-0.9,0.3-1.3
			c0.2-0.4,0.4-0.7,0.8-0.9c0.3-0.2,0.7-0.3,1.2-0.3C312.8,372.7,313.2,372.8,313.6,373z M311.8,374.2c-0.2,0.1-0.3,0.2-0.4,0.4
			c-0.1,0.1-0.1,0.3-0.1,0.5c0,0.2,0,0.3,0.1,0.5c0.1,0.2,0.2,0.3,0.4,0.4c0.2,0.1,0.3,0.1,0.6,0.1c0.2,0,0.4,0,0.6-0.1
			c0.2-0.1,0.3-0.2,0.4-0.4c0.1-0.2,0.1-0.3,0.1-0.5c0-0.2,0-0.4-0.1-0.5c-0.1-0.1-0.2-0.3-0.4-0.4c-0.2-0.1-0.4-0.1-0.6-0.1
			C312.2,374.1,312,374.2,311.8,374.2z"/>
		<path class="st1" d="M313.4,381c0.1-0.1,0.2-0.3,0.2-0.5c0-0.1,0-0.3-0.1-0.4c-0.1-0.1-0.2-0.2-0.3-0.3c-0.1-0.1-0.3-0.1-0.4-0.1
			h-2.6v-1.4h4.3v1.4h-0.6c0.2,0.1,0.4,0.3,0.5,0.5c0.1,0.2,0.2,0.5,0.2,0.8c0,0.5-0.1,0.9-0.4,1.2c-0.3,0.2-0.7,0.4-1.2,0.4h-2.8
			v-1.5h2.6C313.1,381.2,313.3,381.1,313.4,381z"/>
		<path class="st1" d="M310.4,384.7c0.2-0.4,0.4-0.6,0.8-0.8c0.3-0.2,0.7-0.3,1.2-0.3c0.5,0,0.9,0.1,1.2,0.3
			c0.3,0.2,0.6,0.5,0.8,0.8c0.2,0.4,0.3,0.8,0.3,1.3c0,0.5-0.1,0.9-0.3,1.3c-0.2,0.3-0.4,0.6-0.7,0.8c-0.3,0.2-0.7,0.3-1.2,0.3
			c-0.1,0-0.1,0-0.2,0c-0.1,0-0.1,0-0.2,0v-3.9h0.8v2.6l-0.4-0.3c0,0,0.1,0.1,0.2,0.1c0.1,0,0.1,0,0.2,0c0.2,0,0.3,0,0.5-0.1
			c0.1-0.1,0.2-0.2,0.3-0.3c0.1-0.1,0.1-0.3,0.1-0.4c0-0.2,0-0.4-0.1-0.5c-0.1-0.1-0.2-0.3-0.4-0.3c-0.2-0.1-0.4-0.1-0.7-0.1
			c-0.3,0-0.5,0-0.7,0.1c-0.2,0.1-0.3,0.2-0.4,0.3c-0.1,0.1-0.1,0.3-0.1,0.5c0,0.2,0,0.5,0.1,0.6c0.1,0.2,0.2,0.3,0.4,0.4l-0.3,1.3
			c-0.4-0.2-0.7-0.5-1-0.9c-0.2-0.4-0.3-0.8-0.3-1.4C310.1,385.4,310.2,385,310.4,384.7z"/>
		<path class="st8" d="M313.1,335.4l3.2,3.8h-2.7c-0.3,0-0.5-0.1-0.7-0.3l-3.2-3.8h2.7C312.7,335.1,313,335.2,313.1,335.4z"/>
		<path class="st8" d="M313.1,331.3l3.2,3.8h-2.7c-0.3,0-0.5-0.1-0.7-0.3l-3.2-3.8h2.7C312.7,330.9,313,331,313.1,331.3z"/>
		<circle class="st8" cx="311" cy="339.2" r="0.9"/>
		<polygon class="st8" points="308.2,362.7 308.2,364.2 314.5,367.9 314.5,366.4 		"/>
		<g>
			<polygon class="st8" points="312.2,365.1 314.5,364.2 314.5,362.7 310.9,364.4 			"/>
		</g>
	</g>
</g>
<path class="st3" d="M312.8,46c-7.4-0.2-42.3,1.9-42.3,38.4c0,0.7,2.4-20.5,42.3-21c39.9,0.5,42.5,21.7,42.5,21
	C355.3,48,320.2,45.8,312.8,46z"/>
<g>
	<g>
		<path class="st8" d="M216.5,503l12.5-10.5v8.8c0,0.9-0.4,1.7-1.1,2.3l-12.5,10.5v-8.8C215.4,504.5,215.8,503.6,216.5,503z"/>
		<path class="st8" d="M202.8,503l12.5-10.5v8.8c0,0.9-0.4,1.7-1.1,2.3l-12.5,10.5v-8.8C201.8,504.5,202.2,503.6,202.8,503z"/>
		<circle class="st8" cx="228.6" cy="509.9" r="3"/>
	</g>
</g>
</svg>
